<mxfile host="65bd71144e">
    <diagram name="Page-1" id="ae-eDxOhzMIIptz6SvjI">
        <mxGraphModel dx="1020" dy="414" grid="0" gridSize="10" guides="1" tooltips="1" connect="1" arrows="1" fold="1" page="0" pageScale="1" pageWidth="827" pageHeight="1169" background="#ffffff" math="0" shadow="0">
            <root>
                <mxCell id="0"/>
                <mxCell id="1" parent="0"/>
                <mxCell id="UzYKZvjn3l8_6wOiVzGm-8" value="" style="fontColor=#0066CC;verticalAlign=top;verticalLabelPosition=bottom;labelPosition=center;align=center;html=1;outlineConnect=0;fillColor=none;strokeColor=default;gradientColor=none;gradientDirection=north;strokeWidth=2;shape=mxgraph.networks.pc;" parent="1" vertex="1">
                    <mxGeometry x="-241" y="407" width="379" height="240" as="geometry"/>
                </mxCell>
                <mxCell id="UzYKZvjn3l8_6wOiVzGm-17" value="publish" style="edgeStyle=orthogonalEdgeStyle;rounded=0;orthogonalLoop=1;jettySize=auto;html=1;exitX=0.5;exitY=0;exitDx=0;exitDy=0;entryX=0.437;entryY=1.022;entryDx=0;entryDy=0;entryPerimeter=0;" parent="1" source="UzYKZvjn3l8_6wOiVzGm-16" target="UzYKZvjn3l8_6wOiVzGm-6" edge="1">
                    <mxGeometry relative="1" as="geometry"/>
                </mxCell>
                <mxCell id="UzYKZvjn3l8_6wOiVzGm-16" value="" style="whiteSpace=wrap;html=1;fillColor=#ffe6cc;strokeColor=#d79b00;" parent="1" vertex="1">
                    <mxGeometry x="-14" y="440" width="142" height="127" as="geometry"/>
                </mxCell>
                <mxCell id="UzYKZvjn3l8_6wOiVzGm-18" value="consume" style="edgeStyle=orthogonalEdgeStyle;rounded=0;orthogonalLoop=1;jettySize=auto;html=1;" parent="1" source="UzYKZvjn3l8_6wOiVzGm-7" target="UzYKZvjn3l8_6wOiVzGm-4" edge="1">
                    <mxGeometry relative="1" as="geometry"/>
                </mxCell>
                <mxCell id="UzYKZvjn3l8_6wOiVzGm-7" value="" style="html=1;verticalLabelPosition=bottom;align=center;labelBackgroundColor=#ffffff;verticalAlign=top;strokeWidth=2;strokeColor=#0080F0;shadow=0;dashed=0;shape=mxgraph.ios7.icons.cloud;fillColor=none;" parent="1" vertex="1">
                    <mxGeometry x="-261" y="39" width="305" height="247" as="geometry"/>
                </mxCell>
                <mxCell id="UzYKZvjn3l8_6wOiVzGm-2" value="evm-web3-hooks" style="whiteSpace=wrap;html=1;" parent="1" vertex="1">
                    <mxGeometry x="-179" y="128" width="147" height="60" as="geometry"/>
                </mxCell>
                <mxCell id="UzYKZvjn3l8_6wOiVzGm-3" value="ms365-graph-api-auth" style="whiteSpace=wrap;html=1;" parent="1" vertex="1">
                    <mxGeometry x="-179" y="209" width="148" height="60" as="geometry"/>
                </mxCell>
                <mxCell id="UzYKZvjn3l8_6wOiVzGm-28" value="" style="edgeStyle=orthogonalEdgeStyle;rounded=0;orthogonalLoop=1;jettySize=auto;html=1;" parent="1" source="UzYKZvjn3l8_6wOiVzGm-4" target="UzYKZvjn3l8_6wOiVzGm-12" edge="1">
                    <mxGeometry relative="1" as="geometry"/>
                </mxCell>
                <mxCell id="UzYKZvjn3l8_6wOiVzGm-4" value="frontendA&lt;br&gt;(dapp-boilerplate)" style="whiteSpace=wrap;html=1;fillColor=#dae8fc;strokeColor=#6c8ebf;" parent="1" vertex="1">
                    <mxGeometry x="-150" y="452" width="118" height="41" as="geometry"/>
                </mxCell>
                <mxCell id="UzYKZvjn3l8_6wOiVzGm-6" value="" style="shape=image;verticalLabelPosition=bottom;labelBackgroundColor=default;verticalAlign=top;aspect=fixed;imageAspect=0;image=data:image/png,iVBORw0KGgoAAAANSUhEUgAAALgAAABcCAYAAADd5n9TAAAKrmlDQ1BJQ0MgUHJvZmlsZQAASImVlwdUU9kWhs+96SGhJYQiJfQmSCeAlBBaAAXpICohCRBKCIGgYkNEHIERRUUEKzoCouCoFBkrolgYFJViHZBBRBkHC6Ki8i6wCDPz1ntvvb3WXufLzj7/2eese+7aFwCyPEckSoblAUgRZoiDvN3pEZFRdNwQgAAayIH5QI/DTRcxAwP9AWKz49/tYzeSjdh9symtf///v5oCj5/OBQAKRDiWl85NQfgs4q+4InEGAKhDSFx3ZYZoilsRpoqRAhHuneL4GR6Z4thpRoPpnJAgFsJUAPAkDkccDwCJjsTpmdx4RIfkhrCFkCcQIixC2CUlJZWH8CmEjZAcJEaa0mfE/kUn/m+asVJNDideyjN7mTa8hyBdlMxZ/X8ex/+2lGTJ7BoGiJMSxD5ByKiInFlvUqqflIWxiwNmWcCbzp/mBIlP6Cxz01lRs8zjePhJ5yYv9p/lOIEXW6qTwQ6ZZX66Z/Asi1ODpGvFiVnMWeaI59aVJIVK4wl8tlQ/KyEkfJYzBWGLZzk9KdhvLocljYslQdL6+UJv97l1vaR7T0n/y34FbOncjIQQH+neOXP184XMOc30CGltPL6H51xOqDRflOEuXUuUHCjN5yd7S+PpmcHSuRnIAzk3N1B6hokc38BZBiyQCpIRFwM68Ed+eQCQwV+VMbURVqpotVgQn5BBZyI3jE9nC7nm8+lWFlbWAEzd15nH4T1t+h5CtFtzsZwPADjzJicnz8/F/PUAOLsZAOKLuZjhRQBklQG4UcCViDNnYtN3CQOIyHuAClSBJtAFRsAMWAE74ATcgCfwBQEgBESC5YALEkAKUvlKsBZsBHmgAGwHu0EZOAiOgCpwEpwGjeA8uAKug9vgLugCj0EfGASvwSj4CCYgCMJBZIgCqUJakD5kCllBDMgF8oT8oSAoEoqB4iEhJIHWQpugAqgYKoMOQ9XQz9A56Ap0E+qEHkL90DD0DvoCo2ASTIU1YAN4AcyAmbAfHAIvg+PhNDgLzoW3waVwBXwCboCvwLfhLrgPfg2PoQBKBkVDaaPMUAwUCxWAikLFocSo9ah8VAmqAlWLaka1oe6j+lAjqM9oLJqCpqPN0E5oH3QomotOQ69HF6LL0FXoBnQr+j66Hz2K/o4hY9QxphhHDBsTgYnHrMTkYUowxzD1mGuYLswg5iMWi6VhDbH2WB9sJDYRuwZbiN2PrcNexnZiB7BjOBxOFWeKc8YF4Di4DFwebi/uBO4S7h5uEPcJL4PXwlvhvfBReCE+B1+CP46/iL+HH8JPEOQJ+gRHQgCBR1hNKCIcJTQT7hAGCRNEBaIh0ZkYQkwkbiSWEmuJ14hPiO9lZGR0ZBxklsgIZLJlSmVOydyQ6Zf5TFIkmZBYpGiShLSNVEm6THpIek8mkw3IbuQocgZ5G7mafJX8jPxJliJrLsuW5clukC2XbZC9J/tGjiCnL8eUWy6XJVcid0bujtyIPEHeQJ4lz5FfL18uf06+R35MgaJgqRCgkKJQqHBc4abCS0WcooGipyJPMVfxiOJVxQEKiqJLYVG4lE2Uo5RrlEEqlmpIZVMTqQXUk9QO6qiSopKNUpjSKqVypQtKfTQUzYDGpiXTiminad20L8oaykxlvvJW5Vrle8rjKvNU3FT4KvkqdSpdKl9U6aqeqkmqO1QbVZ+qodVM1JaorVQ7oHZNbWQedZ7TPO68/Hmn5z1Sh9VN1IPU16gfUW9XH9PQ1PDWEGns1biqMaJJ03TTTNTcpXlRc1iLouWiJdDapXVJ6xVdic6kJ9NL6a30UW11bR9tifZh7Q7tCR1DnVCdHJ06nae6RF2GbpzuLt0W3VE9Lb1Femv1avQe6RP0GfoJ+nv02/THDQwNwg22GDQavDRUMWQbZhnWGD4xIhu5GqUZVRg9MMYaM4yTjPcb3zWBTWxNEkzKTe6YwqZ2pgLT/aad8zHzHeYL51fM7zEjmTHNMs1qzPrNaeb+5jnmjeZvFugtiFqwY0Hbgu8WthbJFkctHlsqWvpa5lg2W76zMrHiWpVbPbAmW3tZb7Busn5rY2rDtzlg02tLsV1ku8W2xfabnb2d2K7Wbthezz7Gfp99D4PKCGQUMm44YBzcHTY4nHf47GjnmOF42vFPJzOnJKfjTi8XGi7kLzy6cMBZx5njfNi5z4XuEuNyyKXPVduV41rh+txN143ndsxtiGnMTGSeYL5xt3AXu9e7j7McWetYlz1QHt4e+R4dnoqeoZ5lns+8dLzivWq8Rr1tvdd4X/bB+Pj57PDpYWuwuexq9qivve8631Y/kl+wX5nfc38Tf7F/8yJ4ke+inYueLNZfLFzcGAAC2AE7A54GGgamBf6yBLskcEn5khdBlkFrg9qCKcErgo8HfwxxDykKeRxqFCoJbQmTC4sOqw4bD/cILw7vi1gQsS7idqRapCCyKQoXFRZ1LGpsqefS3UsHo22j86K7lxkuW7Xs5nK15cnLL6yQW8FZcSYGExMeczzmKyeAU8EZi2XH7osd5bK4e7iveW68XbxhvjO/mD8U5xxXHPcy3jl+Z/xwgmtCScKIgCUoE7xN9Ek8mDieFJBUmTSZHJ5cl4JPiUk5J1QUJglbUzVTV6V2ikxFeaK+NMe03WmjYj/xsXQofVl6UwYVaYzaJUaSzZL+TJfM8sxPK8NWnlmlsEq4qn21yeqtq4eyvLJ+WoNew13TslZ77ca1/euY6w6vh9bHrm/ZoLshd8Ngtnd21UbixqSNv+ZY5BTnfNgUvqk5VyM3O3dgs/fmmjzZPHFezxanLQd/QP8g+KFjq/XWvVu/5/PybxVYFJQUfC3kFt760fLH0h8nt8Vt6yiyKzqwHbtduL17h+uOqmKF4qzigZ2Ldjbsou/K3/Vh94rdN0tsSg7uIe6R7Okr9S9t2qu3d/ver2UJZV3l7uV1+9T3bd03vp+3/94BtwO1BzUOFhz8ckhwqPew9+GGCoOKkiPYI5lHXhwNO9r2E+On6mNqxwqOfasUVvZVBVW1VttXVx9XP15UA9dIaoZPRJ+4e9LjZFOtWe3hOlpdwSlwSnLq1c8xP3ef9jvdcoZxpvas/tl99ZT6/AaoYXXDaGNCY19TZFPnOd9zLc1OzfW/mP9SeV77fPkFpQtFF4kXcy9OXsq6NHZZdHnkSvyVgZYVLY+vRlx90LqkteOa37Ub172uX21jtl264Xzj/E3Hm+duMW413ra73dBu217/q+2v9R12HQ137O803XW429y5sPPiPdd7V+573L/+gP3gdtfirs7u0O7enuievl5e78uHyQ/fPsp8NPE4+wnmSf5T+aclz9SfVfxm/Ftdn13fhX6P/vbnwc8fD3AHXv+e/vvXwdwX5BclQ1pD1S+tXp4f9hq++2rpq8HXotcTI3l/KPyx743Rm7N/uv3ZPhoxOvhW/HbyXeF71feVH2w+tIwFjj37mPJxYjz/k+qnqs+Mz21fwr8MTaz8ivta+s34W/N3v+9PJlMmJ0UcMWe6FUAhDsfFAfCuEgByJACUu0j/sHSmn542aOYbYJrAf+KZnnva7ACoRYaptoh1GYBTiBtkI9puAEy1RCFuALa2lvps7zvdp08ZFvliOeQyRV0qvGzwD5vp4f9S9z9HMKVqA/45/gsrVQZphLm9wAAAAIplWElmTU0AKgAAAAgABAEaAAUAAAABAAAAPgEbAAUAAAABAAAARgEoAAMAAAABAAIAAIdpAAQAAAABAAAATgAAAAAAAACQAAAAAQAAAJAAAAABAAOShgAHAAAAEgAAAHigAgAEAAAAAQAAALigAwAEAAAAAQAAAFwAAAAAQVNDSUkAAABTY3JlZW5zaG900TngOAAAAAlwSFlzAAAWJQAAFiUBSVIk8AAAAdVpVFh0WE1MOmNvbS5hZG9iZS54bXAAAAAAADx4OnhtcG1ldGEgeG1sbnM6eD0iYWRvYmU6bnM6bWV0YS8iIHg6eG1wdGs9IlhNUCBDb3JlIDYuMC4wIj4KICAgPHJkZjpSREYgeG1sbnM6cmRmPSJodHRwOi8vd3d3LnczLm9yZy8xOTk5LzAyLzIyLXJkZi1zeW50YXgtbnMjIj4KICAgICAgPHJkZjpEZXNjcmlwdGlvbiByZGY6YWJvdXQ9IiIKICAgICAgICAgICAgeG1sbnM6ZXhpZj0iaHR0cDovL25zLmFkb2JlLmNvbS9leGlmLzEuMC8iPgogICAgICAgICA8ZXhpZjpQaXhlbFlEaW1lbnNpb24+OTI8L2V4aWY6UGl4ZWxZRGltZW5zaW9uPgogICAgICAgICA8ZXhpZjpQaXhlbFhEaW1lbnNpb24+MTg0PC9leGlmOlBpeGVsWERpbWVuc2lvbj4KICAgICAgICAgPGV4aWY6VXNlckNvbW1lbnQ+U2NyZWVuc2hvdDwvZXhpZjpVc2VyQ29tbWVudD4KICAgICAgPC9yZGY6RGVzY3JpcHRpb24+CiAgIDwvcmRmOlJERj4KPC94OnhtcG1ldGE+CrSmQM0AAAAcaURPVAAAAAIAAAAAAAAALgAAACgAAAAuAAAALgAAAn18ytouAAACSUlEQVR4AeyZfU7DMAxHt5uAuBSIC/cSCG4CaUUiRfIs13a7zXr7px+Z3eT9XrsKrr/tc+EDgaIErgheNFmWtRFAcEQoTQDBS8fL4hAcB0oTQPDS8bI4BMeB0gQQvHS8LA7BcaA0AQQvHS+LQ3AcKE0AwUvHy+IQHAdKE0Dw0vGyOATHgdIEELx0vCwOwXGgNAEELx0vi0sT/O3l9aFofv1835zPM8318/3jsizLzbU864CWT+aaEDyTprOXFjaCO6H+lyF4jF9KNYKnYBSbILiI5dyTCH4cbwQ/jq25M4KbUe3+IoLvRpZfgOD5THtHBO8k7rhF8OPgI/hxbM2dEdyMavcXEXw3svwCBM9n2js+nOBa2H3Sln/UaH0s9f1a2la7Rq+zXEvrk/V3cO0aWXPN7tP7RbYIHqB3hjQIHgiolSJ4gB+Cy/Civ1pyV99ZBPdx26oQXIaH4DKX06SxBKBMcQwh+EAx7Vj4WthNTZ0HPMGd4NYyS0jRsHkHDwTUShE8wA/BZXjRm1ru6juL4D5uWxWCy/AQXOZymjSWAJQpjiEEHyimHQtfC7upqfOAJ7gT3FpmCSkaNu/ggYBaKYIH+CG4DC96U8tdfWcR3Mdtq0JwGR6Cy1xOk8YSgDLFMYTgA8W0Y+FrYTc1dR7wBHeCW8ssIUXD5h08EFArRfAAPwSX4UVvarmr7yyC+7htVQguw0Nwmctp0lgCUKY4hhB8oJh2LHwt7KamzgOe4E5wa5klpGjYvIMHAmqlCB7jl1Kt3SgIHkP8BwAA//+6wAy/AAAB0ElEQVTtmEFqw0AQBOWfJPhTCf6wPhGcnyS56GbWI3p63JDSRSB2epuaOuny8/dsDc/17b0hZdu+vu9Pcyp3rXIq809LNB5Ydb19fG77vsu3re44witcJnOOXsr7guAKvp7ZlTQIrjFGcI1fyzSCt2B8GILgD7HMfkRwH28E97EtJyN4GdXpgwh+Gln/AIL3Mz0SEfwg8cI3gvvgI7iPbTkZwcuoTh9sE/z0zS8cqPzvrdRbiVmZ54yfAIILjBFcgDc0iuACaAQX4A2NIrgAGsEFeEOjCC6ARnAB3tAoggugEVyANzSK4AJoBBfgDY0iuAAawQV4Q6MILoBGcAHe0Oi/FHyILdcEEEDwgCVQwUcAwX1sSQ4ggOABS6CCjwCC+9iSHEAAwQOWQAUfAQT3sSU5gACCByyBCj4CCO5jS3IAAQQPWAIVfAQQ3MeW5AACCB6wBCr4CCC4jy3JAQQQPGAJVPARQHAfW5IDCCB4wBKo4COA4D62JAcQQPCAJVDBRwDBfWxJDiCA4AFLoIKPAIL72JIcQADBA5ZABR8BBPexJTmAAIIHLIEKPgII7mNLcgABBA9YAhV8BBDcx5bkAAIIHrAEKvgIILiPLckBBH4Bfx1jKZReNzkAAAAASUVORK5CYII=;" parent="1" vertex="1">
                    <mxGeometry x="-4.003374023437516" y="56.00331298828125" width="184" height="92" as="geometry"/>
                </mxCell>
                <mxCell id="UzYKZvjn3l8_6wOiVzGm-11" value="packageB&lt;br&gt;ms365-graph-auth" style="whiteSpace=wrap;html=1;" parent="1" vertex="1">
                    <mxGeometry x="-3" y="512" width="120" height="42" as="geometry"/>
                </mxCell>
                <mxCell id="UzYKZvjn3l8_6wOiVzGm-12" value="packageA&lt;br&gt;evm-web3-hooks" style="whiteSpace=wrap;html=1;" parent="1" vertex="1">
                    <mxGeometry x="-3" y="451" width="120" height="42" as="geometry"/>
                </mxCell>
                <mxCell id="UzYKZvjn3l8_6wOiVzGm-19" value="" style="shape=image;verticalLabelPosition=bottom;labelBackgroundColor=default;verticalAlign=top;aspect=fixed;imageAspect=0;image=data:image/png,iVBORw0KGgoAAAANSUhEUgAAAUYAAACfCAYAAACFkXCjAAAKomlDQ1BJQ0MgUHJvZmlsZQAASImVlgdQU+kWgP97b3qhBRCQEnoTpBNASggtgIJ0sBGSQAIkxoTQxM7iCq4FFREsK7pUBdcCyFqxYEWxgXVBFhFlXSzYUHkXGIK7b957887Mf893T85/yj/3zxwAqASORJIOqwAgEmdIIwJ96XHxCXR8P0AAGagBY6DM4cokzPDwUIDKpP67vL8HoDF922Ys1r///l9FlceXcQGAwlFO4sm4IpSPouspVyLNAAApRe3GWRmSMT6BsroULRDlm2OcMsF/jHHSBH8c94mKYAGAoQBAoHA40hQAKFqonZ7JTUHjUBgo24l5QjHKApS9RKLFPJSrUbZAfSQoj8VnJH0XJ+VvMZMUMTmcFAVP9DIuBD+hTJLOyfk/j+N/iyhdPpnDDIw1IA2KQDUJPbOutMUhChYnzQmbZCFv3H+cBfKg6EnmylgJk8zj+IUo9qbPCZ3kZGEAWxEngx01yXyZf+QkSxdHKHIlS1nMSeZIp/LK06IVdgGfrYifK4iKneRMYcycSZalRYZM+bAUdqk8QlE/XxzoO5U3QNG7SPZdv0K2Ym+GICpI0Ttnqn6+mDkVUxanqI3H9/Of8olW+EsyfBW5JOnhCn9+eqDCLsuMVOzNQD/Iqb3hijNM5QSHTzKwB87ABcQBPwAy+NkZYw2wFktypMIUQQadid4sPp0t5trOoDvYOTgCMHZPJz6Dt13j9w/SJEzZEvkA2GejRnjKJmoH4JwSACoLpmwW+wAg5wJw9jpXLs2csGHGHli0KmWgDrSBPvovYAFsgANanQfwAf4gGISBKBAPFgIuEAARkIIskAdWgQJQBDaBbaAM7AH7QDU4CA6DJnACnAUXwVVwE9wFD0E36AMvwRB4D0YgCMJDVIgGaUMGkClkDTlADMgL8odCoQgoHkqEUiAxJIfyoDVQEVQMlUF7oRroV+g4dBa6DHVA96EeaAB6A32GEZgCq8N6sBk8E2bATDgEjoIXwCnwEjgXzoc3wKVwBXwAboTPwlfhu3A3/BIeRgBCRjQRQ8QGYSAsJAxJQJIRKbIcKURKkAqkHmlB2pDbSDcyiHzC4DA0DB1jg/HABGGiMVzMEsxyzHpMGaYa04g5j7mN6cEMYb5hqVhdrDXWHcvGxmFTsFnYAmwJthJ7DHsBexfbh32Pw+E0ceY4V1wQLh6XiluKW4/bhWvAncF14Hpxw3g8XhtvjffEh+E5+Ax8AX4H/gD+NP4Wvg//kUAmGBAcCAGEBIKYsJpQQqglnCLcIvQTRogqRFOiOzGMyCPmEDcS9xNbiDeIfcQRkirJnORJiiKlklaRSkn1pAukR6S3ZDLZiOxGnksWkleSS8mHyJfIPeRPFDWKFYVFmU+RUzZQqihnKPcpb6lUqhnVh5pAzaBuoNZQz1GfUD8q0ZRsldhKPKUVSuVKjUq3lF4pE5VNlZnKC5VzlUuUjyjfUB5UIaqYqbBUOCrLVcpVjqt0qgyr0lTtVcNURarrVWtVL6s+V8Orman5q/HU8tX2qZ1T66UhNGMai8alraHtp12g9anj1M3V2eqp6kXqB9Xb1Yc01DScNGI0sjXKNU5qdGsimmaabM10zY2ahzXvaX6epjeNOY0/bd20+mm3pn3Qmq7lo8XXKtRq0Lqr9Vmbru2vnaa9WbtJ+7EORsdKZ65Ols5unQs6g9PVp3tM504vnH54+gNdWNdKN0J3qe4+3Wu6w3r6eoF6Er0deuf0BvU19X30U/W36p/SHzCgGXgZCA22Gpw2eEHXoDPp6fRS+nn6kKGuYZCh3HCvYbvhiJG5UbTRaqMGo8fGJGOGcbLxVuNW4yETA5PZJnkmdSYPTImmDFOB6XbTNtMPZuZmsWZrzZrMnptrmbPNc83rzB9ZUC28LZZYVFjcscRZMizTLHdZ3rSCrZytBFblVjesYWsXa6H1LuuOGdgZbjPEMypmdNpQbJg2mTZ1Nj22mrahtqttm2xfzTSZmTBz88y2md/snO3S7fbbPbRXsw+2X23fYv/GwcqB61DucMeR6hjguMKx2fG1k7UT32m3U5czzXm281rnVuevLq4uUpd6lwFXE9dE152unQx1RjhjPeOSG9bN122F2wm3T+4u7hnuh93/8rDxSPOo9Xg+y3wWf9b+Wb2eRp4cz72e3V50r0Svn726vQ29Od4V3k99jH14PpU+/UxLZirzAPOVr52v1PeY7weWO2sZ64wf4hfoV+jX7q/mH+1f5v8kwCggJaAuYCjQOXBp4JkgbFBI0OagTrYem8uuYQ8FuwYvCz4fQgmJDCkLeRpqFSoNbZkNzw6evWX2ozmmc8RzmsJAGDtsS9jjcPPwJeG/zcXNDZ9bPvdZhH1EXkRbJC1yUWRt5Pso36iNUQ+jLaLl0a0xyjHzY2piPsT6xRbHdsfNjFsWdzVeJ14Y35yAT4hJqEwYnuc/b9u8vvnO8wvm31tgviB7weWFOgvTF55cpLyIs+hIIjYxNrE28QsnjFPBGU5iJ+1MGuKyuNu5L3k+vK28Ab4nv5jfn+yZXJz8PMUzZUvKgMBbUCIYFLKEZcLXqUGpe1I/pIWlVaWNpsemN4gIokTRcbGaOE18frH+4uzFHRJrSYGke4n7km1LhqQh0koZJFsga85QRweia3IL+Q/ynkyvzPLMj1kxWUeyVbPF2ddyrHLW5fTnBuT+shSzlLu0Nc8wb1VezzLmsr3LoeVJy1tXGK/IX9G3MnBl9SrSqrRV11fbrS5e/W5N7JqWfL38lfm9PwT+UFegVCAt6FzrsXbPj5gfhT+2r3Nct2Pdt0Je4ZUiu6KSoi/rueuv/GT/U+lPoxuSN7RvdNm4exNuk3jTvc3em6uLVYtzi3u3zN7SuJW+tXDru22Ltl0ucSrZs520Xb69uzS0tHmHyY5NO76UCcrulvuWN+zU3blu54ddvF23dvvsrt+jt6doz+efhT937Q3c21hhVlGyD7cvc9+z/TH7235h/FJTqVNZVPm1SlzVXR1Rfb7GtaamVrd2Yx1cJ68bODD/wM2Dfgeb623q9zZoNhQdAofkh178mvjrvcMhh1uPMI7UHzU9uvMY7VhhI9SY0zjUJGjqbo5v7jgefLy1xaPl2G+2v1WdMDxRflLj5MZTpFP5p0ZP554ePiM5M3g25Wxv66LWh+fizt05P/d8+4WQC5cuBlw818ZsO33J89KJy+6Xj19hXGm66nK18ZrztWPXna8fa3dpb7zheqP5ptvNlo5ZHadued86e9vv9sU77DtX786523Ev+l5X5/zO7i5e1/P76fdfP8h8MPJw5SPso8LHKo9Lnug+qfjd8veGbpfukz1+PdeeRj592MvtffmH7I8vffnPqM9K+g36a547PD8xEDBw88W8F30vJS9HBgv+VP1z5yuLV0f/8vnr2lDcUN9r6evRN+vfar+teuf0rnU4fPjJe9H7kQ+FH7U/Vn9ifGr7HPu5fyTrC/5L6VfLry3fQr49GhWNjko4Us74KICgC05OBuBNFQDUeABo6FxMmjcxR48LNDH7jxP4Tzwxa4+LCwCVZwCIWQlABKp3ocvCB51B0PdwVEf5ANjRUbEmZ97x+XxMeGheo5YxelI8YyX4h0zM7t/V/U8NxqI6gX/qfwEzcQJpRTG4MwAAAFZlWElmTU0AKgAAAAgAAYdpAAQAAAABAAAAGgAAAAAAA5KGAAcAAAASAAAARKACAAQAAAABAAABRqADAAQAAAABAAAAnwAAAABBU0NJSQAAAFNjcmVlbnNob3S4WETJAAAB1mlUWHRYTUw6Y29tLmFkb2JlLnhtcAAAAAAAPHg6eG1wbWV0YSB4bWxuczp4PSJhZG9iZTpuczptZXRhLyIgeDp4bXB0az0iWE1QIENvcmUgNi4wLjAiPgogICA8cmRmOlJERiB4bWxuczpyZGY9Imh0dHA6Ly93d3cudzMub3JnLzE5OTkvMDIvMjItcmRmLXN5bnRheC1ucyMiPgogICAgICA8cmRmOkRlc2NyaXB0aW9uIHJkZjphYm91dD0iIgogICAgICAgICAgICB4bWxuczpleGlmPSJodHRwOi8vbnMuYWRvYmUuY29tL2V4aWYvMS4wLyI+CiAgICAgICAgIDxleGlmOlBpeGVsWURpbWVuc2lvbj4xNTk8L2V4aWY6UGl4ZWxZRGltZW5zaW9uPgogICAgICAgICA8ZXhpZjpQaXhlbFhEaW1lbnNpb24+MzI2PC9leGlmOlBpeGVsWERpbWVuc2lvbj4KICAgICAgICAgPGV4aWY6VXNlckNvbW1lbnQ+U2NyZWVuc2hvdDwvZXhpZjpVc2VyQ29tbWVudD4KICAgICAgPC9yZGY6RGVzY3JpcHRpb24+CiAgIDwvcmRmOlJERj4KPC94OnhtcG1ldGE+Cm9B1yUAAEAASURBVHgB7L1pcF7Xeef5AHixAyRBcF8B7qKo3doXy5L3RfGatDuZVGeqkp5OamY+TKW/zPTEUzWdmg89vVV1pd2OE3c67mTi3Y4t2bItWrJo7aIoUZS4gvsOgiRA7MD8fs99LwTJskTZJqPYOOTFe++5Z3nOuef877Odc2smCTETZnpgpgdmemCmB6Z6oHbqbOZkpgdmemCmB2Z6IHtgBhhnBsJMD8z0wEwPvKYHZoDxNR0ycznTAzM9MNMDM8A4MwZmemCmB2Z64DU9MAOMr+mQmcuZHpjpgZkemAHGmTEw0wMzPTDTA6/pgcpFe+tM1oSOPYmkNZRSM86fMX4jJvKsjqvKVPF1nNWRvm5yPGo4OIvxmhKHJ0MfIYrktzbzW45xprB4CIta81WP8UpjXKCM9klqGxshUSNHTQxS0QXScxVNMQQFRExQZk1djFKQZdUENFByLRXWWAk10Zr8NUFxRgz0eT/zZGQ1TTbcGxzW75GpoJZ6bFsRTG851UvrmaSPPGobYpi0tq9oo/eKcqRmgrZ4VYaShlrKsIe8l6knodF/VXIyfZmYtJPcKKgwDTeKTs5KvTcT3p49UOPznyhGQG0tT73qRWe8wXvTz71vujJMz1PGvZXfsuy3kmd62pLe6XGvPX+jOi4m/2vLu5TXFw+ME0x4npvzLJ9VDRc1Q+JATtgRoGlwGjA2MAc96iYAt3GBrD7Gahr4LUDJIUCRgOUk+QUGyiZOiBFea6msdgJAmSDv5GiMVypxjrttxNeMDJOQsmoLYDxN+tmZbxhAJfdEJSZr64KcSavAkpBEBbUcBSgmBaQo6hVIE/+qETYvI7LRArSZiRTkpCsphdpsk1RzP9MUpVuMcTUTo/zYT9DDYco8bF/2nNBHP9CxY9U+8NqXisO+Ynt5OUjOOB2f4E5neT8z8pOBhk1C3wSR/qsVQH1YE9RmZn4mM1M1/czP26oHBAbBr5aXc3kukEwHk+ngmM+eMZBP23H3SwjT63ptcW8KXFVaXpuvvPZlLq0/M7xJ/p+Z7xLdeIXFe5MKBMPyEAxD7g+uzQ6rA9yamIRAH9cFP1SCzxgTNt9sTuYq2NSAOsBQ4sgknGdyTMbIsVm0/Zfl1HPBjAZ8JildrrAALE4mik5u4qeFTE1ENdnxxo9DEz+NkshRa30TgClxAvQooDkG7ABZCT5SXA961E8AYA4ywVAkqaF7OCY5xkgkcDUAUnW1AqO5auFF6xJ3SMg1vCk/Jch7v6G2mXJJR72+KCocdeVAzl/rgpul0bZeEsUzAdw+qq3SY74K9yegfQjSrMejnvh66G2QoxiHGhuctFsn5ZHWSkmaBz8z4W3YAxPjxSuthpe9oQRF48dhLup47s61cZ5xpc5x6XBmnBPvfe+9EbC9aZMZR28EXG8KjG9SQZZNHf9YwlsARiawc44HkvgmSkZDTtwaJqWib0Wxt0bQoAd4wGOkEUyGmaj1ZK73NvdqnOxZSpaUZSYQyrUxsYVNIwWdQlStT7xqtEqziDyiJ+dNlNlCK5qtE0DMowqaApHRhdgv5wZttW2AYl2K34rgQG8e1iilyQ3KEdYCtdA/yiC8QHVUk1UrDlcE62qweENZVbVFU9ejtKNCWdLSOHWTi+yDMrc8My+W7FNuVZtXADSZBGojyVNLv47wHIDwPHwptAD8AnbInfuQREP+j3OMekB9I+U32m8z4W3ZAwKi//xfgpxAN8Gz93oKtBw61X8OSGWEktM076UMbwSOFwPKv2j+S9m215Z90cDo9EKGJb9cHFwU/IvTWnyqcSLm5AVQ/E39IxPUB8tEHeWo8NBSZ5jsoGT4FEVaJ70leaiPlAM1tlKI2kWK5I5IyYSnjgpntdDD23KCxMV4gLYUdQEHi+L+ZG09JBgvKEIjtAu81iqHaYznHmaaqG3knPbVCjC+latpKU9ckqpC50cSQSrpNt6bthXYp83ZmmynnFr5IoCDY/Crcy30pramCmTmB9x8IahrNJeqBHiBalrabBqImJCV5NwH11w9WlE1ZD/afnSZIySVw5WjpBdRP4xUc7yFx02JM+Hy9YBSleAyyUu9BMYSEOvq6vJejnSnmmPP9PyTWzSUnObPTbFDkPovZbjU5f8yab/4mVLj5JPHQmD1AaLLkzFLUHGuIi4yB+ld/sg1qkDm7hgPb5gjxVxBk/M88hnwJ8ElCyDeX0gCANQrCwdynBpRisAgELQSGLlbMwyQCF5CnPR535QSNpLAKpjXqKNElJ0ASoQdBWnFVBQBpswwTsYhOGCKSwqlPvV85G20YQJaApnJIQguuYijhHwZSEeV0PyplmyB1gaIj6ZaAD64LCvzmbgwr4wlOEqhZckpFGnhu6mjSKdqwpJ9cB7NpKkZh9M10A0ao85xaq3maKSOisYqQHlC1cBMeFv2QHJT1SHzWtCTYAEzwY80itOCTG0dT9kpZT6PHHf8XoJgfW8EbAniU4zCTxPwi+b/6RIvbcxbmCnFxLT3C06peBJKZ2KiL5sauJVJ9YFwjGNwL2oPfW5CUuZh4svFjaizI71HOYEbSNOQAEC5CaBC1StWXLsBfgswbiUebWPqIElBBQ0UUjfZAiE0x3gPzz3ljzrCcajQNq22slJaihN6SQR41UA3ppuEPlumiK0GUYE+DUAJapSRRqS6pHXK4mw5go5H0l6OVn7Rw2p0kg7+VA9BlnsCZAKnNMgK0CHVJOXvJOWlVZ+XQCHqF/om3w3FwQtBA4+ThIfgy0S+HkqKQ3rGjaVFvj9mwtu7BxgCgkzJCcotCoSpW2R8pb6eFmQa4jXWjKunJ88bAdebNfpigO3Nyniz+9bxjyU4fy4qKN4JTPxhojpZFSvhgsidhgl+PXduKwR6z3kodyYkKRrKTY4yeTUeDDGPB7nPTx7N/G2ebIDDgZtzopPH/Cle8iuOKJ0WfSsAGUn5YIu6O62wMamATPCeBROvuC2PKIBbar0FpLUbLZ0GGcGsFicfdInSLmQJI5wi/tsYrrQqRwtlKKbKWZKOPI1wzXVazQ3c875gWpRA5QDfOMA4SDlpPBEHTZtiva0DrKrtMDoDCUxjdB4l0KeYfIF79AtFN1KWbS/oo2W2g0kk7VX+MbugVs52nPuoCWbC27wHfPaMFQEk9YaITQLikSNHovd0b9RV0G/jnSE4Dl4YTI5x+bLlMXuOPhm/WLgYYPxFgfcXo/Dy5r5oYJTjmoSr0QoqV5T6Qk6HAJ79Z0bjmf1H4sgIENQI38eDXdxcG1ctWxCr2irRrBhAHmAiLjB5TzKhn+05Hzt7B5PREUDaR87GFQtnxabl82MOAJruOk5zQKQWLnOSwSDOCUNinqKsgroqt1Tn1Qkyyd8V9hcSjYuVmYs86GJaoKM+0RVQmsDdR9ce8wE3E2OI1libGwHIUSqSSxMX01+SNlprtplCNWhAYtbbBOjWCF6UQ/Ph0jTOkFzxFk5tgr4Yq1cMoUqqU/1aD8jZmhpoUi+pf+cEQCvOQUYeFYu01ixzAvCnwpH6qEenajmjtGMCljGfx7gFc/DbSjkJ1eazTvq7toE2JmdKgTPhbdsDgpPsh6EUPXt7e+Pv//7vY/PmzRkvBykwDg8Px9yOufGxj38s3vWud0VDg+PZjJksgVVwTf0kkamA4X5pzLEM701Zw6uArMjuPdMZSo5Vejy3jhTlUc0YyjrMY16DIr/xJdjK1ZZ0TQf+TEu5ZVtNX4aMI1NJh9eXMzCbLi6MTypG0lGCYuq0AC10iZM1LXFy+EI8sv9gfOHgaUCFRMjIN+FH889uuy4WbVoecwAOgW2ESS2n+PLJ0fi7J56PrxzsK1Eurpk8H/dd1RUdnbOiuR0LqpABsNTQqULGGMIrjgr8TsL5jQKog9ECd+nz0U1lbLIZcGlOjjT5TQwOcm5yuQJOO2kbRDyAY5JjrMb0gphiNNH4WtYldwiHC2D5EphENTCkew9He97DxqwoTXk0JQFMvlYr9RjtHuK5yrNWHCBj1Aq42h0jnOpOqBmqDjZvwlaMjSZw1QjE5JnM9lkXQArVqiE0b9WBpKPqOUVMgBFkhy7SED8C65h6UMVw0XIMER/i6L5kSgsAhVsFZdOnkXpmwtuzB5z4gsmYY55BLdAYJxgtWrQo7z3yyCNx+vTpBJwNGzbEu9/97mhsbEpwG2e8yU2OjmJ0dOxwbnkpgjPGLDOBtwowxpOsAEHSCZDWp95SgDNvgh1gVf6WaRL4SJ+BsZZASd4SvLyWHmkv46b3unHT463LIH2CqOVP3YdGAzHZruLq0v+9aGBUzBQQxlEo1jrxZWUAC6JjzrzZ0X31NTE6tjui5zAtrMQTp85E98sH4+olS2Lh3DrEO/g7RAENA88cOhFfOXqGAhHvZL1Amfpl86OjazVRLYjmhXFEMJVTdUVNHQija84owDAKiNQBfAryKU7CxVUUTxWHAV7pVA9Z6xuO/Ly74PLocKrLZyC4cy2oijc5VuoBXs6pIhlJ2+W5z98XHk+fyvvxKwdQvSSBVZqmwktDtcAQcXbomPRY+PAotMA18jaXUa0HVBGEaLKlqx+VMjkAgBWOj2HJv6IMU0g9sAvRvlAq0YBjplzwOETV0WeK1KPUXV9hctDn4GIMQJCMsDRTZdF3Ne3RSES9hM+Et2UPTHFLPniCYDQ2OhYtLS3xkY98JIHu0KFDcerUqQSQ22+/Pf7wD/8wFi9eHJV6xj2gMh34SrCxLPWVFcZPCUjp++gLFxAVQAWwMRiHBDzGpKBWj5QhGAnU+k06XwQ860jA454ALJ1Zl/NIbiErdPxxzv+kqQp0CXaks0zzpFqAcel1pjMD/y3TtKaRhizLch3QlylcNDA6pwScDKKPkIAucJIObeLBLO5uizjRHXH0PAqwdlpXiW8f6o17Dp2Ka2YvjAEaOslD6BmYjMcPnaQwuJ/Zi5jZiJyAbPPKVbFsXQdcFKtZ7B0gAviLPh7G8bN9UXvyXMwaRNSY2x4NC+ZGe1Mj1la0fSKbQCPqQeAgaY6ePx/tsxqio6MpevsvxGmux9FfNrfMiXmwUy1wUGOkTTEUMFEE7ofBPH52PE73D8QwjW1tro955J+DoyBCCnWQAQfwCginSaaPekYGEGeaajnq4igF7O8fjwWV0Vg5uzHmKMeqEhCcOT1/bjIGTxyM0aELMbutJRbO62RAw4VDe63ivP0jHRfGYwBAbWtpjAYGmhzC8MC5mGzpiAZ0SZ3Q00Tf6DtaA0COA4r0eJzncZzsn4zTfQPZJa2NdTFf+psdWg7y4hVhU2bC268HEgQYAyXXl2DjQ6sGwWj27Nkxb9686Ovri9bW1liwYEEhQpNG/aMAYzqBJTlHBtTQ0FA8/fTT8cwzz8TAwEAC7fr16+Omm26K+fPnJ/gItocOHoozfWdi9+7dsWbNmrj2mmtjy09+Ejt2vBjt7e0hEG+8YmMcPHQwjh8/Hj09PcyhsbjrzrtimJVojz76aJzpPRMdczvi5ptvzrQCsu2QJul56aWX4ieUqc5U7rOtvS1Wda+Ka6+7Nrq6urLtpvdI8Zt2CZCCZgIn55crvCVgTIZDNiZPIBLWxEUgjczrDoju5s2wT1jn7UJvRv+p/nh476G4tntBdM6VH4p48UBvPH0cEbptDvaMWSAB56OD6MZqo4kyTOMUlgPb3z8Uj+3YF0/vORJDp85FIw56wwBj+9ruuHPj8tjYMQ8gojrw8Zm9ffHCkeE4OTYc+871xfLFs2PJolmx8+CR6DnZG80jY9FF+nduWhPXLG/O1TJtNoHj6LmJeGzX4Xh016HY33suzgBWS9rq4/q1K+KGNctiVScg1dAas1AhfG/fqfjB6UqC1emTR2Pt4nnRvWBOPLr3WDx27Hysh619z6bVcfcVi2Npe2vsBbB+uG8iXnju+Th97ADvk9HoABjXdnfFpivWx9L5NTFAfz63qz8OnjgdZy8M5TGXQdPa3BjHDh2Ic70n6a65sXDJ8njv+qVxw0JXAWGsqmmKfujf1TcZj+09Hlv2HYy+08fhJIdjUWtzXLVqZaxfsz4Wz6vEMp5bq107E96WPZDcFJQJAIKC3FhOJUBFDk+wKIHxPC96gUZgEnS8VwKHXF0ZL4f5wAMPxFe+8pXYt29fNDWxmwBAKSB+6lO/GZ/85CcQxRvj61//etx///35Ej58+HBcffXVceWVVybYbd++PcH3n//zfx7eM93evXvzkOYnnngi+vv746GHHoqzZ8/G3Llz4z3vfk/8i3/xL+Lqa65OkJYD/eEPfxh/8Rd/EXv27Ik5c+YkHfv378/zD33oQ/G7v/u7WadvcNsjEGSfOEeRUMv2Xa6Hd/HAKMFQJXOWZ4rTyJINiHrwalhoI+bxsPa14jYD+5/LLibnx/93+ERcefB8vH/urGS6tu45FMdHafXCpRRDOjlGLLutgCn4muKj4NgDWmx+5uX46lMvx1N9GE7mLYlF7R2xF2U0lp74z4Nj8b/dsjbuBt3suM/tOhvfevYQdaPlawAFzpyikBO4XqLB04x8fiBi39k4AYfZ2HZVXDFPPWbEwd7h2LL1xfjq1n3x/bNEzF8CJzsP9qsnvvHIM/FPAaZP3nZVtK2YFydGKvEtAPQ/bQfM5SDlmk8NY2g6HkdxI4qh9ti2f1/srjsRrV2L4ixc43f3T8T/8eg+aDlKB1Eu/RCn4Zif3BdXD7fFR25bmuL4/7ObynkJRD1UMZBikmutjXWUOwI7u486j8gNjsby9jWxpImXCH2+/9RkfO3ZnvjcCzuid4i2zm+Jla318fyxI/FMT09c0XMq3nPnnTFvhb06E96uPSCXV4KaoqtGB8FPEVZRUrAzjeAmGJY6RNsjkJpWIMkDdFHS+MY3vhF/9md/lhzeJz/5yXjve98b3/72txMI//zPPxfNzU1x7z33YshB2gGk5OgEoHPnzsXBgwfjtttuQ+rqiAcffDAef/zxmDVrdoryTz75JJIZVnHo+fKXv5yAtmnTpnj++eeTG/z6N74eq1atijVr10RbW1vm/Y//8T8mOErD7/2z34vz/efjr/7qrxJ8v/jFL6ZKoLu7G5qa80VgO8qXQwLkZX5wFz1bkPirpAkInKuQg2MUWVu5nIBrqRw7LLMH6HUQCUDB+o8hFn599/7Yjei5+3A/HCMAMbszYsFC0pJbChCJ6wbORj0yrdk1m7wAgH7vub3xVC+FL7oyfuPWO+J/vWdT3LJxDZUBpi88E7ufeiJGybOIYm7pWhorl1Cm4vUI/OY5AFQfmY1rI7qWRcxC1Ie1/9GBw/Hi2bEANqOH4+HD5+Kb2/fH93v7IzrnxftuuzH+4AOrYv2112b7/vvuI/GVl47GXiwrtViBV8KFRTeHOpQGQKzvXBxFLIiNm6hnNXU2xLPn++PYhcl46eC5+M4Tz8KSHsn+uOeqK+KP33lF3L2G/AN9se3Jn8T2Z0/BiUb80+5F9An9Ng79w4A4ANhFm/7Z3VfFjeSLZgB1pDGePnAi9vT1Rx/Yf4TO+vGJ3vg3O3ui9yy9tmhNfOj2e+K3eWNfuW5T9GBs+tv9h+KvD/TFvmH6Yia8bXugNHgUjGLBIQmAgsKJ4ydi69ataYnu7OxMjmrbtm3hIZD5b4pzhElQPyin9/3vfz+BSi7ujjvugEv8VIq+ApDWbrm8/oH++OhHfyPk2tRXCkxylTfeeGN88IMfTMu3NLz44osJcp/+9D9NjlLuVWC84oor4o/+6I/iX/7xv4x3vvPuWLp0acbv3bc3+s70pZ5UUb6kdSHz/pprr4m77rorrrnmmuQY5TTlJAVkQb7UT/qwSk7Rui5nuOja0MpFTa58gSvhLVY4JDM7wYQmsHIQMXL4wN6oIBbfvIwJ3sFExiqLmTme6B+OJw5PxnbAbteZgbhh6cq4vRNgQeeYO+8AYid7dscg7jtadc/DDe451hvPuoyjDc5yycZYuwJLN8fNiK4o/gCP8zGwf2eMIn4uxiDzrvV18YE1XXCMgJW7+eD1/SFE7n9187x494YVcGpzEO/b4OxqYy+Ol8BzvMTx4zPj8d1xam2dC60dsWp5TaxDvF1hG5aQr2F2fPHw+XjhxLloaW2Mtetnxaq10IQuJQ0yvMEbN14FqNKeQfWl0AzHd/DccOyFa3v6LEYmfW/amuOmJbPiuiU1cWVHW6xrQw9JG4aO9AQ1x7vX18YHVyyhX+kzgX82SvdViCXdtXHrUto8ez4dvTAeOX0hdvf2hTsKvUQ9D504CXPuSwhgnb86ruiqjU2La2PJstUxV/pbZsdDx07FC70zwEiXva2DIrO6wpJD8tdjFA8GwUPw0xgj96hYq66vDAJHPTpr8yuK7ty5M/No0ZbrU3xV29zc0hxdXV2pn9yxY0eKxCtXrkzLtzrLhQsX5r1bbrmFumvj5Z0vZxXml/ubNWtWLFu2LMvURejWW2+Ne++9N266+SbA9B2xYsWKvHfhwoXwkAu+/vrr4/d+7/cSmN9BGsFX+r2/BOOsOkzdj0aUjJhG6h/TAs5FAj/gf7kDyHRxoQXFbiu25TE2YbiAdbXFZReuxsD5uYGH19YyHg1M9tlYbq/DwLF28ax46MCOOIwVN0Yb49+8eBjxtC/Z99+aXx9HwI9H5Y5sdEt7HNfaPHYWsbIleuBwnj8+FmdnrQNk4J6a+2Jxa2d0kWZODcsS6wEQ7Dsvnz4TO+Doru5sj7MI9acRYespexQdYNSPxe0drfGOhpqY2zoepzBCbG0Hgi6cj33nh5GuW+LEvsHYBsc1OWs1NDLIWufElexUwZCI42P98aCo37oA7q4lfnBwMO5YOjt6MR7VKQq3CoTcx0jzkeWzEvv+dhiohYZ75y6PcfScLyJmD9cDyBqrEJE7oJlxwoDAh7MRYG3riAcw2NyCYaaTOpuGzkUDvmkjdbNiBWvCV3PMp13zG3nztNBPw5QDZ/7Ambro4rGdPHg4tsFNRCMvoWE43qahWIXOiF6L5/F6P9AKWPqmPTUeL+w7HKfmdER7c6vDjSPHYIrjvKPzOZRx3HpVKIdl+fuqmzMXv5QekEtKXZoqKh6ZIObqeePmIcls3Lgxjh07liKyAHnDDTck4AgcBh3ADx85nKDUj8Ty1FNPJVAKigJOTw+qoW9+I8VZuTM5RsVhAeq5556LZ55+JvMKrh7Lli6L1WtWx8c/9vHkCt/xjndAwxXJhcpRKiprBBIs29vaU/RvbmpO0FPMf+GFF+Kpp5+KZcuXpah98uTJNP4I2IrVL7/8crZH+ixn165deQi6hoIPxm0IlYJeHLb5coaLBsaaUdB8nB0XmzoAIJ4dk70pfQVZi8wmDUvg5Drmz422w4eYzBHvWNwYszrq4q9PjOOig54MsIvJxtjUvTruxRjwMPGrL8BCK5J2LoxZq+CgOhvS6HLwaD9cJrbgtm70cc8wSg4DDg2xaPJENKmfHAdUmPAHz4zF7v0noncDYDrWFM/27ojRBkRmwPBqxOgrsBivsTeHDsWicQAWwImR8/FduNH7zuPzeHRXvKTlQwBWFMXAsozLG0YOxDbamqjRQmv62+Jrhwbin8B1nUYkbTh1gNcanLOABZmLmsfiHQDyzde2R9/SFbFmeXfsGWwAwEDBgB4s6DE0EJufOsbqngtxcD8AOkEbmgHd4TPoBuHGcTocPnk4OpsWxFH8fppGDsbyiVMxL3ijAvvLagbjUD2cMprRB/qoCzCdPIZYjaoiWkHcMwDkyKnoHJsdXXVnYm6de1gCyvo48i558cjpOLx6MlbwtnanI3qRqaezkEskOWeC1fKC4/Knws+I/ql0MxG/vB4QGEqOUVDQYOKvXJbAIye4aOGiKcAQ6L761a/G8uXL46qrrkoRVo7OQ1D8Ino8y1Ncles0jdzh2rVrQ2OOlmW5wdRrMresQ3D87d/57RjAU2Nup3INQwx9pBypRhvTpOsPKqrUj8I8lfk1yJw5cyY5vh//+NH4/Oc/nzpIOV/1kd3d3cklyv1ajnR5WHa2m9HpWJQTNq6M/+X18BuXdNHAqPuNOkXXNzt33NihSQ2jYiKTT2foSlMLLihNNikWwDWu463S3X88nkPfpg+g+4PdgLjYPgdFcy/2BJbQ4XNDgeMxC//FdvRoxACCdbGRk4fhRnOdL6BxobY9zuDrd7YeIKhnsgtMOOaN8cYaqm+PmuZ5MTEbMOsFjPB67oFD64Omc5R3FrA8o0uMoj1lg0YylNHdUYlr63pj6zCgYrmoC5TeBxqwqGtut20jlDA5GOs472DwTAByKxFPt58hfgwUHcZdaawSK2j1NRuujMqaiWhH1dByfDw2NR6LXcP0Bm2LgZNxPw7w9XUjcRs4uWLR/Dgwuzs+BRDePRsrPEahQ/TPU7zFY4LrJpYYNgiE9PNEYyzlRXTIzSCkCXGpbRQXJ/prDYC5GxqIhB7iaGIT0FcZAQ0RtQNrvA+tA71TLnF0wpFaLtFVQQXHUYhs1vVTgcSvg5U/lWwm4hfrATlDAUEgSG6JF5XipNf6Bwpwngs8goRAVAJGWrFJL9el0eROjG3X33B9fOc730muUEAVMOU61Tcq7gqs6isVZQU3OVB1jiUXWAJz59zOTCuASaOuNbt270pR3ThD0ijtVSOQtFnXDdffkAadL33p75I2OU3r1QJ9LTp8reVbtmxJgNQSrptQtp96yt3mpd0xals9v1zh4oFRonAm1sfP/QBbOCb43ACzLqVhfQFrAEV3wh6RieHOqhWLY/WR0XhuH5N0Ur1ZM64vbaxeQ0zgYU9QXoxQIAL0KJN7HINOC9Wsx4iy9vBwPNynTyR14KOIiyHg1hJnKpy49Zi23I6WmLNyRVTmLgyMzLizrIq9Rw8BVnCpcIunKBo+Nc7ACR6tpS50NXKTdy9mcHTUwEU2x9WA9NYTx2gMNOKOM0A5fcmjnQXMAakL6Aib58R9cLobOhrjMPStnIPOD51qJm5vDiT1gBeNheRtZvDCI8bYvLrYsWhhPA4nd0SuDhedeMe6+OT8WXE93OtYbWv0UuUNTe1xM5b1EzRp/9y2OLsHisdbow/DzhgcIkVilKqLVsHvPPRgsbx3/uxYA/2zJrtj/b5RjFrE89K6vg5RhjZXWGZTS/paHsQEAMpSIvq0I+bNaUhu0UFvEBxl2OUUdUDPB2mF00JGT7ueOb10PSAAjPDyU4wuQUCQcRAopsqFKfoKMK0trSnG+igVuY+fOJ46R7kv/RIFGUVi0wuGn/jEJ+Kjv/HRNGwIYI9ueTR9G9ta22L5iuWp5xNUjx49mhyd5eg4bv1JA8123FiWdOoKJDCm1dxxBDPgtSKzFnH1igLvIz9+JPWYq1evjgMHDqSBR4NNV1dXWti1hsvtqi4oDUslp2w9HgmW/F7OALxdZJAuJhCyV04rockvrPg5gxE3dSXeyeUKi3YwSMRdwIS/sXs5T46JO3AiPjy/IVZj2GAORxpJLyDenofzwhG6nZUn+MJn2cvmNWAAAVrPAnJYb3U2hFtPa/X4ICBzZj/3epjvQ3HForYERezcsUIacVKNfthRxPxm6pEDdSdvGaegOmTtWAinZfpFrbNjIw86zlMH1mWUe3GedMeh4+TYHNLTqHNkopA1c+GGcZFpRgdZ20qEdCNWBC4M4DW0F92jNbkWTrcdPF8Cbe0N0DsKPXCa9+BX+W6MLzcsb4/OWTXxzI6X4sltj0ffcB9eOZQLN9ug6MtyxfPDdTHobhuE4aHx2H2BuuAIo6U+1mHoWQiibZg9EtfP9w1Fm0cvxDNw1vu43MXSyD0QPWHfDRzkhdQf6xe1RgtgK58o5+yvq3BKbiMHIXXZheVhm1DvpK+n/p4z4dL1QPmyKmsor3XdESiGME4IOoq9guaJkyfyELz0UdQ1R8uxoOkGE4rKG9ZvyGvzqVccGkaz3tyS+j3deHS1OXb8WIKPHNmJEycS1EogEhBLcJKO+gr+szAq6iZ10jbIyZY7ASmOGy/X2cB8lk7F5hUrVmac5Qnu6kDVl6pnFIhVD9heafClkIFBaLsdjMlJgyuXM4hfFxcSFLWYQSg54P/ytw4Ru3cAS+lpFLlYSIfotNMn+uIEKzXWMfk3AQTvhRPqRUa9FyPFIgDgCPqxvccBHFwFWArChK+J/rPn4uRp9IgoY9vAnY1L58a7XuqJh47CuWGFfWEXjqlwY3tQ3sZxJnt9X3xwWVesWdCCGQUsdCXKcQB4mAPOcC5e/hco8xzO12dOnYxjrAiJccCObcRPnxrhATVFJ4aIqxcviXe398X3T8G+9Y3EY3smYmB2TTzcA21nhYZKfBr6l7OSZow9KY/hy7i/F0PNCHRXtKZMxp7Tk3ES48gKQLMJjrQWMd/1KUsXNsaG5R3xct9RdKX9sf/FzjgoDegMH9+xMx7asTWWLG2Jc2OYWGpns8CR9aUCo76LrPZ57vkejO9dsXfPQVS00F8/O2L5wlgDawqcx5JKH1buprgeNHzGpTu95+NveubHrpaJ+Bv8R+M8gFwZio9jzV8OZ+z6xhxkUFfHg/Q5OvDd6CINMFyXoQTCBEkS6jM5Ey5hD9C/goOcms9Ip2ifjSD0GD6EiqM9PT3JvXn/xz/+cfzpn/5puscIMLnyBJ2eXJsrYJYwrj/04Q/Hzl070+Dyta99jSF1NuYwv158cXuC0sc+9rHk0hShde0RdK3Ter71rW9FIy9SXWv0nZQ2V8V8+9vfSVcge0LatiAKu9JFMVsaFPUN257fFg9S5nve827WdN8bn/3sZxMEBek///yf58odfSOtTyDWWCS433fffdkmyzCeaos2M1rTjccblyHU/cmf/MlnLqaeGre9YuIOI9YyBYEL5ikTRiZm+0s744HHno2nDp6I8f6zMXjyWHTA4q1btAB3RizW9R2xHlBcv34BongdDtU98c0Xno8zFwAfJm5MYCk+3RMd4/2xbOHimIWubaydZUToCR/HOjw2eCae2dMTIy/vj+8CvsgVsWHtsnjfdRtiPa47E7j3PLLteHxj6y4YObgkdYUjfbGMjSwmgM1nX9gZ2w7DVbF8zg947b3Qi/V5ItbOY0ne7PYYQQe5AyAd4E23/dTxeIg38LFjgB96uQ2r5sV9168GQFnvPDoQP9q6Mx7c9iIGE3uBDujljdfXG5sQldfNbYVjBtzg3i5QVz2sag0Wu+28xc/CyZ45fjo2798TZ/bsiGf3Y1Ca3cEKmSti45IVvnpj696J+H6Pr5yFdPVYPH7uTHy7Z19sOXJABItYvDA+edXKuHdJJbp5Fu2TJ6OuqZNn0hI/pg8m+8ei58jB2LLz+bhwBDBuqsRtaxbEfdd0peV+nhNPlxBBkeJy1FFu8UaGhxQpy6O467jMuGnRxsyEX3IP+JoSfASK4pVVAIMc4A9+8P0EIF1m9DVUR6ihRNFX668AsnHjlQlg+hHqPqPu0OWD6hbl3hRvdb3ZySEn9773vi935lHnJyjqtK27jiK4XKCuQF1dXakrdHyo7zT/97733RR9dfFR9PWe9MgBCnSWYb50v0GicgWN+kOXMNoWuUY5Uw1AWro1AJWWc++Z1jYa5CDtD4P1eFyucPEcYxKIMhjKkJTzkExoBwCaYw4Nv6Wb9byIkjoot6JTrMcS297YFnetqo3+ynIe+3Cc4bGPtNXGosXo01bMitO6/ZC27UJ9nG9rRR9Ym3rBelD3uk3z43/svDr+05FjsWLf+Rjrq8R1S1ujf+WS+PCqWYjRxWqZcVbgNDW2xkacR+fN78gy5g+fiqb2VuwYiJCdK2J+ZWGcbITjGoMzBNr72Qm8F3CpUM/VG+bEP2m6Lv77gTNxEqvZ5CBp5i+CJVse71/RGFcscYcf2srLoQF6Ny6cHR2IyU/WtMb6wYFYibGnEfHUvhkH0MboFDe5aGTJ3tWIuv/LHWviq+hNt5xETj/TE6fR/a3bsDLWreiKDUs7cXeoYRki6syJ+fQdL4pReODOlcj6lDjCi2DBLNyTZsdqRJI76UsoQ4+JjnPwLCtgOuNdVyyPAdyK/t/jFHL6UDTgRjSfAepyxQ92o9Nc3BId9H4DoMhPukD4mwPNwWYcf6aPO6IKoOR3Jlz6HhAUU63Br//kjgQjff7cRUcdnYBlMJ06Pa24uuIIhurodry0I59ld3d3Aorg4xrnFctXpCjdC0dZARSXLF0S69atiw7ct+Qu77777jCPOklF5aGhYSSq83ElYFvWybSFsVkfv//7v5+uQTqRC2RugLIGtx45RkFOkDaPInO6/eB+I9D95m/+Zlx33XW5wsZ8uuV4CNgeitPqUQV0QwmIefEP8Icdu5AFLyKwAxyphvnC3ixUdW5DW4hX6qAGsLzs6R+N4xhT1BTWYLSAwYrlLE2ro6OZrnn4QVO8HXOzg+P4Aw5jgBkk/yDzv5FBMAdQ7MbfcCHXqgQ9EJrjZVadNJxj2SCYMYCObRRRdxmcKHyV7ozRRv2HuXcAPBsEuIYRl+vwCexAtG1vmRsypu4BeRaia2iuH526ooG3WfNQjFQAWpSeLrA5jDh+FroGMFxMwm01ogpYQz1Iojwp3Ar4PTwwFkcuIG7TVnaTpH6EZsrsgu5u1AR+lKoGoB9HJ3Oe9P185hVtZBxCqXqCLmxB7TBr8DQ41xFNLeggAeZ2UHc/aT635XT8lyf20nBceRCR/6eblsQGpOpOLPqVplY2xqiNldCjGL0Qd6K6C8djuGFxHEfkcS/MwzCxk3gANNL/42xHVddaGwvZdML0lAgXTyN52k48Qw2D2DB9z7tyMOSv7a4GRemCyyxjfr1+fYnIwXg4+UuuTsCwO9MPEebBSW9a/yX3B8Bl2rIv7VjOBRL/aRHOM66ni4qWYVmG0hBTgoX3DIrbBkHS4G48OoOX+r2yHu+ZRjHXenPnHMpI+khUPn/bUab117bmdXWceG5+Q0lrivxkVAf5qgCJZf6SXu8bZ3+UdZZtM40vAkNZtnHSmHk4n15OJryEf94iMA6hjG9hey23MOCB0Ue67/h40IAF+JOclV2kZbYN7tFFfjKb9bq2jAquiLM+seLZ8sSI5kggJF0bJ1MT0GcAe6oLjWJeLftsDfK2BAOxegOUrBCpU5b34MGMshxvFHeYYdxrXKlTO0Fh+AvWsY5Z1Z3BetwybA4DKHAoTwK8oQGJw01jbZO+1B4d0F0ZQwzHoDGI1dcvH5rfR5jkceJ2XlqDy4GVbkF+98ZVLHCZxXdaaAiO8fU6Yuu0ruO7RNHYQVDnxbo58e+f3hV//ZOd3AfuF7XEn991bbx3fiWW4+rDGwawAyXtMDqj+F43bWDVy3nbBk3eQr3IPXasRFFuvO318AXSXh3onCap0p/isxHV8Hpx3vp1B0YnZwITHeTELY1W2e/EJSAKgowPAchfjRXlOC8nub8elpdAwHNLoCXuVz2UwP567bRP3k7hNTD/RqQVMw8Mz88DMAeLycKTZzwk3DmpjHeeAoecyz1xgQ+eAMHW1VwIo1YrkjDYeBvlJ1MpQ3zzU6XN/Kayn51yTO3bbpx0OjIYzO1mYNpVswLLpuj8Mh6xvpOkoEYXHRyiBWbwjiR8lgtwkjL3fG3AzzFDJpCeIe4Xltpa8mJqAmCKvezYuQ46i6/zFfUXNNoi22/9FFwEN2q0fYKjnCZANUYbtN7X4tNYp0+ltEFLctwXhmPX4ZNx8CX0mnCsmZdVPY/jytDdtoTtmRpxCZIb9ZVg7WW7qZS6bYX9ZTf4stIyXo8ut1mQJwnwmU7cU/QV3UjsK6Ek3ZjyxfQ6yV7J8Gt4JpgJYk7wZ597Nna8uCM3SnA7rka8DuSmSpCTE/TZmMfgb8bxPKbSITEpyuY9RNyZ8PbpAWfZxQcmmiskcg9rWQ0OxUv94AQ4scHA+zDT1LCch1GQ85xREcM4JnvP7wbWARi1HH6oqoYDAbDg5ihEs4Z7JVZytrtG2z2v+XQAEOBkzSHEfTfNzWsG4TCzeYwUckcCreAhpe6QrURiGbUsJyz21GGFDelH4DBZWUpKBq33ARTfXFKJ+QdQdndtOT67ybYLMKQn3dQHtRIEnQRynFJD/aTjdVGcCEu6KyFS8xfuGMBFP5P789I1o9DWxyqfvTtPRh+bbIRLBXEwj+Ej8d19PbFhcX0smtUZ3TZ6EGDUKd5qfMPSp4bG/Muf7G97T0DGXYnPN9DL+YzszzcLPlLbWLSiOH+zPL8u90tALNurS8r9bOk1ef9E3H33u1LP5t6C6u/SxYaxkA7Q9ifn+Y9fQVXx05e9HGWFsS+3WYJuWf7M7z9sD1y0KJ0zGaiorQJiTp+cSTSAmaT46WFQZyLYVBgEAikKBUBDjknI0YfOt6ip/KuORRDj12gD5ZjF4msRRyeZ5MKjoieuy5TLtkuk9TDaUsYwpuRB+eTIdMUHucgBx+r2skUbrI9lRlUqhBYxJ4ERS7ocsUg+Dq2CiiYVYzPYDAF9Kjb52SxPDnZKXreIrMFPt46Q3gPRmRUsw4As7pIJ/ukUT9Hn2Xb72b0n0uXpND6Mp9F71iO+z20ajbvWdsamubU4kNezCw8vEWorwKvoQzvAF0Fx2LaiBVIg1UV6W0ywQw38ZCurl54nyVyXwJiis2nzRpGnfDxG/7qFkvOz3b48dUrWPeXhhx9OHz03gXXdsCs6rrv2urhy05VpOdY6a3pBUFBUp1bq1yyr5DDfSMw03a9CeKM22kdvp3DRwOiH4Md9wIBHfvEvAZKm2CDbJIDBBpmmmEDFW7JeUUJwZPL6hb1axEvepfBRAo9AKdRhyeKtWecSI4DD+AHyjPBWdWtFYU2BUDhrpN6KSr6yfmaw9U4wo7WslkArIAgGlepnR8f5vOooAj9uhhmfKk/JIg2YTZuKI5uS9XGD3xFu+p0ayyogx1qEXmmypQk92Y5C0CaK4GoE/xWqgzF0mjTE5YG4IJ0FQ7WNq5NV2Lckt430g1x43dD+7K6MX4xBZw52eja5J5avKPIXeM3eU49a5IZO2lYcWP2JVZNbHIAyuthgB/OiNn4gQ8rKLvS3DAmI9oUREmbw1zzT0mX8r9Gf5PQYo/5O5x51aN723Lb4yle/kvsc6h7jqg+/yXLPPffE+nXroxVvC/MIrimRyCBUOcq8BizfCDR+Vbr5jdr4dgPGixalBUanoQ7ITp4ilDOliJA7FCedRQimzCcHAJwjYCo2Koa6BtIJ5gemXDUjAR7qFYsv6yGmAo6NlebkrOTJ5O60ZifMkJfVfjlRzeKabYHAewZvVW/nfJbHqkc3p4FHLjRLASgqcJE1iOLjiDJJL+Vk+7iqS9cbrlLcZ+03VmuNGvlCYEBPIA4L7+ruirqqcJwcJ5Gk1UiDdhH6PHCBYO11Exygi1mkVTMKzkTQhj6QY4zJwrIaXgh8GpN79qNtn00rtHyrf7Xf+A8drDZApNa0pbCPnR6w9HNaI5wpPif/mkahBESXGpnRwK/9NgWKGfk6f0xkyMT8lvkz8tfzj5N3yqWGAS3350YLusrMmz8vl8u52asguHvXbj4LsCOu2HBFvBsnZ1ei6MaiwUUXG11ZzC9YlNzo2w0cfj2fctHqi+YYh3nYyYkwUfJTnjmzmC0pezl7hBV0hqTz29HVr0kn6OnC4veN/U7JBJzlOGB5nu3L8MRjGnOQvVPXg96Dcf7kKb6/Mh59zZ1xSn2bCAGnOYrBYhjwaEVZ3QpnOYHoPA6nOIS1wUMxtYbvSteiV/MjUYw53BJq2NZwgKOPzRuwTgNFc3GlqR2jZg1CpBvne8vjFb8ZXQD/lA4xuawRNilvwmrcFC3KvWz8qvXbwrFtJMj5kuAUELIwoJLrPGw59JbuSOMkYn0PN1sTuHSf0a0mN6Z1+zULcYMIAO88eSdYZyjctiGKV9yAA2+A1GPSHTLMaTUni1xhs0YZ+pg7HAVPmeg7RQvRIjj9Xkb5+F6PA5ziGKcSks9gd5Hn1zVoMBG4PBSF1R+mEaWq57Vfjhw+Eg9894FcR6wDtDvJ+GU/AfCed92Tnzl1NxvzC5661ZTfRfH6Vx0Y/zFxjBcNjKUbSxpFVAZOl78Ex5yJAh8Dx4OZ5FHHGzE1elUgLXV9I3BdWplzvpK9AWA5uPPF+NL9D8YLfGlwoG1+nKyfBQAgbOKmUg/npQ9iE+U1ynkyg2H44LTgGAUV+CZ5JoGBVCjA2WmmsZJfEuhgp5+5rExZ0tkRq9nVZjkbxc4maaZGPGrkI1cwghyCIy8AQDNLK4FA/yr+JzoA0oxq6tathwTQrjBt+iklqd0BqGnFlqtU95rcXu1wphyn/Gba4AsjAQ3ONAvKzrBfKJ/22nMNWLR1v0mjC4Bp0ZYlOHq4ZZjGoELM964IzJH9zeW0oMrBYKrpjy8jp/3xcUpKJpwW/+sMjGU3TJ/cGk0ENIMuOhpdTp46md+BdrmcK1Bc5eG3TuQedZB2a3+/A61zs9xncos8R0FRoBUoBdK8ZqwnWPrASPOLBOlWuVWua7Zuw3SfwTQWETf9XrohQZs0OR7Mb1mvBXLLFvBtj/dKLjjzWQ//VD+V/We7Sr9FDVHZTtKV963L8l6vLpJd8nDRwPiLUlLAYzHhfMYaMAQSJ6gTzs1vn9m5J/71Z/8yHnxsK5szLGDGY511d+omVn6YyJ146FA5SGR6n2BxGKcoqvXYgZoP3WtAlbeyer1o6I/aORNx7eJlsW7l6rh15eK4Bl/BNdhElrAJQw3gop50gi3M+tn5xvoUw1sYCHwOsCi/6pfmOCVx/nW4TdoI/0tHxhf3MsGr/hTA9KqomYt/ND0wNWlfh+ISCJzQhw4fige/9yCruxbHBz7w/niJzUK+/Z1v57Zerla55557EjRdLueyPceNZZd+jZbhMErnb+I9L0X416n64qKqZVqHLkIJfpbLfCnPBcEEe+cP96RJ2hIEjeC/wTIyvsotl+mmc9HJYTM/p0CWcnxJ+IkGlza6Csbdxg0JpJZpeuixvOmHoJqW/ZxfmeWS/7notdK/KCVyT9mx+aPW0Afu0yosqhM8DHVxO/Ye5iNOxwBFXMTdmdqta+Tt3KIMsVe3F7+r8sphHAdbnuXhemj0k3kIqvByKfcitk7yCYWjh9nm/8DxeImNW0/1jbFDWV3Uz5obFbZfkpYxHkpF8RUWUeyt8e1NOYULUBWYSWljBMXiNB9d0b6ykcWd1/y1vTPhV7EHBAqP3jO9ucHD/Q/cn5syaIxRfL7+uutzTbHrm/2U6eFDh/ObKE2sUJo1e1aCoP2S3BMAkf988Zdh2mkZ9VZ+01jI8Cu5UYdpCXqCkaG8lwBVBUf1oa6b9uNV6kgV/81bqhZKIDO/NFtG+ZKQg5brszw3sLBP/o7NMPyUgS8FN8x4VX76r6Ql4aEKlElr8cdqLku4bMBouwQSmGz+Jp9FAwUKRU42jPDBA3q7D/bGFr6WNz4OoFUARleksPM3mzhyzkNJrlA9n9eCJXGCpeAocMJ5pthpPlaqZJxp5AgVXXOPMDaxPT8a246di618yrWXZXQVuMo2vunSiNW8ceRs0lkBGYfQ+Z0T1Bk8GpEMDqiiBcVk8Nr2FcGTqYsysvo7A4yv6ZBfmcsqlOUaYTdyPc4mJPt69rFrzNNsC7Y3uTQ3aHDts3sQes/twtw+TLHbTSEESEElx5ecIkGgKbmnHGe/QI8JjpYhJ1qCV+mInmVTpcDkcY5t9fyg1rf//tvhzjxyg67Xdscdh3epJ50CMuhKuqkj6wHUpNvw7LPPxsM/ejgef+LxTPPhD3041297Tw7VoDuTfShdJbdpfNkfJedp3OUIlxcY0XElpMApvgIdBceoXUP1WM+R8/Hs8y/HuUE6DKNIcnwCW4rH5EoQ8ld2X3HZtx2HgCl4plGles9r0+R94uQ09ScUQOVIAdxzA6PxzPHzsetUL0krfP96TsxqwmEcndE4xwgcqMsQNejUp4GDFli9/6Qlz9CR8K8IRVz14jU/M8D4mg75lbksAcJ1yLro+NEnd5+RO3RLLbf517XHjR3m8l0fv83sjttu9eXONG78Kgi6EWxu3MBQEVh0BheESm7u5+0w6cvyAKLU3ZXGpGlcqWP4wMEDufP3l/7uS2lI+sEPf5DAfeedd+XGE+U6a+kQrBIGoTNB0OHN8LeuEsjcteff/tt/m6oEN5ZwldAtt96S7bSMBGjyJU2UZrCsBGzPodOy5DovZwA5Llew0Yqi/NqRgEoNCJMQSZTw5iqa+XPn5XZch04fIx2xqfG3tz1IZDEik/fyl3OfhtdpeOA39Y1yjlVgNF3qK9VVYuiQ86sFdOsBSTlP0m3ddyy2nt/B5jb98ZtXdcY8l3ixS9AIaUcBXTfC9t1mLTbBKrPmBEeuDcb/zPCGN39mrpkb/3h6oFwjLfg18I0i9zt0t5gtW7bEOfYG/cEPfpBbg33gAx+I973vffHd7343AVOQdCWN4On5rbfcGqtWr2J8YSzhZeyvYFG8iH++/pAzK7kvy6vFA8IyR9np6dTpU7klmFb1r37tq1M7gff09CRH9xu/8RvoRd+VtDvGBTFp8bc0oEiV4C0oulO3m+bqBL958+Y83M3HLw8KrL4EVDGYXnHal4OgOZtNn9v4kqe0ph6UskxjSODNs8vz5zICow0SCAtAmf7XOHFPnd7i+XNiJceze/aBRLipuLwlranCELCUQCQ8TT/sPGArN26ogiGGlATKBEzTwiWmaE3a8arnoyApiAqobgJ7ui8+s2U3D2U83n/1ajaehb3HdaiJ9C7zlqkVY7VeyyPahvwnTQyyMvgWnR68MvVM+NXtATkbH7sT2onthPZwf0F/n3+++GreD3/4w/RjvOXmW9IAIYAIiq6Q0XKt+Oq+hn7T2Q1g3aswRdRp4+vn7cWkifHuN5/9wJU78bhHohvdPv7Y47H/wP7cysxtzvxutPpQ63Y7McFeYE0ODwJKDrkE27y2/Yjcbmj7hS98IctyB28P3ZcEw8cffyJ1rrbBsm2z36aZBSh+4P3vjyb2Wi1DySm6a1BykVVjTXn/Uv5edmC0MQKFoQCLqlhtJMeizpZYxIav0X+aDRWwBvtlPD8K5ZuDN0gCo7+JpP4KhPymQWYalyi3qAhuvArjxnmUA4eYvoPUZX4BV1BTL8nuNtEAR9l/JP7vpw6ztqQpPnX1sliCk2UrW5jVoiSfoCwBUYWA+XLDV/NXg2c/BYrV2zYvOc0y8czvr1wP+JkBg2PA7fuffOrJ3AfRl+f8BfPj/e//QH6PReATPASLrpVdqbvzWg5NANBJXAuunNRNN92URpsSiH7eThMUpUNQ/Mu//MsEpCb2P1y2bCkc3kG41wfyG9H33HNPcnwCtJydjunu2yiIOT8txzBdjPae9Fn+oYOHkn6/NeMSSblAuULbLAC736OqAnWKGnS++c1v5s7dn/rUpxIUS52jeezH0lKf9f+8jf858l1GYAS8ZLfs3eS9PPPcwBuWN5m3W3DK3rR2Sdx93Zo4PuD+jzjBYnH2fm5WwcAxV7kq0I9v6S85SUfXYkCZACgH4RIHEMGHfcvqauO2XaPs7D3C9mENvJEESu9lQThHkzflZHe9aQAge0/Ff3mmJxagaP7wxiXRwQYRw7gK1cCFutGngFgAaqEsTu7RphGqP1l0Npc4qynjTTMT/mF6wMlVimTTz/MBQZKiocHJX6Z7FYfEgyzdRsr4Mp15FKUNTvxTQ6fye82Ky072TVduys8EfPzjH4+nn346d94WfNyg1XtylrruaJjxMI3c1/PPP5+co2Kou2OX9ZU6vBJIdH3x3PsJgrS1pFGavOccEnQ3b96c5Qs+GoQ0/sjNCcJHjx5NP0zFejnW3/qt34qOuR1xEPBcyMfdXLFjf40hbaX+D0AcYnOTwaHBpFfwewHu2A9ylbpTQV5WJzFEAABAAElEQVQO1C8H6sN544035pcG/Z61+lfr1udTnWzZhulAmKBre3Dp8RmV7Sv3oyzdfqTH+2V62z0VoPkVvJmK/ZknlxEYS2jwl4FXBceCjZJqBiVI0oTH8jtvvTpWdi2Ms0PsK0icH86qZXFzjR0DOz+G3s/vlHjoH6m+0t8aOLoaLNRIv4gJE+xcM4l1bSCOnTgVj506G3v72TJ2kD0Y2agh2vwcFg95ArEaB+8ETOHLFSYtS+Ns77H45taDsRbXgqWLWL8NKE7yqddaBqAALTDaEgei/xSuy5Dx1QtIT8Cf4RbL3vmH+S2B0OeV3BcPpvTHyydIvMF76Y/HtSCgmOsENzgRjxw9kpycBpQFCxfEQnaN95vLOQYYE7rbOEG1Mr8f0dBJLwC44YRW2as2XcU2/235wXr1aoqrlu82/25A4Trrn/zkJ5nefBpsNOAIOOr6uru7E+AGkXykVc4rna5dM0oo22kbDOUGssYL3IK2dehgLkju5BtKgtGqVatylY46Tn0tTSdQCliPProFgN6WIrA0+90Wab0Lg4yW9D6+T+TnEaRXoPdzC4KubkoCpNyjfot/8Ad/EH4h8BSr2/72b/82da4C8Qc/8MGkpwT9BF9oL5+Vv877so/Vi9oe+1raa+CSvF+CJgmnAFY6cqJOn5TZM2/85/IBo89N4qZCSak3BBaAj8bVIxYv4ROjnZ18/BtQHOQBD/r5UR5qrRY60oxXO8EOS/9IcoOZlK/PIQOFfBNwjC6pM+3QUHe8k2/B7GBQf2/XiXjxMFzkEACp4lDxOvWYAqR6SeiSg8RN55Gj5+OqHUdiYdtaDEIN6Br7c/miVVmuaVOwyDGZf4gzetp5EWPk1NnMyT9MDziJDHIcTiK5v9QNEifIOLacVB5OPMVbXVVeeGE73FzxDWZBQxHT++rd3LbfTwvIEbmyZVX3Kl7QfE0SMVUxVCB45zvfmd9t/q//9b/Gnr17kjNSTC71h9YjcLqE8K677srvQusaI2gJnLq7aNBwB5+77747N6hQvFUv6RwQxAR5gcK2lcDuucNOIHuOjS52Aq4CkRziooWL8pMCcq22Wwu5orz9YNvsK/WfOqoL6Pfff39+t8W6VAHYVtNJ0xNPPJF6Quk3v7Ta7t/+7d9Oo8rnP//5BP/NcKrbtm1Ljvixxx7LetVfruxaWRh2qs8h5zXtKp+J1yVdJW35/JjjCYw0UtC0Hd7P/RjsD2jxpSEL4/lbCZfPXSeJL+ChhAibU3KMSTdL4yZYbzyZlmN+x4ZwP7zApgnDLKFj7xjWL/spLo8mFtt5NGNwaaqtnuc1cf6aB27Qnb5nA3zLO+pi/fy6WLl0OVtZd8bO/Gog7wUMLHx8WXaACaEoBHUAaxpl8CHaA8e5fA5W6o4myuWjDhLq5EllO9ALkKuuzKbwUIqTIolF5VH9KXhMLmbCZe8BJ4whJw4TzSBwlGCZnB7x/tOAYnCiq38b5+XsfYFI0PGreVqbm/kUqRyRgCKIyNXtBxQUQxUtBV3Tzpk9J9auW5tGDJ2bFVHnz5ufwKQDtVyNXJKAK1BJo6K1rjv6Ohovp+a3UeRgBQrL0SfStI7JUrSWKyzBUjoefPDB+Ou//uvk0Pzyn/6TliEQ5idVMb5M59DMbxstU8PMyOhIArhiroAoF/w7v/M7cdONN+WuQdJv248eOZrpSi7Ydtu/qgcE0y1Y5tUzylUK9gLnpz/96VwiKTepmiC5O/pdY4t55XZLzld6bNf0l4GgZ7ryheB9D1UGvvQUsX1hGJfzNp/qxf25fBxjMS5fTVUxPonjJud1GEEaGCTu41gH+tfyRqjDVD3JUctO2jWIspPE+7agteST0ySv2bk0WkMMqblQpAG/GJzuyj3K5w6amurjhtkLY9bc5dHBN1T+23MH2CUWI4/+kjqJwyVCRME5yoKzVrv3/Mn4yr6TsYxvsMybw4YVsPEsi6HT7TrS+pfyC3rysvhT5RoLKrlN2iL1tDQzp5etB8rJIZA48ZLjqIKK9+Q2EmCYgIKl13Jtf/D7v59GArkuRV7B0pUgBnVmfrC+j7iTOGrL2WnEEGgUTf163qJFi5n0rM9fVujwBA4B7b3veW/oI+hyQVfLCK7q4hSdFUv9VQxX5BVk5B7lLJMrYiQJeq4eUT+pQSMBngFWAr+AIrAp2vprGsV1OVod0N3cQlCz7BJM7QfByTjPLUNA1O1IkC455LI+05pOkVsu8etf/3pyg/aRQRG6u7s7+0Igl1O1LsHyYx/9WNxxxx2FtVvunX+2LZ8DLyF/R/AGSa6eOsxnfcaLFf7K/fosfEn5tcPEEIAy9cDV8pIQp7R18LwvNlw+YPwpioQMQ5VYLgUYCZqQ/YVrq2OQNguM/JvwLU6jJ/DrEhwLqOFNQP7U+WU+3g5ISwJjrWJ1AiQ3OBuBEx0TLPkc64ZWnLhvWMPmETXx509uZ6sadrlRqUz5xQ43UCGqaqgZnhVPnBiMF0+cjetmMXDYnGKcBwWxFpsDozy3pleHoo351/TF5auTzFxdth5wEvsMBMBxtk4f4fOecjOOL4Ell7AxtowTFDz0R5xTYby0z0qOSZDRaVkQNKzfUIiUTlS5PEXFp1ntoq5ODlJxWVFbjsh6H8MtZtas9pzk8+fPT6dpuSCNEObxe9FyiHKiAokgtG7tuujq6spNcU0jXVp0BT1FWfV9llW2rwQAAejDfFv61ltvTS5NYHOdshykdKoWsG5pF3QESkFbmvVBVNwXkBbMXxCr16zO9gr69pXxcrMCrNynxiLba37VCnKlAqx6TEHeesxbgrGGHF1zvLZfBLPy2cgFZv8z5xtgWGxPAiIU2B+CqBz55s0/in30hwYtVQM+xzLkCwKmSJekNNxSx1sJlxEYARra/grt1UYotnJDscPG5D8ArMJ5PY2xPcWmsnxhEAOIeyJOcvCH9GoRGeikTXB03Ms6pyop4ZHyig6ZYLAPTbZHC/rKtokL0dnGJ1+vX8lXB/rjL57bX3CJjWxaoX5R6/QIYAlA+w1rP2n68uGDcW7RbIzWc/Pto46xAnHJvVL/qwJ0ZFNfE/2qNDMXl7UHcqIwZhS/nIhOPp+dE/zC4IWciAKLHIhWYbkdwakETPMJQsNDwzF7zuwUBQUe86c4x0u9u7s7QfDqq67ObzALFIKC5SoGH9h/AK7zaPQgzsoBql+T25K7VEwVnOQEDYKKYGr+F7a/EJYpyJWgLGgK0roFSZe+gl1dXQnu2T7FSUc/m5fKUcl92ge2Z9Wq1Vm3wCcwCVjSKOj4UrBsy7J9cn/6N3av6s40prVvvofu8aGHfpggLojKvQlmtsE00n7bbbfBda+hTb0Jmm4gYTpB2ReArkotrS1THN45jKPuY+lyRA030m1I4KzSbl/bR+b3G9m+NOQWBVbQomgzz9c01tOCuuOqq6/KtmdhF/nnMgKjQCg4ghaA4SuY4ZngBdBV4wW7alRm0TYyrttOJhMUZb09BEeTFvCXfoVwmGnWxyKdA4O/gvEggOcm2rPYO7t9sDfGRk7xLRV0RNetjafPjcdzB3Umx38SvURyiwzMQL+ZK2PQfe7ggZ44ib6yrR1wZsdsyqxQpg9tovpQJNvqZsLbrwec+B6Cg9yHE6m/rz8e2vxQGg/a4QjlqF7i28yCoxNb0BAEBClBRM7IoHjbs68nQUsw1Dm5E8u0k1B9l9ybQHLjO25MPZ6cjOBlvJySnJYitWXLvfkxekHAsm666eYEJAFQUBIgBDPFXy3dis6KpXKsOosLSnv27k1L9vve936+I31btLa05gsgOSjGqe1OCzxtFsjPnTub3KLnjl/Lt622Syu04COQC3D6IgqWnttvcrZ/8zd/kzpDVQuK2KaRUzS/bRDodS96xw3viKXLlibQyunqRK77kUC/b+++VCGY7/DRw9mX3tuMgcZy7H9/nbvTg7Sa5j/8h/+QQL5p01X5IbLSGdzneoFPFMvJfvnLX8Y96J64/obrp5799LLe6LwyBns1Dremf14WDiHO7UJF9gpV7n5TAFNRnHcK1pUzL8hUwB0XrwMO5UMSzAxZR+bxSsDk4RkrODJ4k8+rlitb6HLByZpCsWyFmb9aDgJyNhwszDbk96mqBWRK47n2MwkV/tSwrVgdzOAYRpcr4AI/tm5xPHdiB87d6I4Qs3PjCvWGrqlmQ1wUn7F9tCm2XJgbHeNNsXL8LD7h6iOlHc6Dv36bBiJoB/tpI8YDlwBoYRGzX4q+Mf1MuBQ94JgxJAgwgcuJkoDI+PafcQKXnI0TTN2ehgM5i8XoAvXXa+fFJyfXiu5QHz/1gwaBTI5PzlFDw/YXtyc4PLf1OeImEB9nJfAl+JFfbsujq7srnZwHLgxkuRo8BJ4edIrSJqhYti45ueM3Rgl1mxpo5CoFaa8FCQ0zOmjL/QkopWHGsuQeLXsM0fH222/POmtgEgS8nE+0218B7tprrk19Y8mdSoflyXnpyiOn9+wzbPzwyMPZB1qgBdCnnnwq/t2//3fpjqNIrkXeMv01j1yv55bjEkClQAHWa+v0cw8CuX1uebZNV6Bt257j/AT9cD7TCs7ujJ5uOQBdY6X4AqPWfrlOXX18qXR1dcW3vvXNfKF95CMfzmdz8vjJBH1FeFGmC4v39LHgs7yYUPe/f+ZffSZ5KwjNX3IJigUwcsG5xyQElhuuoprLJcxOezR+7tsNaPEmrh5mASaABoejvJ3B2KniOBMA/Skgoxi65MiNJownfd63BMtnN20OnawtUeDxUwpFLdUaSK+pXulcXBO4kMox3gCC/hKJhgQRnTQMZkVlP2TP5kdx8ujJ2H2ilzyAoV/p8z7iSH6P1B0kKKivY3ncOK85usZPsCM44j7rTSXRh1yXq2hQ2tfWsyMP19ypS862IMR0M+HS9YATNEGQMeG5w80xla8kx5j3+ScgptqG8azYJ5ApzmoIcPLefsftmfY73/l23it9BwUnrafq89Ql+rtmDW5cAKc6LMVuxUSNNIKBE1eR3Mkv8Km/lLsS1AQK9YPq4QTJUg8pJyi4yZmqpxNIBE65LXV0cosCkvV4LVeVu/LASZZga5kahIxXTDW+7JfklOmH5SuWJxdXuurIsZperlW9Ywscp59jsH6BTtAsQVH1gPECrJzknXfemdyh7dMAo4FI+i1PurWKS+vLgPwoIL1u/brMpx51C5ZqPyam0UlAl45PfOITybVaforH4hLPVNp9MX3uc59Ly/YnP/HJBF/Ll3O9cuOVuQ77Rz/6UZa5ffuLqe74yEc+kpxlTtS3MPzq/s/PfOYzNTxYwD3RxB+BJQGGgZQFAjZCIB96xGKMiRxA8fOnFdxq/IxoHgIOBw4Q1cNPWpXnpgdjtDL7Wx5iD4cY6Jb6woy8ll8iTLGaOO9JRgIcnaSvYn4Rj3SaXuRk/U0nb86rkEnNUuwBp8vvEA30y38NFFEH3bWc1zI5RnIj3PrY3TsSTx7GQu3yQPdztGLeuCXEx4X+OME3WT44vyG66/rTX7KgBVoZFPWUJaET5B+DDnUUAiOzjFjvzYRL2QMCn5PHSSQYZJfzCOUQjZfT40HkfSecQV9DuUONI+rXNGicOHESfdhLCZoaLbQm54vPMgmWragquCnm6nay8cqN+dvd3Z3cXVcXujPE8r4zfbFz187UhymCHj16LAFA0JCjMq/1qkcUkDrndqZbjwAqV6VbS7r19J5OEfYsInCp1yxdeKRJsBWsFb11rpYTtv22TbAt+8U+kn65SOPMJ6dpPQK1caY5ceJ4AqegrEivtdmle4KYedRnmlbw8pDT3fY8fpKAn3QL2HJ9gqjLD43Tb9E9KC3fpZLqEuVYpUU/T92AXL8tvQKvYCmw+jylQ8D9whe+kOKxcR9i67Iu+lk9sW2yTl9evoy+973vJd3XXXdtll2OAZ/jxQZxLrlBxkx2ZnJ+xWmOrWJa+3XA0s+PZBCWofzNccYfEXUqOArLC88RPVPGJa7MV97O3zJv9Xd6Xu7XZKOKhvnmL4G7KEoqTVT8cUftTONlNZRfLxQo9VKrF2PBLR9we0ttLFvIShj2Y8QfByzkAIALOgU3EmPUCXQXgyPs/tGoqJ+8CH8FZQujUIHwdcNUY1737kzkL94DyQkyGBSbHAxOQEVJgxPJOMeMvm1yjO6DKOclZ+ck1V9PkFLMFvhcuian841vfiNfohXy+dGr5pbmTOOGrZ5bj+XrqyhoyfWok5Rzc3ILYD/Z8pN4duuzCRwPsFlrdzf6R5bFrVu3PsVeQVarrpNaAF+LQUExXmB5dMujyYHaDsVIxX45OwHEugVUxUYBziDYeFi3PoOCgXSZ1nPHuyt43P5LDrirqyvL0MFccJR+jS/SLbCq97M9uvoI5r5EzCMdOnbLdcoRyzn62Qbdj25Dz2laRX258lKc3vKTLdg23dqvM1cQSaN97IvA57YD/a4g5hJDdbJ//62/j9O8FCxr185dudGtXKlt34/6YOHCBYC0hhWmJ/PzRbhEn8U1V1+TL60777gzr21zviyzhy7uD3aNYlILiIq/BqdxweUUA8u4ChxWHS7Vrw1F2gIXyntl3M+6Nt40hjdLW6bzfe3htfCT+SBPsb5MQ3QRjOdseryu27ZP7nLE7zbL+fLlvmE5CrqgvQPd4mz2aBzG4JLLBOH5+I5zoqcsrkBJoUM4fY/5AkgMRGRmsBXcKkkSkAuQzrqr7K4QaphOT0bM/Pml9oAT38PJYZ/7m5OCsTswNJCT3cm6d8/edHRW36UYpvjq5JSDk5tzEjnxtcbKhVmGZQkI6tvkYKzHdAKOYCL4KOaWwGjDFEH9xrTlWq/cnGKmwCwYywXpJ2iZH/rQhxIYtz67FQ5re/pAqrOTRssRRAQ8gdt81qOfpHQbL7ANXhhMegoDy7lQrBRgFCfLnbd9gQh0DknLuv222yP+OJLjciliD4BjHwg+vjTsH9UMcsemtx/KPSZt40c/+tFMI/hJoxZl86la0AjT3d2d9N5www28GHZlv6omEHDtR9vx1a9+NVUQctW+JAR5l1pqNHHVjKtupNuXgH0h/XK5ye0eOpjgKzC2ojrwhXLHnXck8GvomlKd8JzeSqic7WcB+CgNhiWGT8r5nmDDpPZbzU5mj1o+welhhxrKagoAIM20WS9uTN33hEPDzSQfg5q6Q5zDV1AxjqFX1FW99jXgnTJNG2xeK+tBLduqSuDzPA/Se89MSYq/0879fKrt8wMGc3g7NXLU8fZy53DftX4ZYVFLUxzz24WugLGCpAU49RdxWWgegoYRrDw+CNNUqGTUtzBp/EZM8UIxL0e1U/KUy5lw6XogOUWKL0ExgZGnoY7PCSdHJigJUHIdTnL1ZwKTk16AcTLKjTnx5NwUkRX1TOthkGOaDXfYCydjWXJLplf/1cgennJITl7LlYt08uveowiqqOfgFDzc4Xs3gLx9+wvJCSqyq3+Tk1T8VmwVbBQr3btRkVUXFQFQWrSSC2JyeQavPZfrFegFHNPZZtt15113ZjrBXKDXSi0tArzAt2TxkuROBUf7SkAUVAU3gVJ9oPpTQdiXgX2n/lVO8a/+6q/SCiynaX9Lg3m7urpSb2te1QXr4fyeQoyWS5S7tN91ZnefSkVhAfw973lPDOEep3FLcLUuafb5GARD2/bMs89kHunzhWOb7rvvvtQXq1Yo25/tZaIKkJ5fbKj84JEt8eS25/kIFGIEk1/9mIe714gNGlQKoEEUDkRNZ7l/SFOIkcV5XhNXiJXFm5Rep2FypAAfS/fG4dCKdORRz2PZ1Twad6auMx9D23ucG98MKHskkJI06cr8lmH51bIoR/eZFH+Jkwbz6/PosdDlge0N0dlcn0fT7GZAERM/TTsm+PE2zyColYcL9EVZOmSYAZVrsQHHOtJ6y68XjlNnhaMAekqwGA//UC9/vJgJl7AHHPzqD51MPXt74pEfPxJPsP+fYqxiqvEaOpxMpcHDCbkA4NDpWk5McU5wumLtFQkEAt/IyCj+gugfEb/llgQTuReBS1edxYsXpbOyhhxDb++Z1LsJ0k5Qt95yswU5QOsTLOdsmBO69HR1dQEOD8bW57bmOmoNQUuWLM18cl5OeAFizZq1cc011yRN1i0nKTcryNuukqtVtyl9qgmsSxrU/+mgLehnYDgK4AKF4GleV/FolBFc1RUK9oKg9FuenJzXttEtwgS1lStWxovoFxWp5RYFL9tmPYKpYHgUv03Lt9+6u7tzzbjtuv32O7IPBVENWXLb99xzT75AfGbfxNqsflOAtkwNPYKihzRbn21T3JdWy9Aar/XeuuXKy49+aRwz7VsJlRd374u//eYDMVBbiWFWerhbdYqNCWiAioGOTxcW3VdS9OZa0TLPC+B5JQ/xEPLK4X0OAao8vK4rr03LuXVkndblPeJF+Kl7ALP1c7ugxzTVtK/KR7y6pbKusqxJuVUO1lW3N0zElS2VWDmrKTrmLYplK5fGceVsAI5XCyf8Wo+/dqge5skhVsVo+sjv1OhelBytiaUhXyXmq2YvTqt/Kaco9FWxMxe/nB5IeYPH4ORVtyYnojjspNGI4rI2RTg3X5iD2sSJ5j19D7XemlZuTG5LzmjD+g35uBRL5Rr9ldMpgHIkOSInqZzRqVMnk4NyAi9duiy5u2G4njMApPTsGdaNZizFU1eRLF5SbDyh+L0GwBJY3ch2N9ydO30rJkqDE1wAs449e3YnmN8DeAiMHuocBTGD4CNAdnd3M/QLvaJLBi3PtAJoCdwCoodgISdqXjlkDSTf+MY3EtBM6305TgHPazlCObpP/5NPp+7vhRe2hzpTaRBALUeg6urqzr584IEHEjSlzxfT6VOnsyzpk+N2ezJFdp20+wf6k0sWZAXWIk1v9r0vAV8OJbhZj8E2yaHaRz7bH23+Udx40435QpBr9yWZ/cK8U3dZ5s/Mb/KnMou3Sh3Orf2DcHN+ia9G8OFXjV5u9uovk16gSPDKEy+qBz9yU94TKI1PGZZf6U888I9laIAxLWVqZk6tIb9pcubSvNY1da+aTgBMmgRt7gt2WTbxpk3wK/Pxa11ZJveTJsrx64FeTgzG+dGheKxvmAOx+RhgeQJhejafa1Xex2cqAVIuz/SSLhcpMBLhA8vWZHu5zYWDzPifbXwh60y45D3gwBdE5NicoL/zO/8D+r0NOdHk2txWv5wcchQ+M8FEzkIOS5FVzkXAkvMSDARQ85QclucuJXQil3o1J6cbJHz2s5/Nes1vKEVqAVNQcYKbVq5UIJFz7erqSuPCXYi6V7NCQ4vqd+7/Top+OkgL4oKXFnTFc7liuSXpNq91CKKCqUGjj3TrVyitbhxRcsdyVbbDvP4TNPzntTo/dXkCv4d0lv0j12b5gpt6TXcJ8vvZtl/ji1ymOkRFazlAdaSK/RqFfA5ycXKPm3+0OTSIuMejNGtRNq9isS8fOeDk/nCb0jDkM7FffQHZdkVky/JlVu4/aZs11hzHkm6/+fJS/WA6OUVD+czLc9trSNDkPOcu19PTVdqosBan1hhg4bdbcPl1vQQhQVIujcKTO5TjUktnoUXBnFAa51aUgFUFLs8TkPwt03NPUTyvq/e1UicImt96iC9BzuvkPImzfHfj1sewTENJRVHmIW3JJVbKfObx4L6cZwKjwAwIshlFtoWlgbmrzmniLrAUSzedTgByCK5xlKPAQmuyF7M+O3Wyan0uO9gHIImJmJl45s/l7gF1jFqdBba70HvJBQpIDna5teK5+UorJoS/cpne93CLsFI3ZVnm8X4JDqYvyyg5Fm4XVm7yP3D/A/Gv//Rfp67NPKaRG1J8FkxKa64TXyOJDt9yhAKJq1ikVZDTGiywObEFRgFqN9yi7XL/Rzkn9Y8CiuKtYr9pBF1plotShLZODTkCmqAkEJXjtaTPNkmnyxxdRaNbjXRajqAkyFpvAjO0CXIC3kMPPZQAK2cnaKk7Xb1qdfgp2M55nSn+CorSp2tPKfJbviA9b/68tDILZiUXrprAsnTRESj99ot6yO7u7uQGu7tXYW2+OrltvQbSu4B+V1fquundu/fQ9w+nPtX5aDxLV/L52V5fhAl8zNOyH/wtz+2L6aFiY+dB7KFjAIMAImcElqSo62yXW3LSCzByeAmEnHtPkDJxghr3SjAsQc77eZBW4NJROvNZZvXIPJbFtQBXODQW9WsNzmvu0wn5ISvTlDRRo4MzQ3KpprEsDok2Lomn3qTb8gHHEnQZlLmwGleN/PZ0M0sCm2ajHR+I4KuByE8FHQKswMiAqcFv0/XarsRRp+iR+suCiPzrn5KsqYik45WrmbNfbg/IfSguCTaCTDngE+AcLwxFuS0dkeWaDE4UgUEgTF0av4KhGw/k7tAOH4ITyweaLmKUlb5zTj7+mc5JquFEtxL1YqnrZAxqENEwIFflihp1eOrmCk6xO63RcpeCnSKk4CYYacWWY5Uj013FOSrYWY6cnaBlHeUmGLZVgLUtxitWCkpr1q5JvaTApZEkAYI2J0DQLkXNSdRHcrCqHxT7BVz7zPyCpOAuvXLi1itQyr0JxoKw7V+xckX2k7sFCe6W4a8gWHLLrqixLNuopVmu1DoSf+gDuTzpfOThR9II5AvCfpBzXI9aox2g7O7uTlHcdvo8fA6GeXXz8gV0LeA6PDKc9NlG1QMlKJqu1D977v0pYPTZWuC0UPc//19/+pntO/fEy/sOMQLgErW6KELXca6+0RGVoGguCClBsAQXgcp0Xmdar6txAq33vE5gpHKKe90jAZN7DkaBiCzFr/QY6a+0+FtNx08BsEQYn0c1TXnNZEmQV0T2Y1hJk0SYvtpOaXfbMXfTaZRrJt7JxACBxy/q04UHP8d7FjfHxpZBJkMlXSAamBQV6qgH2AXMCfpuDHoFTh3ck+ZssMTOhEvVA+VkT+u0A706MRzvJRAmCDKWBdAEO4jhtZbXqaAnsWmcMPrbleJzCYzSrtrE+BJkHEbGabjZvHlzAojcnuAkOHgIWoKtYKI+zuPIkcMJLIKNtMrRCTQChXkVWzVceO63YgQrrb86UxvMo/hpmYrWAqJx0ibYuvZbAJOrU0foC8NfOVa5Jy3j6kDlBrUa+wmGshzbdvNNNycoqZ8U6KzXNkrPfR+5L+lULytgCubqYD0EV+kyn+cCnFzj7/7u7+ZLQa5QDtY+MeQLifrkmu13VQBdXV2pP1WMVgVxALcpOVA5acHadAmO5Pdcer12JyRVDjm1nfeE8jkJfD4nx8N0EDS/6R0H00Nl4ezW6Fo4n8HBpB5DtHQliKBiCWz4Ss2cFpUUGUVprgWpRC/TeVTjSk6w5ADz2rSKseoup+cVNKvXcnT5AoB4gUofwhS1OTdNCWJlekmUtrxnGs89POeQvjyq53B6MVHsE5dcaK5tpoxsDvkEbt9Aco/oovBCJT/3BUaPMQ4Su/qnhjcR+1ZxCQc5Qfnks5mckMUTy/LaAqqneTbz51L1gBPAwS04lJyEE2ESiSPBL8erz4J/pHFC5KRwmFTPa6vjXHBNbop0mZYSBFOD9yxfIEqRjXPBafNDm9NwoxuLXJLAUFppBQ8tsXKAio6CoKChpVbOUFceuSnvCRw9PT0pfsqpab11mKt7tB7psW4BUJAT2AQP85UgrMHkL//yL9L9Rb2fgCsnK0i5Q7hcqyKxbjnet+8sw7IV/aXp5lvYzKKzcFgXxKTdfrIdTz/zdNJr/YKm+aTHtsv9SqeqCa/lcBXndcmRW9RpXU7aF0BJu3nlLk13Ixvg+oVEjWCWJaAvXbosuUvpcV5Jr59/lSO0HwXkUhUh916+AKXLo3xOvhAMjoEyeN/yeMSvmqiVdoB74Zw2tuIajnNnWBLH2uHiw/QkRuxIQLKgKcMMJfiksrAcVVzzOx2QvJfX/nIkGOJBWMtR5s2yAaIynZQJjorOokyK0d7nsHy+1ie2Jvcn8pd1cpohG20+01hGtW7zJz2A/qT6RRLgbxa8XXJXCUVv6xZUPRUcTd/EfR4Ko9W94dmeB/F6HOdfHcMFRxT2NQmOKLNl7asvE4GxWmLRHtoLNTPhEvdACW6+6HLi8PxLq+QUF8gEdCIYyknjbwIqT2n6uQ9tiivx2XKdeRib0+MP7z8cX/v61+JLX/5ScnkCnBNVrslJLfdWcnMCjOfm9xC4TafuTfoFJINxXV1duZGEbkRf/OIXp9Yce9+00iKwyEUJDgKb9XrP/Or1tMwLyn4O9e67707O8Ctf+UqC0mYsuHKtrmiRy7LPpE0OU79H27Hpqk3pZK3uUNAWWAVGrddybhqmbIfA5q+co6AsoMlV+v3sP/vPf5ZLCvUlVVzu7u7O9L44LEOwlINU1Nc5eyuuVWO049577s012Ku6V6UKwtUycoS9p3tTvSB3+9JLL9MPE6nCsO3uqqPvqeBue4wTDGsaeLE5Huw3/rkXp+fly07aHQP+L4MCZnQvWRTXre6Kl3BSrW0ovrSnODjJg0sRg/MJRWw6Tj898Uv/Q30HgQc2aOCcXWjG5fQSkKykCkz+ki5XkOjgzWlxTdrpnF1yhABxpjdPtawyv4CmqE9dxVHW5TXnZcO8X1QCkZynzpFfXW4QZ3LvsXFa7THpzt3/P3t3HvVnVd6N/n7GTEBCgARl8HnCqCAgKooKhqB1KFZrneq4jrhq1+lZp3ad/nPa1dOu88f5p2v1fbvstGrfdnW1ih1e7KBYHCoKglWrUgFFUMIQhiQMgYRMz5PnfD/X/dsPv2ASQhJ8BdnJ/dz37773cO3pu6/r2tfeO3FSHWj5RWf8AkcXznF5VsRszuz1gwHVKHlN1tBEjaWDEJ2T8+B47qXD7DtdInuck2lub9/7r8/+PYgSSNHi5AAGp7FXlaYt6BQ6hG/FHeR7gdwAFPlvvz2HH3F7zCXK9t29AZO1v5YMmqU1c4sTA4RARMclJuMOAYgL2ABLl06LCwNixGT0euYPOE1PTxcQ4exMttDJSbdd6AB6JoyY5QArNAA3ACufRHbir8me173+dTXJ8tmY1wAl4r6NF9DCTpNIi1bAd+6Lzg2wPlxcm8kdhuo2gwWMl33isuLOgCFa6VXRIS200AlSA9y17q7iHOkRccRW9wA+ZWOCBRg2ThewMyz3Xlw46VeFUz7vZefVRI1NgqUlL//8T/9cdpmAH7eKKzewtDhZFrAFVbby2epbuaCF6RZjdoNmG6QMUHBu2I3bVevs007ufu3S93UbHtrU7Ugl2YoMA5a/1SAAxuSObBKxIxU46NwFkGl0vQF4wDIV0cCyB88BOCYszLBX4mDgrRhgdL+mOR8BWAgbCTgWvyWMxtlAMRSDoDIeF0m+p9n34SsZv3tafOtpE8bHeAxtj0Qs35hNFO9MHr5pciUNrXs0QG3CZUEuQEwnOMhfM89JK8tSmYDjvYkoJhpzAVdSt0kX0pVQEdjyt3eS+3Hn7WN+fvz7s28OVQm0kb+ATCNW9LmAjne4n+IUVEfeN6BRPZ6HXXWq5i+efS/AFTTPdIDAwt6Ddr5xqBNgBHRAkTho8oX4CAhweIDEhR6Ax09LF1ia3GBW4/vf/d3fFTcoPo4/nbjRoGMTW6U/PT1dx54CCIBDzDVhQ0R1ANef/dmfVZwApaVnpQ5/Vt2Y6CBum4SZmpoqEPnGN75e7+Tt7HPO7j74v32w8kb3Jz/ittrEKp7LP3V5baaLdpMw8sWOUThghc5eR7mslj8CInpOgAoIrSISJxGbWGyN+E3f62fJlQk1gSNc/y1HR4jbIMOv8gequEQ6VeXtnTjVH+A0SMmnjS2I+E3cbuWobA2c1Xb8iBu3ZviEY5Z2K5e/KKCYma7o2HYCxxT6znBHDgJKe4rYSK+WK8/aCtcAqH6n0lLiFT0gzI969pRH/+Mkn7+JEBnidfVf+RDGbXCvUH1IIGkjifoeL3V0asVTwfr4BmHd+Gt+xbc1oLsl8W3btqvblIOwbsxxqt+474Hu+kfDCdI3Lj4yABrxmc4w50jXyYEaZI5z7bJnY3dfTJpSNjNZWD0zuribDJAuSrwjuc/EvMn51hFGinNcmCCojrBTWoGalIl4vyMvvceP2GmouMzdCB384Ik6IVfbLEMog4VPLXdVwoJUTvsvUqhBZf4+/NVw8sx11bCNp/Ke8gY0ioad23Vfu664IpMKOEvgUP8ywJUpRzw2wNA+ufrditWL/nW91+kAylt/Mdvqx0DbbtTV0eK/wsWvncEtFbTED+jg/nA+zE1wXDg9XE8DTfQCPhyUd7ge6biqz4Qu4QAsUASeQIB/ukKzuldccUXNcOOWAAzxnU6PmMsBwOnp6eKm6CUfCjPEVObii19TXKcJFbvpMJWh40QD8xyAI5/MgMyOmwzhgD4uDz2W8bFv9E4+rbhh74lTk0+gjMaXv+zltRIHfei3pyUgs+sOjhWIKkt0+21gENYlH00FYRAAiIzOAbJycTSr8miDAlDFDdvf0g4+6OeUJ//qqpZH5l2rf9/H/t/f/a3fqwmFGD3bQGFiNludZwPXydwno0NbkGdX5lrDJdnLMNsNDa7J/HYtcGWrmoV5vzAg018zdYKfU/yyH0m2n+gvz4viZ3Heu5ZkmWB/hZ3PqpS6su/iYfPX9jy7tuXamrXO/XV4fh8xdC2Nn2UR1ZflXbuOzHNdWQ29JLB4xOjWbjrpnbVosjt9WWzM0nm2RYH7I2IX3m+SDpRygW4VQHod0Dw8vzO6xRagW/28Fd1pOTEwO8Z3R+T1XGwfZ8YWZ39GuzrmZUYFgEdVSoqn4mQSZB7pUUCXnzokiBu1ewVPLh/4rYf8qP0d8yJlNQe4cc/i5ynfSoTH4fpWnG4llOe8yr/eL5CM6xPN2/rlzTPO6UgaOxCZd4oxwOcs6L/8y7+sTv6Sl76kOgR/wrQTAfsymw+554cUq87TOpCOTSTV+VoZt4D82LjBfo10a8TMI3MW9Y/CvenQxO4Xn/viogEdgAWYuQMEojMAwIESrQEcgAA4uCX+OM+AiaNLdNYze0cA2kR5gCs8OtGB0wJQ4ubQYkNenCZuDBgKww//zs1GE3D3TZo4McDCv/Rxj0RogAmYAKEwOEIcm9ls6QhjoBDukUc2R7TOhhEBThs/GCiIzZZetnXo6FBX8gMUDQbEf3XteXp6unbpPvPMMwo4idV6Gf90ncJQB3zg/R8oUV76ylX9ULEoR3HxP+zGazuvfGB+MjFoXFVRfieQ5zrcPolVvx0OPfQ83GCGXu/22BrUbi/38wfin8jtK35AwqRmwY7RbuHOue7owxd2Z5081a1fub37/Nq7s8A1jWsmInUKrVBMwytwSqopxJqwySYTs0G8maDdbL7tDOdhY12g12+4gesInQHG2RS6DSp004omrydxvX7nkptdZkzTcQUph9UO5+lrLTkcfFDRuMBSJQzAUXqA7rGrxVEp9ukgZfDabfh56PUz6hHAaSu4Qh3AMwU/QAEM1Y5SELgEZT+Xxe7auC3K/DtQV/U4FL7FpeY4wPHmN/9C0t9Vkyk6qG8Ai2it7QIqHBBuhy4OOAonH7goYAFkABiaiY783r3u7uLy2DUCGJyRjSEcJfDtLBu8JUAkHDDDoQE4xuOnP//0xLu+u33t7fVsRYrycSQA4MLh4qZtgmHzW7q5Bx96sDjAU04+pfavBIp0kAy7zX4TedELHOksDQLuAArHB1QBHbHaRI311uoKMAHiV69+dXfW2TkzJ1wnkd2strLodaH9PpLyLg5lhk47gNtZB72A2ECirtW5eKkaHLxloFBmVs5UVelu+Seux7t5mPSxr6x0oBROf0xp7nnOn/AkBw+Mj0/8yf4uWvYSaF+gKMh4gGRROMQF27O35KPRlYbTOnrJou60JQu7t6Tg/2nLPQHGzFzjGC0NZJITk4CCE2uozWTPLu5mg1szQToXYBwFXgG4YvwCvq1D2DGcZkgUveZ0NBPrYCwxpkL4n01Yv4Xqa+qxv/UmH9vdoCRM/wZ49q60q4kHpbhUGC7SPqVGT16q0wo/CPgMu2m/2odOwxUnoFzyXmcFPkAEl0HfxI1n0k3H6dt4Xhxk+Ty+DbZ41XJxPhkYiX1bMnv6la98uURUdABD58NYETI1NR11z9YyXXHMqxUyQE0ecKfyBXRwj41rtNQRJ0fPRxxtYrDJi0uy5f+3vvXtbEF2VZn0AFcidDtlEJf6zZjtMAa3ZvmDH/xgAR/9oG90fQBa2kBa2tLFDQJA3CddIdMZoMekRh0AJyKsiR1nzAA3adsKTb7oN/kn2poEcmQDkx7lZKZ9enq6u/TSS7v1AW7n3RgYgKv00QVkpYMm7d3SR4CPTsdUtDXTOFB2lF/Myp4bb7yhBgxlqQ1QFeD6a4CEc0Nu7P/5nd/+vQY4uEcNyWWfQRl3FozGM5q7y7s9Xfy49vTNu4pzL2H3FubJvt9X+mmToX+kOzwi7+LQobH6N7M4M8+ZYPnqw492Ox/OhExxbGAmHazEaQWWZ6cGJvyrVizoTls20i2M3ecCcnKMwudyOdrABXxcvVFPosgzVYUJptGwlg04CxyTvgHH4jPd2bPU8IH6aF15ETzvQS0vvNvdgcCCxfgZfM3Nm94JnAsIt+/t0zPs3nSFJlcKIFMO7jqTTrNh/YbaIVvH43RQJd7a58EUB1AsYFTc+df/z5Oyz39cEacjAmg6Nfo8Jit+43DM3jpUC1f3yMOPVOcFKDheYiHQkB+Aw+HEAAQO0oX71M/Wrl1bExLCySM/dHBEVRwVnR/uTGtCD04PwBDB/baBht12jgrImZ2m55MP8Xzvpu9V/GwOASawMmHDAFw5AlymOfImrDy15ZYGp6mpqYoLHfIpTuvB0WbW2sDFZlMcONHVF60usx+G30Ti86IjPvfcFxW9wtKZyotlhMoAIAPcw7LSaEXqWdwGFgMRLnVnysNduTpXZslhS/p6qxJ97M/Y7zRgTMU6grRVsLvfDSh1Ksjafj/+Xv5TKcPhh58f7/9Afg/Ht6dnce7pvXe9vJpZyTRSRxosCCtnsmQ2I8eCJZmUCRd5w32x48QdMt8RJhM2Fc4yScCYnbsvCDCecnh0qUGrhdGtzmWlzK4YPY0DxsBbQtflYAemTDVlEu60jIfDiSbWihu3iKPUNV00RrpOH74HRnxhQZ6XCejmXnHksX57N3AFqOosv/nBTZbZkXveP9OBUaa1AZ0YV0OHRNdFLHM2CE6JWEWcKuBURimXKu1WqIOyPJCbdAsUE7gB4m6/8x59QBCooWf16tW1ozXA2Xj/xmIurF1uG14Q+YmElroBRKDOcBqA4KLEwWEKxItj0ul9A4wA6ra1t1VYaV6bVS4AFn1ORMStAlTgCMQA44KY7AHr0047tbi56VXTxXHza/NXIj9acF7KEfDg4pgJLcvuReLGkaHjhhu+W3rH7/7XdytOelBgZkBAD1EZSOJAmfooD6B2/fXfqW3jNHKACFyJ3c+PvtaGFYAbEMqjvDv2QTlNT08XQP/wh7eWKG6iCKfqUvZTU1PFKdJ3AtGJceZ6g3agLQyuWCfrRrpU/1Eh78mx20uO9/Sp3rUI9+ohHwqg9uVhH9+qoR3E94ks+ZPTXamsOosloLco6/aWJF8rk/tT7d69MED4SEx4bDIxqsCEyFVsYO7hNkdSCfR7FIcGirSMXIHAFKgy6v8NADHx9iLt7oQ7fnVcWQYwgWmvber9gE6hw5fXvxKPURHvOE8mTgRkIFdAioR8V3/N9ZrH/I2fcnuvthbkaX/XPuS3FOqZ7OLUhU7bzjMmtgESnZnf8clejMZpHgrX2qgarJpPezD8tsppNLrjjoAQ7g2ImfE1eQEsABxgB+q438Nj5H382PH5ncE5ecIp8cePuFq8QALoi5daTF49A1EiLE7Ks3TEAQxNirztbW8rLuranNjH3pE+Ec2AD4hZB668xAfAgODdd98TLnZDcY1o8Q4HePPN3y/gBXzS9r4301nazXy+30eROuG973lvcfLC4DrZYdJXfvjDHw6H+PocU3BjnTODEyRi4x5NZKk7QMjw+z3vfk+dZGjCR1koR6DtDBk6SfpHa7npQ0844cRiiOzZ6DdRvtkutvKb7y8p5Zjj4Wk0jFTlcO8atBT9l4MBe/ref83f+r6HCOY9HOSD+CWyF9cayF4+F0cmr2N1SHWW96W95n9mumczZz3eHb94sjsts9U324pMx6qk8qfEaarYPgBgnMtsusLAee7iN/oVo5H4+rJMh6hOIRoFOCjEefIjvtFPBtLMOPeCdO8PKFa3MqNTS9QGfKN0comCTWj+JrQYkup8vHkdV8DIjyjbt31WXgV72v/RBmaVU5wZYXVBJCWGAgV1tGFD9vULEBrUdDJhvNcpPB+Mq/Y5KG/xtX/qQNszAy4NQHJXjMMXB3iAAm4GGAIz4YrmcI9AHXeH86JDBGaATRhAgDskvtI3yoP3xGicW+vkjL5b/nCErqaHY+xNZKUnxJGZWMHBmZgpI/GAsnTa5AgQVY7A/LRTTyu9ou/yyQ8AtPXapz71qcoT/+JpKi6cO1DWKM/Lvok/99qfK67vqquuqrziZpk9oee1P/fasiYgsuP2y8j8l97a64cH7fqMM8+o/JjlJk7/wz/8Q3GfNh7+wAfeXyZMwNyqGRy4ssINNztWNFc5Jb6qu6HKH/vd3/3d39NnqiI9xMtjl/f95XXzs9d7Rd+aw+73oTQP+PHxxO8WEfr8C8F7uoo3S+PMNHyBfP0JpjjuNLDW3RNG8bvrsq/dpozKzHYmMnPFrjEAVNPOOzJrHSbyvGUT3arJmBPlNW5zdMJyqoW1WnFcQSvkXIG+cJZJLx1hIu+J5wVYJnXyrso1sdv9ezTiUrsqPBYwvh+78sJa74CoeijxOPGIowYs8bnqn7BxRUPPVTYjfEGfSqfcC1yQHjdfH54QG1d6wNDKX3tHXARi7Xd5fJJ/KmzS1dgbEIgC6DgfmWiIm9CxLRvjGjC2ohZHo8G3YT861RO6QQHLt//DrsWHC6RfZCtoFtXkgo4qfkvagCHDcXaMOCjvcWlEV1yYO1HSrDMAMDgDHjPOLkAFYImKQBVQEpWVt1lZwErf6KwW3CAxlqE5MRRg0sei1URQK8fiwgeDv/rzvbit5FFaDfhwiLg0BtfiaTpIzwYnaaCPeE/3ef4rzi9zIPEz0SEaGzSAFxrRLn52lvIA1A0gwyo975XLC8/sRW3n9Nx++9o6H5vtIt0pP2gU1zwYpnLUtbS54br3GysU19diyu5x7rHa9fRjn4d952PPLQ2/PLTPBxW/ThtyLFscq8LAWYCvSNC5FiXzh6XSgFZKKW9y8cfWkChdxt/bc6hStqQKJ1fe4pXAy++YF3SRHO+Jm/hb3Sn3nbEF3RlwnExDdiRCLVEswIz/ZscoDjMtJnXQkDu4o48Eq5WosNzArCettILgHJn4IBUBwhG5XZ6FH16hw9ehdI8HFA1OfRUQoiD5Ke4i99YY27dhkDwYmiq9lGHbMkzHZmSNk3Eqnt2z6ZwAwlkvPKsWM1SHyKQah762jZiwAMDFT7vvD33VTgfVNOwf92a214aw6AB+OrtZZB1YmkeEy3o0M9G4RJvrEqMB5PExJl+Wb45pYFuIwyN+MtWRnrDiAEJEar+BDL0gkZnZTJu8AVwA1gFcv/3bv9396Z/+ac2QA046zK9d97Xu5173c3VSIm4LqABvnKlBDPelTJg6qTtg08oKuMoTOnCL3uPa/EYTUd+zGfRjMli9Lukcd/xx9b7pDL901ZfqKAiDCHH+/PNfkWLs1SJA0GCBjhKW0BEagDKaDQ62UVPH2lezU5U25160DwA+lFd/BfRVb+VrHhgHv57Bt+LE0v61V+ezjPUIomxrdFiSyZjD0gBScgGnXNEbFuKk4JVdbd4bg/eHZtLBGXVHnGarGCOnRKqwFV55zO/wDK68k27vCMxMfLK2PA0p8/fRY/SK3+IA45HXRB8GNSJMrlhtZX+j2Ezm/YJwjAuiL0GaExtxCgWUBcYE8KSdBpIukicgmQbjSlhUAcfyn+enxCUhnYBr3IRnZhxFRJJvrrg6gw6S0kB1Og1WAz8Yp8ED3dZJxadjVWeMmGji4N777u3+9m//tvvQhz7UnXzSybUdGP86G/+tc/jdgBwwHCxt8nVVRMY///M/L3Gw5/jMRh+ZdGZqxYa9F5Udg/CjA1B0eMVBhePRlpjF4HqJmiYO1qxZU51cHgvUA+zAhX2gbbwc47Bx+cYCRSAFPIANoAKCjnKw285v/d+/1V122WXdlZ+7ssKh1aoV8VhGV4bXjKoNytWM+noqgBrUufoDtsRnzyZfALV3gBrHCOC9Rzt94DXXXB1u8Kzi5HCygFdefLe2GqATrw0oUwF44dlqsknkgGMTi3dk9yvp4hJflFnragtpVxgXz61NykOrb+8NFsLhQofrOEgw1GIrub386ctkLx9/+l9rWEAKc2a2uAquACxAk3dHLMiVA8FSOskMkMnVUM0rHFpmle/PKrPN2VBjS95tTzwTAbe5HNK1KwAwVjpBZTEARuGUb+7299upIrJWG4zNZSKneNZ869eZoyvL13IBR9+2pVJ35OKWZNnhool+omYkHWk8m2IsTGVOpFLpOAt84i9NoMRrQCj5ZLG/Fy1iempccQ0pM43Mjso6Q4GeRiffM1l9ERGJ+YTfuzJ5VZwI+uOGG+WBUlh1ms6gkY/0Rp/V6YhQ9G9oMytNhAWOOr3jTccWR083mEDTcdHSOo/OCnSAwME48TAstuOMzqvjE+/RvDYiIxH0W//5rdrSy87WZl1tqkuvCNjRDhTZ5DEzoUM1Ow0siODobrQDF0C4PSBCpyduv/knqqubAsdMoDCitrPNr/0fv1aG1ThaYETcxdECT7PC7Cxf/JIXFygrB2CFdvrGH9z8gwLkVSetqnC4YemZ7CI+q2e/gSGOlD4QSLObxNEy6zFJ4+LXxMrU1FRteoHWTZse6h54sJ84ev7pz686bYMpYOMAn0FYvSkrl/NuGLhbDXPKKSfX5hLKxre0kGonNfsfsGygX5Hlz0CUbj+fufd+Vjf5C1AAPkImyCDwWQ59+ORIt9xIhFPcEXhKZyqo4o04jcPJYVzf25rzMKJuPPLwie7RiMfAUAN2hOpEGkqfgI4fcMulO6mG6lz5PhLwVZWZ4qm108Aw0XUbt0VUiBnl/Vtmuocyom/PCGgzj7GJsYy6i7oTlsbA9/CIWvE7mU5qzIwmNNdcVtTsiPoxW04B8+QFJIIb5lZSh4n1+BSCo07SOAg2bWzRcAkaOqChJwMGDqUibjWngR4KJ31Ox5BhdSJq+iXfdEozoLgoQIMuAAmUgKNT9ABLieGJp3jvdKBhzlGHOlAnn6svWt2tuXhNgULjRsVvIoNOEGib/LDeGTgBjYsuuqg4SFwiUEGjPO6M4TSQs9xRHEAI+Dyw44HKL3EbIMgzsVye6Vfp/YCNOgJqWzZvqbSEN1P+G7/xG2WEjg4cG3D8xCc+URvZ0m3iZonXN8RYWngzwP/yL/9SHKjvxHTc39TUVOXTgIQrxenZng04c947vgBHuTAzxABLPrQV6gKAaocetKPBd23ogQcf6I5cfuQ8t9jq3WCoSwNIm0QYDOyKjuulStm5c0epIMy486v8+S9zHdX6uL7xswOMyTtwtCSrltMBkZSMDR4AY5iGbmXEhS4mHN1MZmJMvjhfugowJZdKcx7OnY9s7NY9nHWkRx1bHONcOMAlYTkXVKWKs4dG50wXOKZDlFl3GvNIuIYdqZQdAd2tqcdYTXZrt891198313333oe6G2JkfktG/25bZs2NhPFfCLdgsnvp0oXdmSuWdacfe1R36oqx7vikGSyt41yXJ07nZI8EqKu2dqRfwgAAQABJREFUE6hsUAsU8zygKbenzGnQGqlLZzSTiFtpXAyQXLNmTXU6oIXD1BirQYcq4Q/GtREfeImrzQADE9vq6+Q/vPWHtbwNfaeEW9mRTqcj63g6NYU/rqw6W8jD5QFQnedg6dNZcUnoAwA4HekUGKQg3Imer77w1QU+zmApIM+76enpAiOASD+3KRs/MKQGavYoxHnSRzaxErhTGQBXIMg85hXR09G3tkkQnKZ41MGdd91ZIHLM0ccUEAPqqQDbWOrp4XCsducxe42btJ8jUxicLJAzcWO22W8DDU6yzVwDP6K19M0uf/krX66yVs/8AHtlTPxXvrhYA4TJlkWLF9Uu4r7ZxIIKwIoW+zHiOOWVKK3clKmBQhrronPFeX7pS/9e9pM4TFw6naxVMNqbcnRX/rhM99ZuWhvsh9X2ax/39OOntSupWN9jzmF2tzhGnRM4Bg/z5rijDutWRtS7bxN7sYCS4wxqH8qAooPC6BM3Z6Zv48PdGStjV5WpaSo+kymLw9nNKOS0NGUFGAUtbjFvxlN5o+kMW5LebBK7OyRcc9ej3efvWN99/v7wjFuNYL2+sqaDdkWsJyLvyBUG9hubsoh/XaB0yR3dLx2/srtw6tjurKNjgjAZ7jEVnZZVE0iVeIGOSZm8j8jaU5HbU+gacGioLs4dx+ab+4Js+eVdjdbKBhcep3NwLVz9OJA/qUeNvolUGjxOiSIeh8Ssgx0b0RBXpnMCFdyR1Ru4s7f90tuKI0FzdZyADFBrAH4gZAkjPpe8uxPv5RtANtMitOugAIchtDXLjjOgD2RrCHx+8INbAtZjBYSOYQXkuCkA2MTR6zIp87noC8WPowMkzpx5OByXuIGN+mD4beByDILNHLy/6stXzesGcX7Lwx0ClRdlj0Z6UYbaazPruzacNiBiQ2jwQDt9qPI0yKALiCtTgE+/yp/8yYfBCifJDMkgIC7peX/RRWsCkluLY1aXH/3oR4tzpPpokykAEjdYbSdt6aabvhcO+r6ywaQGsJTRQOdQNHRQY7BdbG2t0ayOXepk2O03MArUVG7DETxtnmW8LsY5wKIHk/5dr1N4Tpb6nXl0DvrZsi7f01lng0jEaAukbWwbPaHVMLfkfNyb75zsTjg1KwUyYm+Nyc32cHB0fkBWd2ci03OMiSnPo9uj5E36xIZ1m2e6f//BHd3f/Oju7uZt8T2eLc2ylVm3IHc7pdv6zAoc+AKxi9wI37PZ4Sd2lv9zU84DWb+x23r6Cd0rn5eOETUAs6CFaSADzWIFCgWJwsw2eN694uPhkLo24tZonPwCOe8AgXeu4tYzkrTJl9JL5jdu76CBR/7qfw9oTdmOjsWLl5RopoPoNO98xztrRvbm799cin6zqDgfExDEwzfkjBWdRefRMXWaNst+oIWW7ldl0pdDD5KeazBIvaEdQBKPr73u2uK+6PcAOlGQI8ZOZkaY2AuA7C2pDHFmuDYz1MxVvpWjB4AlQJQ325ypi9NPPy1hTygQtcxPWXDT01P1HbgSteXd6hsz2c897rnRY26uLdYu+flLyjYQiPl24w031pGlBhb5kJb9GelH5QO3bsNZHCm9o3gNVLhVYjFQVCe+SVvZ8+OMF2I9Q+wzzohONaoX9JpQkm+cpjXZjliwSzluEqhbNqhMbX3GRpJ65Ns5KREna7baoV3qAbfJTAm4m4CzsqfqQWEMXHr6/nWY6ujxS4+l49fmCQU0qeRkxs4v+TqILYnrzWlUdVfxIwxuhRykOEi2pc5Lgu/FRRleafTgXNGFDh2/UszzY2GThhkHL9qdz4TfDriiJ2S8wnrR/uOFPkH8yaDY8QGYC5Yv7r54W0TpR8KpWQkzEsCKrSLOspuhe1zUfWNHdju+L5WxYqY7d9mC7phgmQIfzyRMDBS68EjFrY0nitmkYcOKhyYXdzsCcjdm1ubT31/f/fcfZn+8rVbbZMuqsax9zWRKtzNIOBcuFVcbsCjQxnbW9j3e5XksYaIHvfauh7ubNv+o++AjO7rXnfbcblXEtNkcB7uo8hIxLWWtFGZDd29EjsIDd0KX+JsoNF7OvURYzylbANJGXt90xubXc4GCVjDgFJtfjdL3Cu97noedcHm9T/AcjkvYxpl5f1w6N1Md+iwcA3MQ+jyd2OYF6HnLW36xOqSwTcxKbn6MFt+5oil3tLe05bW9b/nhtzpjrB7Y7nkWL/qasbHwxHwdGD3E+6arw1naC5Hh9G/+X79ZYiEuDxfLbX5k8/wEC/AAWKPRszFHsuMNM5/nZFUNkVYZyD9gAEQA9itfubpABahJizgLiAHr9HR/Kh/x2zpzebMFmXIkHhP7rYohXuMW6ZDt7IMrvTsTO88LEAn7qcs/VWkwtaG2sGaaqRD9ob0YhZUe0KRb5O/ss86udcwvfelL6vgFwA/I+aViwJVSjzSQxpkC4k9/+tNF989f8vO1scRnP3tFgeJMOP9qi2la9I+M0JWFfCt/eRtud08KGG2jNV4dNokE9Kp/JCGVDQJd9TIzuEBrtA6gGui98q7AczckrLqtP2n6867iHfxqz76DsfS/gtfRWpucNwArKVfPyd9aLWJ2GJjwWeAY05c0zIfzczKUxSQ1ZAYcA9YVPkA0MTPWLR8b6V5y5OLuF7OxxKceDHc2Eg5uSfxM5L494q4repduwcroBjd3v3/3pu69h2eh+3Oy3jpxH5YtdSZTyGn1KeSY14SuHWEhdyTeh0P3Ldnu7LLbtnZ/dUdmWeayF94SO4Mk/tqXMYCY/TDrXJrsGxky8wxZVVH8cGXLExSeCDhG7/VQtkr7g+/d200sPLwbOenwMJsLMzmzM+Cc/MT7aCrb1mbiGqkZ8xB5gE5n1oAa0M0/J+5qWOH8fCtOTe0nbU5j86yN+N7C04PpoLiyCq8etQ35rlsPIL4NXvT3vfwtsB2ElZ5w1dATHMdh9xicmPW4z33ucbVMkA7NN5MUOimR24VWYdFa6ScOQFaAmW9m2L0HJM2P38P5E4eBxHvgKTzusziTxCd+m0JvvGdjcYUMvtk3+u4St7AFZPGLw7Ez9rkvPrebnpquSSKTEzhKYAMQcWC4Q+Y1znlmnmQCR7nKHzBFE+6KGmHNmjU1KUWHB3ToQJUdwDn99H72F4AS5dXTf3z9P4qu6Wk7AG0rTg3YfuQjHymOriaDQguwOeOMF5Te0sQNNQWa5Bl4v+bi19RMuEkb9oxTU1O93WHy6zAsgxbxm94QSK6JaG3QAIIA3h33uPrVq7t3hPu/7LJPFC3XRqdqku0973lv0QeUHcngqIPzEycnn2hiZG8wtP66tUHlzanH9Lr9c7Yh0+4o9cFev1xNRBkJFXwAaHYU4PAFxNJoRqMDS0dNsygxfITIlM/lY/4BIcGGEFWE9cHLk8bVfurSoE53Abpq21/02EW7at+L4kbiu+59COBok4cjEqI43tAbybfSKJRNp8aY7QzHt2zpeHfa1InZnzHiy/YA1KKAL11jAUvEaQPDgsQLizds7v5219puyY7s6HHsEd2ycJwTidBKF4dmTWQHntEkNBqO8f7Q9tU7Z7q/+tHaTEMnvohNpeucDXdKVN8WUXlngHdBPE6EfgBcLTrPtv6eDR0BwxRSfgPO3BXcfRu7z90Qrmjx6d3y45YUIC5OXpWlfyMByxKo81tpHIx7fMfX2QGSWpJeicMhaS75b+BUQJBEi5qQXL/5yT+uwsmHn7lVHN77Jw/i9W/AkQqzJ9e+NxBGl7A6ow5vxQRAwJG84x1vr5lUO67QaTGB+dEPf9Tdesut1bFwPvRTOBDh0SVeG4E0sCsgDiGlBkD/wPHf6B5ksfwUXfHnu3I0SWEN8NVXX10cIXESfejUUV30jw18AZsJLWYzz3l3f/oeIND5iaPEU2Km2Wg61DaJVFxp0sTlNQAgetLzAZ1LLrmkwAKnhRM1sQJM2VZSL+Dk5AdAoh2Q3BNuEHjK+/dv/n4B2aoAMZUFXSVAEwaAAWtlyTTn6muuLgCcmp7qPvnJvwvnd2e4zNNTtrPFRVIVWCqovrQtZW3q8IILL6jjEZhY0Y2qH+BpYuWOO+8ojhB4Ow725ee/vDhVAMgCwW7h0geoaAGodJrK9sgjl9VMvnpCb8MuVVlLAgd1+oQ3genJxtJIqwEHUAgHu9KJa3v/vIdNeMR042JwdoWtB5gyaBdwPkbScQvg6p4Q7uno7dLpewBEki4iVmECsHX3u+9JfOJUfdmZzlC72gzSZIBdkyBp2+OxCJzsHs0dUKMjyIajTXxzoXtnQGd7GuzMRFJII1oXkXedDSXAyVgAMXaExbllNE/vqs7S7cz3Rzd3331kU7d8y9ZucaI8IqcLHrEwfrPzzq657eHYpDHXfevB2e6vb1rX3WUHnwwY/TG1uYedz/RoCEx+Dku8y8MNHhkONbOMkSXyPoY5AeywGz0oKwucZBpT3WPWc286xbGZhDnxqCOzq/hct2TXttQTrjGlEwBWN+DrUACjBsvh9jyrHWBXjSpZwBXdHLu2r4e7oEfSGX3T6XW4C6LA12l1sjY73RqlewOeRFtOWO9D/j5dS7/aaOLmv2hNUPQ53gD3RUQ750XnlM7MjjVN8e+dM1vo2HRonBgwEBZg0Odp8+Js4FYdV1pJo1ppwBMA4ob95r/oCuWtDL4TnZe9A02s4Fza7LOJh6IznBhgkObU1FRdODG0o41JDgBhO/i1//halbHZWRzemjVrChiBh/JGC85OmQgnDgAL7HCMJiQYjduSTX75MyFyySVvCiD3O2YDcN+UyfT0dHFpN//g5uK4gDbLA3GLT1pmtK1kaenY89AGtzbJAFTAGJDLkwkd6agbovDFay6ebxtoYQ2gnQFrZUqlYABRVtLzbGae6E7UZiBPT2kSCoeNHgB+6w9zIFjSIEIDUFLCK1/xytJ/msBqFgzqlVNX+80xVkPGLbHzg0up9BKN0+l2RBTMfEKpyOzxmjOn0oDKS51QKjkrTUbrXOk0ompIKMgVl58l8Ta4q9/15TG/vCbJ8kc6bn6EaVd12UGc0kz+KgmvJiLY+udZeH535g9uV3jw9WjeOxljR6x2Vj7vhPwIcG0KaBWixLP849RiohNqoh8MeGVSZsdDm7s/fWh9d8M9m7sXrzyqO/2opd1Ry7IF02ExJg0R2xLuivUPdF/bEK5wLPpKR9TKwK7EHfvDMhE6OrpGVuZmUKTnu2QApt8BmC4AnBaXpEOxApbBw4+qo13/fd0D3QtOSCM5odejjYdLHV8wES5YXnHM8ZsR+EAdQGjgo8PpxFx7ryE319bv+s0v13+Pbi3AWWEGle+Z07508Aa0/HGNy5nLZJROsi9XYCTe/K/yyw14jUQcoIi32gUo6DA6m/XCRDbci6MPrLfFXZi0IJLp9Levvb10XToTvZ09C9Hc6MQ1obU41EGiDRCBE87MphCWqREpneXMqBo4cMoUkOFkC1QTNxpMMIiT2Q0wAQREZvo/XA+OB0AAnsb14nBNxBiQcIjKFEABLvWFU0RbAwCztABHXN71M8IX1WqUV7/6wqLdgVzWm5tQMTO+JuD7aPKFI7NNGpA++eRTiuMDSGwMlSlgl69V06u667PDNvCVlnzgbqemprq1a2+rdvGrv/qrnQ0h1LWydXcpj7W3rS0AbHlWXoBafGbJf+d3fqdowQ1yytdkEJWIMlAHuGphalXMOS+q3cqd16M9sa9s+tqKYPBnv4FxLpnS2pyOVx0s6DKCU0yjW7f+/u4r//nd7uZ1GdkyybB9JJWc1jkSTtHaYBM1JV5pOKnsHrEST77Vdv3JrLhc/TI27/tLKwdkuJ8wc+E+04FyzUR8xonOhDt0OYxqLnd+xV8c0uDu1eFzW8LRbSmgqGV5iRdHKYyZ5tnxyQD7RPfg3ILu3pjNfJ3FztbQS7EqYfAZzrbavhljYu1YOLyxcHQOz4pR+NUPz3ZXb45u8s4t3YlHLO6mwvlNRkf5aETxa++JmLwr/gNWdW634iSqA9qVy7vuaJxh3lkrTXS3BfiuVI+kg5d1JjfwiW6zI36nDArdCc+TS7vbNz3YfefeTQHmAGMGr9oBKPtHKnf4mpQPymmQ/jnoXIMFdDpbgaWYQ5rO5d24kT7PvrkXEOZZR9HgvRfe5Xtzzb+7f8CnXMqgB9bmc8934RKsaKm4U7+AQDQ6iQvtdaVccGZmWnGyl19+eemxcGFAwEX8AjRATMfDCR+TzRVOzBZWOh6xd2cGNgCmcwHJbRElgeotEcuvv/471bEfysoNHZN5CRDCuRWtIdUd56UcTD4AFcAIDOkchVNuQFA5AhUdHwjytyZARX8nDp2cjpG9HtCTTw5duE1+lL/nVi+MrA0WU1NTJYKjhx+DA1pvuul7ZUdITDc44JxfHD3nddddW1wku8MN2QDi2oj1xOUGzIAR9+au3HGe8kYMNlh84QtOEry1+5Vf+ZVacUM33eqsBps0bvQbxACu/LzxDW+stePqAwDiMnGb4nvPe95T3KCykZYyxqHanALXaFbaGdqrV6+uNqpM+dHGqpy036GBd/+B0cibQqulcSlofXQknQAQbdk2013z9f/sPv7Fa2KjF27I5EBArt/wVe3nCvj079IRCozcc9EPuqcy6ozn4XfNn3TjpeIp/wkj/vre7uLLe2nNX491rGK/GEDXzG7CpIJTY+HQck+DyXCm9wXg0pi2Q62gkYmPcbPSCZeoC4kAOwWltIi3vOYwrG5hLr+BZxrUHeu3dndEB1n6QjrDiisisl5aM83xR5RPw+xWCJ9PdI8aM1EZM58y73Wb+QnZlib8o/GYhlJlJXvZ1KKbzPsdm7rvJL2Nm7dl892EKzoSXzhOseXNQTmN1q4vxEvtQOPVkBqwtU4IGNetu6s6Mn8u73At/GikxXElfIEW2vJe/NW+8luHJG5bM8u1TlM/9vGn6Eo89U9dqibtKU78DaCb3SD/uBggKC26OaIt3R9Q0pEAlA5tQoH49/nPfb6MxKenpwtQcUy4z3vuuaeA77Yf3Vb2kkQ5optOLF2u0Vfp5h1AAnDyzx+uUbzAZOHCRXUkq3h1fO/lRTmuWnVSPT8Q0RG99loE4oAVyOMidXz+zYSvu3td1QGgUH/yb1BQh028NCllllq5AzSgga7lg7zjNgGqTS0AJ6AmvuJsxQX0zzn7nO6FZ72w3gFASxVxx4zDlZNyFo+qsbv2xo39mdvKB63akwFGnUjbO/lh2K0utSNlhHtUJ3SZjnKgV2WqAxBxsvS2ABJHizbqARM+OGLlUsCbNMXn2aVOhl163/45kWBuKlcVSQodECQzy45e0R2xfGU3OxGgGY2o6KKTg2bCAJFsvGDlSCjIPe8BTAEbMNN4keLye/ga+BUR2jOb3H/PHdjWxX8+Sqv+eAAqaZCV3/w2eUK3B4gOi6yckTWllO++BaBMaGzLrHDxV+HIHg2opODrlEDcm9lp9jdtn0T5S5kE+RJv4kFHxZV0J3PVbHDuBUloySMwL3OcxKt1WGWzIjPTQDGAPEonmQZRoJZXFQbX2MoR54j+h++N/9CIhirvAGs43Rs3z3YbHoluKf5KLxsxai5blqNixp+DcEbtz37236KQ/3I1LmIvEbLaRcoeeJmtxZXgGvjXgVoD1yDXrl0bg+W/SePuOReNUQdrnIK60iFdziK2fFDD9r5ApQpk75kQT8Wlk6VNoQ+djRNojZ9OqT3z41lHe+1rXlurLhiBE9WABtDBpel8gAMtRFWb35rZZDhNXDfbyj9TEgCCDk6+5UEaykJ+cUGt3IrTyztgyI/vJhFMmgB4aQOtd7zjHQUyzGbuzQB15513RcT9UaUnfno2A4p8sAEEQmwI6fsWBWSt1bfyhR/irPjpF5kFKW9ANj09XXkEVFsfjRF4uDTbjy3NJrF33XVnws4UGP71X/91hSOmKie0AzzX2tvX1owzDrMNDsAfPZbjKXv5eWnMcMzEc/Ltn/Kp53D5EaarXHGoBgPvlSnbTuGOyWw4vfDKFStrIMD5GhhMpDki96qrrqpzqR968KECe+VTywGllfjVWUtb+2jx18v80ev2yyG87/ipcJHnwiGp/yNyNICRwwi4NWYvBXzaBeADHq4CO3EAwdzryo2/+gm4mj/3YX885DdwE0+vdMt9ABr1TUbRlqsaJVD0nPcxi8j5BY5q67KLQWaa8yweadPx0RlCDuwv8JrMB5xjGkxaA2OxfAt6RWdYs8kIzuuUbp/XNKQ+zYowzwkH4OgCC6D9DlqNGDDiB3fKZQ10HbLlZ0TxXfVeHGhJnPKFO5Vl6fmEu01FloLUHSCX/iDPOSN78+at3eyRMfMIDXNjuUIHMpHjjOpqeOjP/3mX7zrhvpxGbyt8DVM9c/RXRnWdnNOhPOvsnLQat+Q9bsWorgM0P40zEQ8nTt+Jqg1c3P2rNle+9vBnQH61U59lMelXSOGrTfTvZNVvHQR48wcw0IgztEmDFSNXXPHZ7mMf+/MCA5MPOjtuCvgcu/LYavNEXeAJ7MQlHk4Z2VwVuOjYHBs8+ZMOvy75xnHy48IhKmu72wBblw5vOZ7wxNK2/ld5Ak7cLn2buHBTZphxvNdcfU3ZPZrVlVbpAEM72hwFYNsyYE5sJibLO45R+sCCP5ze8ccflzL4foHjf0VPKn6Dg3KTHwCJDpwtzheN8gQTLlp9UYn66sOA6UKnMjarbGWKOitQTH1wrS0QdaRRV/wwb5IHSxdf/vKXlS2jtLSxdomHwbaJNAPx1SmDK6/8t/rOfOnExSfWoJmhs9KRVrUv7SFpNbffwFgNs4WqRojVxSkUz1RGpEeFnb9r3cZ03DSEVETp4JSIDl7gJaAr74qGobuGC5zmvee3YLAFmBRn6AUPg3AeOeCHQwMmEEA/BU7WPIcjKL1ejoAsYLSDDsALd1NArDLoCsWhYIAToGNOUyY6ec7ypC6zv5VuznfpFuWqfCRNtFSYAQ1q0xprnGfFmfd0gjNJH4BFR9fbWA7SF3Y7PwP/1WvzG/2V54SRBnRL1Cn0/lIm8Vb5FcZzVtdszWUciCarktFgBBXFPDgkz8ONQN1WduJtb474hfvBHTRgJNaIR+PSIN0BnXTaO/EVCA0auPA6KYc2cYqjNU6/cU04hQaew7RWwD38qTx4P5RPNDTX6Gm0FacYzzhKYdDkG1AAFjgpwAHIdX400DMCBCCiQzpIyTORG3fkO0AAnOICaLglyn/x6NRARBkARyBLR8efdNkimmABfECYGIlTBTiAUTwMq9/+9ndEYNhep+cBbJcwBhPG08qVSHnZJy/LCYDfLFs+4aampkoUBd7WSbPfbBwmEKM2kC9iOfqUmXIBljhKnDBbRuAnf9LhX7zKR3tgP3lmlhDiCHGuVtAIY+Bo5YLDZeZjA4zzYrdY7SF10OpZ3Fyrv/qd734z0zn//POrnGvCK37R6lKX4vDMoQXYM3A3iEhHGANi/YvfEqVb+08azT0JYDT6hjgdctCLNDt4BFuec/SRMRcJy33n3cmhTp7eWUAntRDqBhjcq73Wiz4qjwANmOAUq2D6zBUoeiddSVcv7xtzvWAcjYBKKx4Aj6ikNRpwy/GoBYgRHzo6xq0ATph8Ey+/iKrfSbNEbvGE6wFsLjPxVr2YWAG0OICY5RS3h8utDpgwNTkjM4P4YtjdxxG/MynqnYmDmM0a3HR4AKDXN8YfW0bx4GDzKT/6354HDaXKLZVZ5QlIecSVylc4zizGjpVQTDIi+s+kHAJRJbqoI6T08eZ+IC7hAQTOQMPTWF0aa2vIogWMvldjz+/mz903lzDVkFPnAHU4viZqMqXxrdGswc+D3wHQL31xiLPRW/dBuVDiMwC/9qvXVqelG8Ot6fwtLFDTwYGYjqY8AAoTFaBn0gU4ABIgCQyFb8Ao7yZsAI9yxCECxdPDOdmcFvAIJx4Aq5xwgtYqM02xTpl5yakBU6BMddH84sSAKv0iQMXxogm9xPsr/+3KmlUGuPJhUsKqGTQARIBKB4leNNx0401VDmakqQ3o5yzDA9LqVjnKi4FB/tWNZxs24EAB5tpwbNdf/1+hY1N/Il/UVzaHMLjg5BYsmCxala+8PpEzUOLCpaXNoLWBqWdxTES9JD6qHYMfWnGtte3dgl7v2sys+HM1ByybexLAmCAalr4YwsrJUERSEHbUEUu6Y4+MPsgMrpnVneGyRgMuJjl0XB0/s77zLb2PoTCkfxRnLgBY9LXfee13u3rP8QoQ+M3dRxmckJ0UcCq+WNmjMtub2ah6TydHHgWAOe40RnR9+BRozzkmLP2hCvKNA7JIzj6I3faYyuwIMGbdaHGQi4jWEcldEQeKPqApz1XYoac4zoSnBxQl2xmd3aw2/SV6ADWRmsPqFQ3Jj3hcteBaXPmOY9wWPzDRgFAgmWecMuBOsIVpMCwC5sJtzgYRZ5PeaIB9tOUp3g/EUaTrZByOQ0OsBpj0uAY4uCHg0ABQY9V4hXFxAEXDbuDoPT/8SqNvsH2cRLr63dpcxXBgf8RTYJvg1aGUacqMXswkxt///d+XKAqc6eGmp6ergwsDIACXjgZoTMQAIN/QLU/yDYxwfvIBgACXdHVqZQNI5dszm0r7AW7cuKGbmpoqkZhoDnAAJjqkI6wNFNasWdPdn3X61kObXAA8QI0+VvgmkpuZtpmrcOhr4v7Xv/H1mjgC3HfekfXLN91YYinOFagBSyBo8oJxtw0imsiMyyMpyL9LWmbFrSoxAOBQlamtvuRfnRoQ6PbsliMeM/ZAyYoXJkzv+uV3lQ7Tu35j51TGXpwy5ObbQ34P+L7iFOUTGGp3AJGEo178rraW9o8+4jh/rCu04YKcvH/8oLv/wJjANaGr04VGUaXpBoYy+uffcccs6048JuLilvvT8gNM1hcTW3da0ZGebKba7CkuLQT3YASIcnkH0Fzz3zyHPL99L9OYAIWyCy39vT3nexpBbcBQnGPiXL4inGKW3dkVB4Cm8CsuorBJCxxbcWd5nxUqBcizQCe0AtEycEw6wIjB485YOG5/IMBEPBcmaZg8SWMpQ+yMRkUD0DUA0GEWuCnixIODNWAAcukCUXrMTWauE8akEpAUbxpeL24nDNrRkFvpQsNplL5RHqBtuIYaeLY9nPOuF8cUMmGRncsKQo1hPKI9rvFgHKBYc9GaaugTaXSqoG+saZ6DZ2npjOz/KOUBicbJ6eR0Yba/qv30UoatsbsL2xqyRn7eeS+rxi2sb1zzXz+e5J8G5C0daaHPNv4OUXIuDLqZdQAJ+UWvlR46E/9EbB0effLDphCXhjsSP2AUp45IJeAdgBQPkRpoSh/HKQ6gePLJp9ShWMLhCsXx1l98a1Z7XFjgsyNtUTzSFxfgcYgVfaOJBhNCOjowxakRDQto0giafR5gAobADmjJm52G5Mc3wKgcGJ4DS1wkDlI5KHP+pEd/6e6depYn8WoPBg6cphlo3+kmTbKYdEGzzR7MDm/JAGsQetOb3lTHTcjXk3HVBtKWK1yaf3WtpKfMvWsgCxz9RidwrHCDhIjSfisr4Suux/UPvXa/nHD6pzaqmY4AGsAYXZhIjsyGhicdd3R30vLYLG0Li7tgLnsOhrMAijxMuKcTi0BhAI4Gku4FJDq1BPIbYFo1Ut/8TuqZTCiHAK4IGfhnz6L3hz3vlgSgo6AtQ2pBiktEBI4s/stcJn5lCkDRH+K4XKWbzG/Za2BtAmQmgDQWEJtMhMIYbTbH38PxWBM2AcjM/nWLM+O9JNei0LAodyBZXF/8ClPiduJoHOuDGTjM1psl3yn/yTdOs9JPuu7oBNiPBJwj/hTH2LhJ4rk11rNbu1WLctB4TIMsr8w0SPCTDtjAlUaCwwSkB+iA2etzrOXFr7l4nmtonbBFqYHpxDapxW00RTsQwFHhbt729reVLoy/1uEb8Ln7pyFr0ICDH42+yqAldIB3cVcnSHiA9rkrP9d9/BMfr9le3B0dGF0aMMSZAB0gYrkgLgkXBzhxcS70yiPAA2jo5E9+gQuuEFjIi9/84qL4A4QMvs8K18h95jOfKZ0fEGWMfv75L6/Z7ALQhAdIOC3L4oCb+HBh4kCnbcqIsUTpsUgdwilHNNKrmewAVkRhHKRVJICUmE7MtomswUw4G0HY5EGecLy4RWFwhk2UZipD1UD8phpQrgYLoj/ANFisml5V5lk4ceBqQMDlKlMDn4kp9Vs0woQncA3MAFuqssCtdMQJJw5cn/JXvq19NUA0eJRucdDG5LOl6841v56hxX45eKJ/YmAfc3ptCj491RkmLzvnhd1v/u+/0t2/NZMA4bK2hesyK5oUM7+QjiAgIoo4BdE/u4+EcGK5+Bl3FyB6X0SHW03BuXRtIds1m3AzqfjNMZnZns0U1kZk//rGgMeOAM6jAeJazgfI0DpAGZwb8ZNeLpxWNxMON2dJr8yqk5OygcTKhWOZX5kMQxh6wrViHhdkhcuCuRXZRMPGtoknYDoTQNqeCR5HdlpOuCP0zWRp3q4MChMLo99YaCBI3sMZXv5AgO2hRGSUovCrhpA7O8SNEdOXJUcLAqzKpGUuv6rQdya9bNOeLU4CxqG1idE1aOTbzgDjoonu1GNyxkY60a7odxmuK6/JdPCU3CDvBw6MGpKOrsFrQNUQc+c8a4hoHVuUsssAwX9raO5NjGYmYqmXBqwzNTAVjwYtXEp6t/i941oDrh9P8o/lh7gIbnPUIUDmT/7kT6rD0rsBFPcCsahGpqamk17X3fDdG7rv3vDdAgEAAUwAKJDT0RvNgF+eWj7lWVzKyzcgAlSEIYZKy0Bx4403lOhK5/j2t7+93gFgwAuUAI8lbXawIeLek1nrBqzKRRy4tp1hQOhFxYPbU1doAYqaFE5qenq6uD6z6C0skGUehM4Wrw0bxGODCFt4HRaTJCoANMk7/SpdJ0C2gw9OF9AC2aZDBaL8/ec3/7P7+n98vZbrNbWCFUfT01OVHjBVr8qutRd1tCfnO7+tHciDdlftSD7jGlDKC38Gh3IpA847AJpYCig916SNQhr44W//gTGeNc++KwjqyRXED8GjWa1x6vOO607Ifm8PBwh2RI+2LWLtDNEjxO3a/nDUddvm00ZauSBuH2d+D559m//e++q7drz0K+T6rzI3A7gCqFsjpm+OMfY3szRu/YP3dWtLzxjxPWDZOwUHGHqaux0Bz83hwEa2dScftah7ZTapPTVHBxy7ZKw7JgzcgnCJE/SdGZ10p9nRpVGTHpY9HmYyf5LZ1NgcTmZJ32hAaCR535VJEKf5WYUdqEtDpDfbkuCp8HCoS0PnX4XpLLEX8tEzIgVHmYGk2xV6oqrsFkckp2dUMwr8kQQKR9Jtihi/OQBautoAKIBNuRf3mqNdX7wiphXHH9sdnkmhkXDXowGfueTBKIljHBHnUMUn5iflqkElvTbzV40rjYzTQNWFzue7+3Aj1nAbEDYaGijyJzznnTJpcdfvofjL0wH+aXHKhxnnj3/84zWTiwPE5Zhc0JFxurhJQIYTxOF4T4wFNL4DEQDJn2+tE6KXHg44ACzhfadnw+EBSvkFjkRtXCNODHC+8Y1vrL0OzVKLp5UjOqypZrsHRHwThwv4+Q2ElO/VUQdceeWV3Tsya33hqy8szkx+OWUM1MQh/0AK+KHzl9/9y90lj1zSXf4/L+8+c8VnqlzMggsrXmVDrAYyaEevb1bYKBM6Vxx34zCVh8vqlH+LqYyBiH9hcZPKg9WBuuavwHs/6lUc/rX8uMs/Nyy9VPklv8qodl/XovJcoYnR+k4F0o3S9vKzuND+bf3db2DEZKGp7jWpkKAhtO9t6RRJzDZXEwGNJbkWh+Ad6aA7I07vig5vdjJk2QyhucQ3IK/ehO56gTP1QUOed3ncngLcFgC0QcLSXVuz4UzWAY9k2VM6fQxSskBlYbdu047uK2s3dGsfiTiNWJFRtAWUUgP9tTMAtCkmRTse7J53+Fi35rjl3VkrlnYrY8C9NHTa/2EyIvlYZtYByniebXE2l7zMjmTSIABoZ2zlwAgVPxY9QQ8GAUYQMZvM7JJ26B1L2mO5v+TYRd3ncl7Funs25H3EZsbwNqSlA0UfznFrgA9XaQLLhI+ZfUbnOWems6HtSMRzYr0Z6dHoOnGKm+5JHNu7c6aO61Ysj8J5LPEk2rTo4KtBI3GnLsZDQzUMdZYkHl++82W9lwcNWOeqBraHOKrDVqwV+XwsLUx1gNDBH2NjTlwaqXetwRNhd3OJrnE9/O/NVfhkjat441dHaq49myRgoGzywjtcj1lVIGElB10Z8MBJEXsBJyBsIh+gBAjs5IRtYiRRl8MJ6vzu6ACAAAVwAE3lgNvE+QFN+r0PfOADdci9TRDo3wAYLpCfz8aWEocHgNDb6ABYaMaFNoAWH67OnRrCZq2tnomSHPAC3PKHTiIzkFcHwE+e/v4f/r6+A0ADAr/SkBYwR4dyaHQCWfQR68WJ+/YOMDJjkhcgPj09XevRidJot7dj1f1QPRWR+/hT+dHEBvWLllbfvlV8A/Cr95ib5tIc+E9jmy8Xv5uIzX9zfQttv/ZxdzbKYwr8AGH1vr6wBRsLeEzauCD3BUGN2dms7YyIOTsW2Mo765kxSftyw4Q93t/m7DIzG13hsoiuz8nO2psDJo+ksweBoq4b6+5Nh7pzw4PdtfdEhJ49ugeOAFlNtFiOh9WW8S0Bn20PdS8Lxrxl6rDujCzHWzme3WgC4NEQxU+ucHGTaXi2DZvM+6xCTUGC3wDVvNPpHiu+KuBBJfHS8tLuZ61Y0l2a1TT/34N3RXIPsBHxLTdEm/Nl2FzGQDs9KIAXLhHwjSY9ulU86OSK5OGYPAYkRwOI4Vi7rRGtdz3Qvf7EzPyddEy43LwLnSMTUQGkPOYyYTUzGi4lZU96H0kdcq1x1Y/9/CMfLY8VRPYHzvv2fRjEGii669CtLPx2acQaKVATDl3NT4t7/v5EbSdhU0HzI794Ks7cK7+JyHZZ9F32HwR+TdRF29rMTOPeAJxNUAEi0RVQ2HwAAJp8AFzWPne3d93U1FRdAAMAAhFO2i7lAhCABJABJPINnNgnCsP2kI2hFRz2VyzuLwOa2eFPfvKTlSbQaeGUGaAVv7v3RHxx2O7/05/5dIm1xOFGt6JJEZcqAXB5jwYrfICiuJQHAHvnu97ZTa+ajr7xm9EP9rPf7B3RJT+A3V3agFt5yYcZeoAH6C1n5EeexY1+4Vatil1hJErhXMef0E/utLISZn/dsF/Pw79bfNJsrn33TVloc1y71/vmOffHevbQywN5lDBCVJzLCFWgmIqTaM/X9R3zgOLPbPJIgPGwmAEtmMkWSjkKYFtWo6T5Z87D2bXbux/cdW8PLiVvJ+OhISWWlhpwYWRtA4atD2YbpGXda05Z0Z12RA7qDsBk3ioNJfxfAAWnNRKRx+TuRADeIVNZ4h8ffJkJ3rvbrfDjrRW2+7GJ/6ITVsR2LJvLfveW6BXD6S1PfCqKErNMeVRW3o2Gm6xllaG7RjzcY2gLl9sB+9grdg8kr1s3dueeeEz3ihec1B135JJucU4LXJzRa1HyvSB3qoDweeHkEyyj6FPp6O/k3+oandVzuw93Zs9VLjor1+4YxfZcH57cnyZK4c4LnI2D+Vei0iCq6752XYmagIxo22aL7ZqN2wFcLhMmAPHSD15awMUkBXfz3/7gv3VXXXVVgQLObHp6urbfx51p70DCTjKAkBE0QMAZARFGyXR/OFaGz+973/uqjHBglt853IpYKx+O/ATexHagjTsUB6fslKGy1d/a7LG8NB2p4wimp1f15Z+ur07a4AD8zAyjywqSFqd40UvEXb16dc1WmzABsDhddON0W72iSxwmgIDhi899cQy7z+wuvODCkgiuu+7a4l7RSYSWhxuiqz3ppFVVxrYuO+XUU+q59Zsi5qfkzyEDxpYfmVRxkFhnVOAuDVYFHajD/TDZWWhd8kjOqg3HNRFg3BWOiDh654acYXFnwGZHRNNMgOCcasKFKQ5k2B5Oki3ikYu6N6w6rjslu9AsnX2wOyLAtzRxjMSuqQfGjIipRMA4mc5ldyC7fu9ImuEx9kq+fLvklXv8fSR7Nz4/G02Mv+DkMHs7u//+/XXd3APh+CaWJV+ZvaY7DJm1ow4QLHVFwKwZsM+G9l0BxhmidTiWR+/vVh27rFtz5sndqc89uls2AeR35cTCbEqaK3MgpRKoiZfQVDt445qfItfyr8O0TtveaQ/96B1RcKbnHL1z1U5Aoa9XSRw4cdKajyPFxi4OWKMFULLR08lxhUARh2WmVgcFZDgnHE8vPh/VrVmzpmMYDBA5+aoddAb1K47SJx65rCYm7rnn3uK6AABQBEDs/IigAMWsMXvD62IWs337tqKBH5wbbg0YW3ttM1rL+YjDygf9nPJDQ9GRZ5yfd7hea5n5Q8/qi1ZXWgDWrK9y8a2Fc/Tp1qyZ9k7eAK449FdmSdotVQfalAdOllkQ06R7k0erVQA2lQNgFI88OknQIAQoAfTatWvndaniUS5m/N+UvR6VuQkbXGipIlI/VbYHMzJWKR26P4cOGIMHDQwqf2mcGmoDQwVPpN6bU4H7clRrC8MFTUbMKJu/UYammXkLWDqT+eZsEX/DQwGNOlgKsCS2dMKOzg0gbAoILdjRvet5J3cvec7SbnlOc56MicvhS2JKkQbmTJhxSJiZaMbQBYiAsTpcwJFIWraDe6aygUArg8ffx9NJR5PeKdkh563nvqBbHJD8u5uyieaD61JQATo6x+hMwzLkSmaJ9K7ks+wzZ8Ptbrk7V8Ax6okLT35Ot/rMk7rny0s4yCVpoEcEtxfHXGdJdJQW14xnIKL08He0dJ57pv1QvFW//umsPQj2nVnnVjY6hnvxLul8EaYLvHw/FK70RPI4cC0d8btuzEoO4inxTke1VEwdsV08Nxum2mxBZ8Yd2rDBJIhOz4/8AE+ieAODJjoycaE/NEnijusy6SKe10bHZ8/BNvNrA4gLLnhVcZa4SytZ7G04nvZm1yF6T5yonWKAFdqArHfSRYu8+Aa40GcpoPzgPB96aFOBEtG2tcc2E+83EFQPF6+5uGwM5dFv8brEK/7GfbMumJqeKn0qEx6cnzL4whe/UPtX0skCY+GUHRrNuJuskb/i3FMf/IiXesImEp5xx8C6AbPnH9Mvt8r8X3BPrztELm1Sxyg3/Lyf0au4fblUX4mFjiFthtOj2UORu2vT1u4H68NR2QgXZ8kBRnFazrcjALn9oe5VOejqvOj6js1O3kfsivI3OLQoIBMpN6aOmUiJKN32hcxcUUTRvrMDqppEibi0L9fy0Boav565Wl6dkXpmy2x3Wuwsl5w93R0fvdU1t9zRffGu7JjSZpxNyLBrpIO0s46df3GQO+/tjhnJmbrPyZkemf0/9+Tju+OPiPlMZvqXhSNeGtqdbw0YF+beJo1USXimlEVPRxHzFPwBRByREjjo0ERW3JBGr+PuDEfC1c7dA9BpHbGVU3k4kD9Jfh4Mcdv5rT7Q43777Wur84qaLtDEAACjnwMyGzdsLHHX8al2lJEHtLlwfMx7nIsMSLyjO8Rd4qQAIvrFg5OzL6Lw38nB8UADB0WMJ2bb+WXVSatC02gdWm89tskdl/Kamprq3vve93ZTz5uqFS7SBrr84Xj9NqvLNMYaaeAEcKR/993rIgKfVXlX7+gEnlUOAXeDAq4QaCsrgN/abK0oybsaDHIXtr4ZpxO39wDO2TnMh9pAJ45enD8h3O9EccV27DaTbjZaPNqACR+z4crHcQri9Fu+DTLmI56RwKgQWyH/WLvWZ1JR88D5Yx6e+EUPd0SuRGT1CvE3wcIPdnc+uKW7pbjFiNGAMYWeGsk9gGIGN2Js2M3u/OgWTyBpx3Zx8YJwWDGN6Xe6DoeYSq+wiVfcaTI9veH0SkeZhrwv+ofz7rkBRbtnoVKij/1erp2ZbV62YLI776Tl3cqjF3UvuHd59/277+1+eP+m7t5sG3Z7zn+xOKboD/gfk8mZc5dmf75jT+9OXJl9CrPb97KQuTD60cMDiK5kr1sccF+YjjhRXHVeoLjo7p/z4ilzrf51IJ2GiAQwiIq4AkDinQ7h33AnaOY9OtGBuhZHlf0gjaqvNBLrZHFrxFX06KQ4Gh0d5+L7K1/1yhJBm3ipw+N45IHpysc+9rHi6nBjwI4zgQCo+JU3Zj86OsCln3PhoEywENWBpaNEbfcFLF1mhekz2QEC67YRBLGTzs6gIhxRnN0le0Y0LT9yeYE6sVY+pI8WZ3en2iuMskYbR4WhbFoZG5z4U18FglEZ8ZOqmc+femtxVL0p11x33HFnlQXagB56FqQ946q/8Pkv9McYRFfLBMlKGHRRPRCzieM4XCAtz0BV/rWZnyb31FKTQm7AoJHSM+7NlT8Auhdn8wpw4z8Awz+as9iWyr13c3Ya3hIkGctUcy35y8s06hJJ0+id7nf2kVmbesySbmXEzsmA1OHJ+YSZ9CgTxwMoNt0dYfvHvCVxV6vRctKYKp48p+3s1bVOWB6KTDlCcw+SM+n020OTd5MZHQ+LydFEOLvDjhntnptGfs7U4m59RJH7c270w1ti77k9AJPNIHIicg7ZWpJOEAA8LLrDgGCgNZNC2eg0+tPDQ3s/0RKgzEy02fSRcElzJVYOyqGVxV6pP/gPOp1OxuncH/7whwdK9wxgIUMnwkkAA51LZ2y2en0x76Nw94e8lPlwx28dGU1EwAdiKqUDAyogjVM84wVnZBe6ZUUv4MHNCAc01BMxtM00P//5LyiAp1sz2QAAAQFgYOZiaZ0NVddG/KUfbDPVOOULXnVBd+mHLq0wNqvYaremOCAtLpMvRFH00H3aIVx5cTXQhB4cpJ26r7rqqhKxv3rtVwvU5YXe1OQLv5sziVNgqJ/EyU+yUvmpfOW3fHk/X175XvapqQgqDvFUux34EZ7f9m5hBgdADOjcDTj0ouoUAE5NTwXIX5v89rabBhbgKE/fDhctD8oLECsfZWI/xZ8m99QC45PN6b76RnRvIzqeDo+rC4ABqkim3b2bYt6yPZyhHW8KyIx8OmnAEceYZX7TS5d0K2KruDBzy4tjrLgwSjjqu7GsxJjLZAUj8ZogKlDM0raE1qbCN6RBADSNJS/214U2DYmrBhXReFdMc3Zl9J8IgB1GD5gReSyi/lhMcqLOyTrnmD1EUahPTMT+cjyH50zkWhRxemdAcGY8YBnKgqcBSIAYfymEydA/ET3VGE4mZTOXBjqbcppLnjIchQD33GToKXY60PR09sOLeORZZ3FVB0VDUaJs+4HD3Xd+m58DIXF+1n3QiVWVFJJ6AaNOjCvRcXVQ+jBgeVZEz9WrVxcoooEfdDRgwiGaNAFAt932o6ITfThO4IebA0oGgyOWHpF4NxfHCIDNcAOp059/ek1g0N3hTuWXkwZw3LBrQy3D45/u0wYIigk9/AB2Ry7QZ4qXKE2EXxswxXk1naI8OWzLDLgBCMBxpX9V8so4NMgjbrjp+3DvLb/8NNe4TeVhMgtNwr/ila+oowQuu+yyGjhwlrhW26/hAJU1gD47ZUs3iTOkQ8Vps2skQjuWYDJcpnXUZumF0zaaJNHoaWWFpqIj9KGx5W24bTW6D8X9qQXGKsu+oNskzN6Ibh1mb99rhjkAp7PvIiKHK8LXbYuZy4Zs519Ixvqolv5Fl0WnBvm4eFy5JKMcu8SsSDGRMhlgwSmyWbR0biQiq/XFulJzDUYAcJ1N0yfSPv/4vQXIl/n89NkvPd+udBKG1qORk0ei61mYXYdA8MJwfwuyLjxTSZmcjn1aQD0QGl4xBufMb9K+t2VDjm1pSPLs3B26Vsv9gKxrNHmlH3Uqo7LBq0Z4iu9eBSDckwL2+H+yrjViDbc9i2MY8IBVudz4G2FgGTfsp148yT/iEkfFkyibaC290q2FsyPCTU1NFZdHNwdIgB5go4sUFgcINMzM6nzAAfjxbxLFMxHaHRgARECF8yOW28iXaEisbukCO3pHnV67aPGKGwDQEdJPcvMdPjTIQ4FYwgEbs784LNyq30T2FgcwZVgNeL79rW93r3ntayotoKguijtPfvyWT5yhsJVe6sJzlV2jIWVY4RKGH5cyVk4nn5QJzBe/pDasRb/BhvOs/MSFm8YJGiBx4kR+XDpgp2Kgg/RszTWQ58+uQI5iUGfSma/D0MtJXxrqZ3ggrCbVN6Pydyj+PLXAOEShEeeJwHHI+4899nAl92wKM6oHLAy87jtSaWU9nkIrrSPPpUMBB55Hs1dtwCTAyBicacCIpXj0kfE3Ug1WUWi4rt6pDvs/cO1d/+vJ/x3PskCrZcYyMTDGBKfMcQJoqWzrzEdihuRYWnMtO3NZbYPeiQD9WCzji/7MCI1V42Qnms6bazQNqLpbGgtOscRozwOK47137n37evLEPw1CtE7dOswwUOLKcFXEYmKuzoV7IVo732V6arp76eA8Y51O0eGCxMHxTy/pMkPcHDB0zrP1wjMRC+nT6t1LX1rpsY1su8y0BiTdprtDF/BULwYI3BgwkodmakT8dXyCDVqFAzBMXQAVcMRNEmVtKfaGN7yxwIaR9zErjikODlBx0i09Yxq0dKQBwAA1Llb5+d0GNL/nyzTlUP9yL44u9AJlIK2MAB5RGUcrDmZQfjtKAee6Zk22SwuNBhdxuqP713/912tQ+maMyZWbTWuBovLm0CLPyke66qbVT3nIn0Znq6v2/mDvT+pc6YNNbFC8fSE/6b9JnZ4x3J7TAVMjAYS57r6oEL9y6/qY62QtsW3NEm+5VFBKNiJ27BdjsnNhZnPPXh6OLZzARDiviYjQYxllzWw7zXBkIHYmRItBEuokgF7J1cqfA83DeBpkJsB7sxloLubEG4gLF5n0u5hYhGfMNEreZZfrkf4aDWCOBMDHYpuZvh2xebAqJ/exgDtOkVqh8mAwkGdcgUJQFK64ytdg5O3fPMP+Kk4VJr+DZ79xHrip29beVh2XCQxuD1eH09FhcYC4sQ0bslQ0genNABLwAVD84epuvfWHAaUbCnxwOxxxuufm1tWZIr/4VufUHF4rZMR98cWvySzwS4uG6vAqJjQWOIU+HRsANFBCL9BqoFRAGX9Lj1haM9HAw05Hm7KpCFCVF+AHsMUPiOWnzqMJh2xDihY37owfgGyQ4A8na9DgGvjhUuVdvMpQWTSaGqgC6LbmWpxUDWgxU282mr7VwVi4WGZBaBCG7WLT20oX8OEY5cWMN66xyin0oAOY4xyFb1yrMmn6ae+fCnD8iQJjlf4B/qn+7U9Wv9Q+gwouwuJ9Ya+uvTWHgt+TfSDt+Vi9Iq0vDayWAwLGrDte/dwl3QuPTAMMtzie0XM8nWUcuAQQxzISgaZo5/CiAScCtWbS9zMPPWBq1QfmSkcDDysP6MuFoS0AT+qxkUw3Lo4QLWPhIEr0ivkNK6SQWmZFxfGmofaAiKr+MvucQbXAvOj2Jy7tekB7np/JwJh8Nq5BR+IauAwDAUDEnQAtncqzDmplx/XXf6cMl2/5wS3RPz5YnZYejqMncxCYDRM4nVPHBaImS8w6AyHiuY5OpKVzc6AX0bfaUMI0IBSHZzQ0uuud9hun9UkDhwSc/QYM0iT6r8yZM9JrIjZgcVwBetssr52BHg6A4h4bDdJzVvO//uunC9hsessWEhg5x0aaHADk2m9pcwWeAW40UyEYGITHfePG6QrtEuR8FZwkWtyVMx0q8GxqAEBJzGZ6dMftd1TZtXDAOIlV/qWlHIqTDp2KqDhXBOVZffMzXI4+HYxL6k8jRxxPQQDGLPSIWBpj0dj9jaTh1CQLm0UVqzGXmKy3JH9BjPFMUNReiOE6cYBEzbmyd0uBEnPz3qRGlRZBDMsAACDxSURBVLTSjiib4i5RutfVHaJykoa2V4jVfkSEiXjNdjIpl5WOPBKpZ+OP6mA0GQfcaR0JClErkj4PabOi4wa3euZDgdU3Ef8sueS3OrMiSwEwf3nd615fnfdHWaUBvHRqgFH7L6bdAFBhHHHwpau+VLo0a3txjIyvAQAOiG4RYLAHtCqEmEqnptMDqLVrby/O7Zfe+kul15SOMAym0dLoUh0NvFUtMbJ17gLQ1LV3XAN76dKVXpgDrs455+wSZ23ttX3X9u7e++6tJY/EWBsC8/etb3+r7CdtGksHimP+8pe/Ej3frTUgGBTQfPGai2viB4DhFKUPhCUPbNHlN9qBqIEACAJD250JIy7rzKempuodMbryG3WQdzbg5Uc5WXfOGWiUP9tRorh0Tdjg0NUHRuaB9TlELXkTn2WMNas+UAfwL40G4BXpIfjzEwNGI81BOe0jl3GLBmJcgRhJ884GF6mxXGTVpOO3kSVcVkFFGhMObCRgl7aWe4MVYYOb4hN54uxTSHh+jIxFdwo+vvw9UFcqxZR2rfxLNBp8mljFqPmPpqLHrHQZFBMcH4tp0c6sf46hT+gDjpWhkJDQSG0UDeUpnyoO5VL2l8qifkT8OAj6pfbT7HQQF86idZIq47QL73WoCy+4oLv8U5eXeYvJDoBAnKQrAwhmR0/KxIKJAJ3d8jf1gRsi0jHLEY4/OjbAAyxxYbgi73X8rZl0eNGLzqlZVyKtNICnjSNMxPDTxMNqX9raAAR1cvQWeGpuVc+D71WPmnrPIRFf0WSWGAdMb4ebJM7a7usX3vQLBYaM0wER7s2AQOyWDoBzyS+A+vJVX64lhXSpRY8yTbtUni7ia+NegSSxH4ApBw74m2VmeK7MiNDox+nhEhnIA2VctTyKoy0N/NCHPlRgq8DRKi/2g6SnbIsF0Onsb2oMRxM0QJwfaAZ9p4g5yD8/MVG6ICas2oH+60s4jSLc0o4UgPXLseXvNsxMdNf+8J7uBjrGBdH7ZIQpYAyQZNfUzMxElM4BVBc9Z3H3gmUBn+gUJ+av6OvSIG0SkeaYogyIFOwSn9Ro8YypgIBwkM2ehgdKv03DbdCN9uw5knXXM3XhS6UF3MeAe6WftMe2hovNMZbdI/kaU5M8jc1lsmjQWHPLY984QlRBXm6PuRosMjjEZrKPM/CbvD5TnU7CAUN15K7ztfrC9ThAytk1Jkl0XB0TuNiEFTjiZBwlgPtrHZ4/8dRkwgB4AABABKwAhI0hEDDZwiwFVykMgDADe+211xbQive45x5X6dGtARs0oLH/nyfAmH9cA/jHP7ffdha/8nNX9iJo8iBO6QIeXCpdHo7WtTamPejBNTo/xgQJAMThEWU5hucAnsjrXuUXUAP8nN8cLq5cfgJWagPmS8IBfXlSXtJir4jzw3H/8R//cXYq/3RxmeJCr/DopZLAETo4y0ofQC2M3YwYhYtPvXk3FjHbAGCwqUGild+gDfTEHdzfdNWfnDuYWenaMiudnCZQtQCa2YjL21IYW4iWJiHMNHuuAgoIWD6SGbdMuwVUNLgIowMwYSWCh2qNssIIq5DBjFu5hCN717u+YQw+PKmbdMxKI00qvTYTD9rzoTpYkDBf2sWWzdesZJmL6DYSo/YAs65e5BhkePXGi/xHXb3ymmtA6N6e+y/PuL8NGBVCA8UqAoXkf+5A0AqXLTmRzx6HttPSuaampkpfR99F16VT6qQ2OTVpU2CVjkxsxA3y9/KXnx9AObM4yG9kVtWRA0RBG0fgJpn2AFfcmfhwipzTD9V1i7NeqrQB3VWJ+QkUW56a39ZWgQm38f6NpRulH8XJShc4yY/wDL+POuroHLp1VoEfcOHHRBNwp6MUroGTOP/9i/9eYjFD8wLGEalG/M9Ai44C8tyFceGS5dk6dN/k03ugjIuV91NP6W0bcY24vQvCuZskorfFmQNxSx4NHAYo8Zx5xpndipX9Od7SRbuBSLl+LXaQ09NTlRYa1aFya+UlHwfrfmIc48ESOoLzcV5zwMsqEmY09G937Bzprsys9Np7shHDZFa+ADDQk5naMonZljXUE7Pda49b2p28tGf/J8Mxmt2dSDxMZEpk1hDzXACSNNhLls1kgSVg0XoP3IFlIvNYKnI8QDYegJ6I6DwesHNGB3jE0TnWoS6/ayOJzJx30U3hFitfOky7QlaRBBL7q0Ahz/Wr4hJnD6gHTv3TKOSgmnSS4QvX46IvXDW9qsQ2IKLDAUgdnKimDeiUwtovsHEma9asqc0dcIY4RDPDOvJXr/lqVn1cUeIfzqhN5pR4l2LDjQIgIGl1DQ6qtikLLQ0g+W0gtK+S7iGqzyDgI26aYAGMwIHR9Pvf//7uDa9/Q29wHhCy1Zd12rhDeXzggX47NDP1dsQhtgI1gwY97C239OugcZKNU5Su/41ewKd8cIqWKBpkcMr0jHS2VQax+ihVRBqicrRLjzTQYGNe+kbgyK984GhxjvSW4mgcuaWPBiKcu/pxuJYNfQGvMuVX+aFtmMPeVznuz7efKMe4PwTt3Y8GAfT6hlHHKUTE9Wa8QDNiaEa11NjAT+6eU2DcrsG9fjz752euBBqo0Jk5WpT4CPSmpqZrswcdDYdFP0cExNmwTcRRCQMEcZEZ1+pEwTvvvKvEPuDgG1FQp8Ux0fsBCaCrMxMzyzh8R3ZBijlKA0HivUk3AOTdvhwg4po/YCCtt73tbXUk6gnHn1CHlQF9JmmvyD9cH1HUsQi4M/aDgMh7YGM5JMAhnhYn96oLqlzYTdIntplhekWgUxNA+JOUxyNbHqkt0v7wD/9w3rZTGRoIxEWvSlS+5qvXlCh9yZsu6d75zncWx2pw2hSRWXle+sFLa/b+ox/9aMWnzOgRlSdwRBsABJ7EexMz0vl81mSXYX1m0pXJ/Cz1vgrxSXx7GgGjXIX7acCYX2Hwo5vL2mHA2HRz1cD6RsRHgWkaVQ+h+fms+5ktAR27uLN0bJ3J4e0XrV6dnaxfUfo34OXavHlLgaeJivvvX1Bc5u2ZadZpgZHOj2s0k7p+/Ybun//5n8pukBgIQHCOVnCYWLDhrLSmp6cr/H3r7+uAGFDE1lMvAT0du4He3irIBJAmLQ2gY5Z79UWra1kjjhGYEEMBrXziVN/61reWjvHzn/t8ATrR9lOf+lRxzIDFIIBeNAAsnCIgxNXaiceAAmiBYf1LXvjdkjIC+NKlV8Tt4SQNLvItLrpMNHzn+u/UmdK4beoJKonaBT0Z9e4FWYf+kY98pOK55pprKl6mTlYPtckZ+l/lKz4z4uoGUNZijdDTBo69ld2Tff/0AcZkPrl/DBhTQQREersJnGJdABIY8usWbrEu0ypePOt+Zksg1V+de9CxmzgIAICSCRMXboTOi/2fSQsAR1zTAZ3YZz10md5ER6cz0ns973kndn/0R39U3I3wNprAkQlHhCUeAixHF9DxNX2dmVUAhpZxOvIncskD/4CxOLg8O3URFwhU5Q+Q4fa45s/mFDjX1RkEmCI5X5roigsjhgMY3C4g1E1aOOKp9OSzLd0scE7cJrJskEscxiHSJ5o9NnFCrwqkfQOa9IfowwH6zp9vZrMBoTLCCf76//nrVcaOcrXxBNHeAKAeALgy5U+4ZuhuEECTf030r8wf5J/9qI2DTOGQBU+NpaLqaNXEmV+lr6OzK46xxGnAOADD8tGHAag2oq0hOn+fdT97JQB8uBJbAUjaAw5Ip3Jv33Ry3A4x+4yxM+p9gUPakzCWz7kDDVyM+BwkD1ycDW3mFGcjPXG8613vql1xvve97wccdhWI6ezCASAOaPDfftfLx/2RJnCVpvB+t/XE6MOJOamS861xn5XvZE+emAudetqpddaLTXJxXZWHgD6Q9Cysf8LRt4pXemirslNaKT/gdOaZZyTcltqYlrj70IMP1bZq//qv/zrP6eGuxWtGnI6RigHXR78rPgMJHa9vtmB73/vfV/rbf/zHfyzQlGf5A9wAkj+gK311UPnTzfPvULqnFzAm86q+b8Z9MRCugWNaQv+h8K/58GPQ+Krg2vtDWYTPxvV0KYHq9On4NkX1rLMDEB3UZAQAAJQFAHmvQ2psgBNIFKeXdtTClU1f4iFOWstscwU6MX5NaNy/8f4CRRwjsZUDoNJsQCOtAmftdx+uwDlpFVDgCBsYJJi8NC5UfJy8tLy5uzi0Apnp6elu/X3rix5crNl3HBmHfvnGebZw7o0GIOQ3sRu3aoKkHWwFqIjHv//7v19bkb35zW+ujTpM0DBdAmxA0Qy1CRk7AaHJJJCZ/be/7e01mBhUbGWGI8d525zDvgDEaPmVzwLwiP0GiKoTRB8i97QBxjJRUSF9nVX2jflWhDj7KjX12BW9Te8AoxbEp+dn3c9qCVRH0g7C7ehE1SwAQJyOVgAwaCKeXeUv3+tb7jrgMJcGpBqngnuhc6RXAyxTU1MlXh591NEVP3GxuLCk1bggtHD8RzhOG23ttl7v+U+88F80J3wDCGGH6W1ptLxJu+kx+W1cl+9A28FUnl0c2qgPKlzKq4BnUCYVZ77jEuWvymdAunQNEpYF/sEf/EFxfQaDV7/61cXxMXi3+sakz60Lby1QxM16R4UhvUsvvbR797vfXWZA27OWezb6WGfhLFjQbzKMFuUuH81UTX3m5yFzTx9gTKUoisp8CqF+BSXTHHr9IcTMLjQZ5sIk5rnECv7zuwbYweiXV8MNoEpy0BHyZfeC9fOxJHf/9uyvp1UJNLBDtI6F+3G1Dl9AGHCjSysdnSaU3yVwEFO41jzSJgASMZNozRXopP0V5xZbsunp6eJudPQGHNISZ6NlNyBscVdsP/6ntVlc6rwb0FjxaKfz7bhv4+23NAEJZw9E+ebad/kYBuZ6r2clnJnpRuduZSUvVTi6SK8KQKMw9J50gY5z/R9/+T/qHO/Vq1eXORGbRxtX2F+S6oGZD3H7TW96U81km+UHkPS5zr4hhhO/cYpA97Alh/V5SXZqkEt6rUwrU4foz9MIGFW2SlChGm0PiqSKnTP5AxRdZqcteq7Kz/usp05rrZUlArdK7pvJISrFZ6N5WpWAjt+AphHuN1ffcGT51wBn+Bs/87/jQ2flhBsGDr8b8Db/e4qzAu/nn5bGsPf59jygv6X1eL9ttYr3zc887TrGkPMd8JdLsTRQ9buFben2ntIfA5RcDTjRpVrO9453vqNbtHhR9zd/8zclFpuxBpBTU1M1qXXeeS/r3vLmt9SuOjhKorbZf6K++CsPgDYTONPT07unHZKLltD3eFoaTQdzH28ZPZhIDknYIdDaU3ztaAPN13iHQYylVffozuxLl6uOGWUAjVtMVWY4ybuM5s6TDnraiae25so3zUChK1KVPpJKBbQp6bwbckM/PQ79HPL07OOzJZASeIL2q509kxsQrq242WQTqOLycIK//K5frhnlv/iLvyix2ow9HSPcYUvKvvHlL3t5hQWmr3zlK0vviVPkgHeBbRidBuT14Sn+89PDMUIdWLUX14OSURmohUuEjmHlN2/Ldkvb82N0aDlgxTUEjAHJScbgqbxyiQAwFjbGbz/yeOg/7/Z3+PU+6NstzLM/fvZKQNvZV/vYU9t6BpUSFULPbIQfCYiV7jPgx4jcbLNZZDP+jOHpIBmbM+sxg09navs/574IC1SFb4D4v4J5++kBxidqJFDMbGKwDWMX87ICyU1btnd3bYn9VfZprP0XC/siTtMtzuR9OMaTM+osyb6GCni3QgZ67Z1I99myn4jAZ78/WwI/uyXQxF7MBb2qq3SX4WR8M/vMTMcMuBnnK664okDR0RB0hYzIOWBILMcdmlnnTHg9FeJyRb6XP08fYARaUTzvSoHbQQdA2khi46bN3bqHcxiW3XRwjXSMhO0SpekXd3QnLF7YHbHIWuPHgLABYok49eXZP8+WwLMlcKAlAMxqoil6/uIWg5DATD/zjZ6QHSUQtIsP209mOECyheWX6Q4/jevU7YGtiZ6fJDj+9ADjvsSQqi0ewq5nRLHLTLCxe/Dhnd3td9+XowKjR8xRADaYKFBs/nGMAcoVhwUYA445Uqq+0Cn2ekXsZ70KkO6BAN/y2pfmbeD72duzJbB7Ceyh+ezm4RneiJrYK89m9RvX5z3nd6mv0puY5zgKtoEmURoYVl9LP2wb45ZxeTaf3hW9WTteoSL7CfzJfq9PVKM/ASr2Jwl0GjlSwM3dse6e7vu33ZECzbs6aDzAaBaaa5MvAcajFi/oluRo1bm5rX1lDEYxFVNe91IGSqZd5fHZP8+WwAGWQHE7T5OudiBZhCMN6Irjo3MM2HkHKN35qf6bcqCTbHrI8pfO3ewsWx8nSjfD9Z90+e3GMc7bRe+xZMzgPs6p6HrZanzYR3s3CEPnl81ZMcV9oPgtYMpIUveB/m8epBIeuLnK5W6hfbbctm3h+jB//3Hb+u7LGyJGTxyVbzjCuALGcJC7Hg2DmHNglmSR+zFZS5q9GieSfB05mhGqrB+zEW3R8/+3d64/dlVVAF/3OXemnem0nT5op6WBwfCQNBCCkRgT4jt+1Ohn/zL9bKKJ+kn8IAkiJBCTQmsEJYCWvqClnQed153r77fOPbd32k4bYjHK7N2ee87ZZ7/Omrm/WXuvtfcef/FsNj/EsVeputu3vU9WVj6KBLZLIH9X8le7+gXaLUM16fiudsjXRNegJspKgpAxr1ojTK0QsQjA7BrzXa+Bqpy8Noyc6IWns1r83o+4sF3eX9TdCIz+GJNPO9Vkm+/GhmwwD6rfgyp3pjNuLMOAbi3jfRWI0OzSQmzX1zSMGVq5h+WlgKFYwpTHxsNT1lKmM828TdK/e/4quwNeipVVtUU2G2JBV/0VKxcdYNlfxEJzNZ6ZeySmjh4nF4PBpJpA49RltYHQ86CNY62kLhKNheoXu47clnIsVbksEhhKgF+V3QLD8Z+53yIBaKghVmuJ+d3ma1rLpX5e5/e+zpv5LYvvvBpl3v+XoWidIzBmA/ioEeD9eHBLAbdDHg+mFRWZZ8iMvB5F3AJJ5SdIdbwwr81RzVhx1RtXyPZfrnANuOSb3WNV6swHxDC7kAIlkLHE8yuDePlvF+J351mcNtj60VkuQtfNsDS8iED9ebosvnnkQCxMsb1jn240PzgZ60c2kcuq/XU761gelFAkUCTwQCWQgHygJX5xhY3AWKPBqu6GB3etc7+SHYPPxgvJUm5l0NiR7jQ7FGBKgZjgMm2631RFOsl+C+g1UKk/hX9/OHs5fvnWhzQIKLY4XNnbymWif2S6UxhkOOND9cSJozHfXo3JzZsYrcdgmxVV2fKvXX1PVAlFAkUCu1sCIzCOi2Eb3+oHkOs2hTGf1Gk939YpzZg6ey7bLxuJcGe+PHNtb5sRhAqIqMw5DsFTGbfpQB/Acmn+NdRqbcpvvL8Uv37t7fjwIlsWTMzxHBKqKLbMYaDAtZuc2BLy2Il45OCe2LvFwqOMJ7aAbZNyUhMFvvkXzIaYyzYNr6uY8lkkUCTwoCSQfbR7fL9u9eEeVI3/WTl3gBE+3DWIqp3AaJ4KijWc7izCrQVqhU7eWZZd52aDZYM0sECmLfwU7WY7dc9hRjcXdVK/Rucl7s9+tB6/ef1cvPYhRpUBWuEWXWYmuWdhdqM1puiis/gJ2mI3nl84EQc7W7Fnczn2TEzhNKqbT7X3h3BMt51ENHXe44d259uUmCKBIoHPJQG+X/9r8LtX+7eBcdwSe3umFoYQ5xvfLQiz8SlB3t8etgBRH+3Onm61VBhGlLQgC0UOyOQWoltQ0LUgWMozBq5wTFHLGJn/9N71+MUr5+Kls39n/BBSsndGZbEmQZttUvvqk8DxJtBku9GfPnwqnjsyFdNojlq1Oizfrje9A7pqja0ajBIxX3ynPwm3v0m5LxIoEviyS2AExp2gmNog7Oi43BGQuTP4d0CokfIe/dEtaNdvuLxRrSEyLigYzZO6JJXo99ScSI2xgSboyOHFqyvxxpmz8fM3L8bL/6QN6zQZYOIFytk6zWcccNyiC726FC/OT8d3njgeJ1ufRYfHbZZVEoTZjb4NitWAMIkI2ZS8Kh9FAkUCu1kCCcYKisCB/5tOuSOoWdk97tOnFXwDoOaikJWpnRjSJki4qOFp5EhbNMFYqLrS5rdLbbccK3RO4yMRafvEr6PZbbK1qfi9cGMQ5z74KN58+6/x5zPn4vWr6JqTp/BLxF9xbdkNemkk0/zSBYgcrqKzcjW6sxPxzacX4tShfdEdLMZUe4JtUklKmR00xuxCU59ATCgmz9FYM2xv8zCynIoEigR2mQTc4jhD3+6sZCQIOoFoXKVRAUy6wQ2OdKUBNBlInlDkxnOycIwtxo0H7zGBoBHSncWlBt94QNmITQpdRqO8xtS+f11jq8nL1+MtoPjqOx/EmQtXaAwVThwiNyB0OSKtzi7EyCoc0RN5QPHGJei3Hj/+6qPxzMJ87G2uRpfxxh5A73Um2AkNrREw1u9TN1P4135V9bPxNpfrIoEigd0ngVtd6WE/0u6mAHO+4hZxa2xW4xJBH1xein5nFpgRkoAVDL1OP0Rg13ACc+qXxJnGZ0PYNjCyNIYO225yb9fWzYFWN/o4aa/HJ0DxwqdL8Y8r1+MvHDcWGTPUR6i5H00REA504KarnKtwAEoNLaqCW2iPV94n7XJ8/9kn4xuPP8y+El2gjotPjw1z6HZPd9FPOyzTnq3zBe4WalTe7VmJKxIoEthNEhiBMUEFyHIyuDijWwvqYoltEX//0kvxq1fOxo3ph2GdXWHSwREBKvhkakPDBitjCEZUwjyEYw3ILmB0TcSW5QJR+rSpKS6y+vZljkGfOBaHyPHCAc1qzaANTjNAiJ+ilW0yxa/jqCNlrwLFCdJq1r52PmbWP4nvPbUQP3jmRByd6VSrfLC8eoMtLnuddVzAb1IXmwMBydQKhXYdfAnCeFQVUz6LBIoEdqsERmCsIEe3UuBxkytkALHeJGN6aHjvXbkaq4tcY8jIBEoMuA3pyLWw45AwgtFnCUjvBRGFejI/EK1ufCYEiRvCMuj2JgxdQsxGuaeG/jpanDfQIl2Vu4dFWk3x0kXmTS/GT559LL71/OmYZ3xxa7AS7d4U7jltqkErZZsDLeKNTq8aX/Sa0jKkljwca6zjyrlIoEhg10tgGxiFVSth5uY2GznOOLlnKo7Pz8c0u4GtrgFG3F4qMIKXbWCkqBqGeRaUwlH4iSLPannGkzbh6TUAFIwS2X66XeYGdZjGPMLRVSN86AwXy7x5DUMLvorTrfjZU0/GD0+fivn9LBKxcZ2sMzExNZPGI91zBqTvszVmu4vV2jqG7bHYDBY9uhnGlVORQJHArpZAglEuVIYHrMMASKOL1lu7wepXB+cOxoHpyfh4hXl2bQCl93VCC7ANta7U/HLqtdqdQPTgea015hIOPMp5f9SYgDKN8KO8hCbP9Ud0wQm75QlW85DO+dBCcwk/xZs34isn5+JHXz8dzz7yUMz13LZgMyY6kzGFMaa9uUh3vRe9iRl653tiCa10imrszt89SMcSigSKBIoEKglUYJRNAG6LMUDHGL3WCKMBRiXr0OHDceTgbLxz6XwFMOfxGdTq0kzNtcYQjSuCMJ1jgKLmjhqOOSjJM7rnCVOtyvpGuqOfh2UKSLVCnzWxNJtX8GqJ3vA59U214ttPfiW+e3ohnj62D+8d7NtyE6D3epMxbRLWXWzSZR8A2JXWXg6ek30i26gduoQigSKBIoGdJdAWGAb5JtLUFLVGGzS+6LYzt/9AHGfHL+bkVQmdhqeDNfwagU+IWYIGlDyG12p7I+1RAFqygTp08Haai3EJVa5ziR2foTWuoD0679m0MxPxtflD8cLjC/HcYydZlbsbk7GOFriJgaXNcmJ0pXHJaXLdBIYtpgDiSh493sVt0dE1KcaKOChu5zBq4FiSe2YYS1cuiwSKBL4MEmirqFVIw0jBG4kAe7d9SNkGkk1gcoDNr+ePHiPhGbqxaHIdUqnVmVENUJbU7PBa7dBCeJTPjIOlqbbZDfeZ44aerZXxzCzP8wblO++5yzMszxNHZuP0saPx4sm98cLJafarnWO+M3lYGKLbbUevC/xwz+miIeZe05x1Em+w6k4bgw5u6dXatbxoWsip8fOF+sU+X66SukigSOD/VwLiqgpwyC50BUYstVw5C8aFFqbZ1vDo/mlmkfTjsxuM8SXYyKqFObVET9yPNMOhlphjhLXGSBo5aBot0Fqms9tNpPcCVj/IyVYs7JuOR4/OxamHDsX8kUNoq4fj2B4A3V4jm03ewnjdBYodsrDwLBpszoOmXS4SMZrdkm9BckLBWyWH8lkkUCRwfwk0Bpv0ZYUiUHFtG7vRuXYieTdyfnS169erb78bv/3ja3H5448zjWOQ6G2xjoN2P629WH+NoByXGKsg6bnyZZykq9xj/FAfSPM2gKrTBElAUvaUZYOcWfae3cfGVXOzM3EEEM+ygVU1nY8FLEja4aOJpukqOVM9pvrhtO24pD6YPS3PnN2fVlA2MbiQOoGYIwOqxh4lFAkUCRQJ3EcC28BoD1jjixZqHbkFZX84A2YVX8KryzdjeWU5wag2ucp8ZY908gZwTu1LEEraIRBra3ePbnJvcy3BmBoiMExHcRroVMMummAH4BnbwkjihMEO55yHQxsCh+0WxhVXyhGEXcYS9VNsUY/57DZTK0AUh/zj3KDNojCn/PmwgBEhlFAkUCRwPwlol8hQwQNtDui4WKwLPQwfJVg0chzGr/oAu/G5e9fq2iBWAdMG44CVoli596T6SU6VSLXQuow9m82YZLkwbS3G+7yPKudYJhzjPy5CxKsZtgBYk3FGS+4IQsY01xlL3MTZ3K6ysHVaoWBUS0z6UZMzaqyvrnP4ZnlfbNGVNMpnkUCRwP0l4IBdxRWVPQ+go6ZYjzf6XBgNmHHSpGvd0HiCttjV1xE3m76an91v8tl9pggOr4VrdccNaz20UysUhLmaN1qikBSO3ufKN6nt0XWHdVqprasF/DpA0F3+mmiGTeHnXGvq69AuVwHK7RltqG2wSkKefCEvbM6tR/m8fBQJFAkUCewkAVc0rNgBOfyXMAMidkXTbQcOCpW2HwQhpRY3yZJfLtTQB5JqjAkfTnV5amgDwJTje8S38EFssm5iveHVgDFA0JdwhHYJVssSyE1XwkmS6WgOFPmnhlgbVfJsnXKPynPudX2fkcMbmmwxvlelydq6EooEigSKBO4tgX8DF1/XQh3rzaoAAAAASUVORK5CYII=;" parent="1" vertex="1">
                    <mxGeometry x="312.0033007812501" y="194.00334960937496" width="326" height="159" as="geometry"/>
                </mxCell>
                <mxCell id="UzYKZvjn3l8_6wOiVzGm-20" value="" style="shape=curlyBracket;whiteSpace=wrap;html=1;rounded=1;flipH=1;labelPosition=right;verticalLabelPosition=middle;align=left;verticalAlign=middle;" parent="1" vertex="1">
                    <mxGeometry x="170" y="93" width="116" height="383" as="geometry"/>
                </mxCell>
                <mxCell id="UzYKZvjn3l8_6wOiVzGm-21" value="frontendB&lt;br&gt;(dapp-ms365-userdb)" style="whiteSpace=wrap;html=1;fillColor=#dae8fc;strokeColor=#6c8ebf;" parent="1" vertex="1">
                    <mxGeometry x="-151" y="506.5" width="120" height="41" as="geometry"/>
                </mxCell>
                <mxCell id="UzYKZvjn3l8_6wOiVzGm-25" style="edgeStyle=orthogonalEdgeStyle;rounded=0;orthogonalLoop=1;jettySize=auto;html=1;entryX=0;entryY=0.5;entryDx=0;entryDy=0;" parent="1" edge="1">
                    <mxGeometry relative="1" as="geometry">
                        <mxPoint x="-32" y="473" as="sourcePoint"/>
                        <mxPoint x="-3" y="472" as="targetPoint"/>
                    </mxGeometry>
                </mxCell>
                <mxCell id="UzYKZvjn3l8_6wOiVzGm-26" style="edgeStyle=orthogonalEdgeStyle;rounded=0;orthogonalLoop=1;jettySize=auto;html=1;entryX=0.25;entryY=1;entryDx=0;entryDy=0;" parent="1" edge="1">
                    <mxGeometry relative="1" as="geometry">
                        <mxPoint x="-31" y="527" as="sourcePoint"/>
                        <mxPoint x="27" y="493" as="targetPoint"/>
                        <Array as="points">
                            <mxPoint x="-13" y="527"/>
                            <mxPoint x="-13" y="508"/>
                            <mxPoint x="27" y="508"/>
                        </Array>
                    </mxGeometry>
                </mxCell>
                <mxCell id="UzYKZvjn3l8_6wOiVzGm-27" style="edgeStyle=orthogonalEdgeStyle;rounded=0;orthogonalLoop=1;jettySize=auto;html=1;exitX=1;exitY=0.75;exitDx=0;exitDy=0;entryX=0;entryY=0.75;entryDx=0;entryDy=0;" parent="1" edge="1">
                    <mxGeometry relative="1" as="geometry">
                        <mxPoint x="-31" y="537" as="sourcePoint"/>
                        <mxPoint x="-3" y="544" as="targetPoint"/>
                    </mxGeometry>
                </mxCell>
                <mxCell id="EyfEKk_S9e4_o2OftmkQ-1" value="&lt;font style=&quot;font-size: 24px;&quot;&gt;Run time&lt;/font&gt;&lt;br&gt;Nextjs dynamic import" style="rounded=0;whiteSpace=wrap;html=1;" parent="1" vertex="1">
                    <mxGeometry x="33" y="756" width="203" height="60" as="geometry"/>
                </mxCell>
                <mxCell id="EyfEKk_S9e4_o2OftmkQ-2" value="" style="verticalLabelPosition=bottom;verticalAlign=top;html=1;shadow=0;dashed=0;strokeWidth=1;shape=mxgraph.ios.iAddIcon;fillColor=#7AdF78;fillColor2=#1A9917;strokeColor=#ffffff;sketch=0;" parent="1" vertex="1">
                    <mxGeometry x="118.5" y="834" width="32" height="29" as="geometry"/>
                </mxCell>
                <mxCell id="EyfEKk_S9e4_o2OftmkQ-5" value="Performance&lt;br style=&quot;font-size: 21px;&quot;&gt;&amp;nbsp;improvement" style="text;html=1;align=center;verticalAlign=middle;resizable=0;points=[];autosize=1;strokeColor=none;fillColor=none;fontSize=21;" parent="1" vertex="1">
                    <mxGeometry x="-233" y="820.5" width="145" height="62" as="geometry"/>
                </mxCell>
                <mxCell id="EyfEKk_S9e4_o2OftmkQ-6" value="" style="shape=curlyBracket;whiteSpace=wrap;html=1;rounded=1;labelPosition=left;verticalLabelPosition=middle;align=right;verticalAlign=middle;" parent="1" vertex="1">
                    <mxGeometry x="-40" y="792" width="71" height="120" as="geometry"/>
                </mxCell>
                <mxCell id="EyfEKk_S9e4_o2OftmkQ-7" value="&lt;font style=&quot;font-size: 25px;&quot;&gt;Compile time&lt;/font&gt;&lt;br&gt;Tsup" style="rounded=0;whiteSpace=wrap;html=1;" parent="1" vertex="1">
                    <mxGeometry x="33" y="886" width="203" height="60" as="geometry"/>
                </mxCell>
                <mxCell id="EyfEKk_S9e4_o2OftmkQ-8" value="" style="shape=flexArrow;endArrow=classic;html=1;rounded=0;" parent="1" edge="1">
                    <mxGeometry width="50" height="50" relative="1" as="geometry">
                        <mxPoint x="-13" y="970" as="sourcePoint"/>
                        <mxPoint x="-13" y="1041" as="targetPoint"/>
                    </mxGeometry>
                </mxCell>
                <mxCell id="EyfEKk_S9e4_o2OftmkQ-9" value="npm namespace repository" style="shadow=0;dashed=0;html=1;labelPosition=center;verticalLabelPosition=bottom;verticalAlign=top;align=center;outlineConnect=0;shape=mxgraph.veeam.3d.backup_repository;" parent="1" vertex="1">
                    <mxGeometry x="-31" y="1075" width="62" height="62" as="geometry"/>
                </mxCell>
                <mxCell id="EyfEKk_S9e4_o2OftmkQ-10" value="" style="shape=image;verticalLabelPosition=bottom;labelBackgroundColor=default;verticalAlign=top;aspect=fixed;imageAspect=0;image=data:image/png,iVBORw0KGgoAAAANSUhEUgAAALgAAABcCAYAAADd5n9TAAAKrmlDQ1BJQ0MgUHJvZmlsZQAASImVlwdUU9kWhs+96SGhJYQiJfQmSCeAlBBaAAXpICohCRBKCIGgYkNEHIERRUUEKzoCouCoFBkrolgYFJViHZBBRBkHC6Ki8i6wCDPz1ntvvb3WXufLzj7/2eese+7aFwCyPEckSoblAUgRZoiDvN3pEZFRdNwQgAAayIH5QI/DTRcxAwP9AWKz49/tYzeSjdh9symtf///v5oCj5/OBQAKRDiWl85NQfgs4q+4InEGAKhDSFx3ZYZoilsRpoqRAhHuneL4GR6Z4thpRoPpnJAgFsJUAPAkDkccDwCJjsTpmdx4RIfkhrCFkCcQIixC2CUlJZWH8CmEjZAcJEaa0mfE/kUn/m+asVJNDideyjN7mTa8hyBdlMxZ/X8ex/+2lGTJ7BoGiJMSxD5ByKiInFlvUqqflIWxiwNmWcCbzp/mBIlP6Cxz01lRs8zjePhJ5yYv9p/lOIEXW6qTwQ6ZZX66Z/Asi1ODpGvFiVnMWeaI59aVJIVK4wl8tlQ/KyEkfJYzBWGLZzk9KdhvLocljYslQdL6+UJv97l1vaR7T0n/y34FbOncjIQQH+neOXP184XMOc30CGltPL6H51xOqDRflOEuXUuUHCjN5yd7S+PpmcHSuRnIAzk3N1B6hokc38BZBiyQCpIRFwM68Ed+eQCQwV+VMbURVqpotVgQn5BBZyI3jE9nC7nm8+lWFlbWAEzd15nH4T1t+h5CtFtzsZwPADjzJicnz8/F/PUAOLsZAOKLuZjhRQBklQG4UcCViDNnYtN3CQOIyHuAClSBJtAFRsAMWAE74ATcgCfwBQEgBESC5YALEkAKUvlKsBZsBHmgAGwHu0EZOAiOgCpwEpwGjeA8uAKug9vgLugCj0EfGASvwSj4CCYgCMJBZIgCqUJakD5kCllBDMgF8oT8oSAoEoqB4iEhJIHWQpugAqgYKoMOQ9XQz9A56Ap0E+qEHkL90DD0DvoCo2ASTIU1YAN4AcyAmbAfHAIvg+PhNDgLzoW3waVwBXwCboCvwLfhLrgPfg2PoQBKBkVDaaPMUAwUCxWAikLFocSo9ah8VAmqAlWLaka1oe6j+lAjqM9oLJqCpqPN0E5oH3QomotOQ69HF6LL0FXoBnQr+j66Hz2K/o4hY9QxphhHDBsTgYnHrMTkYUowxzD1mGuYLswg5iMWi6VhDbH2WB9sJDYRuwZbiN2PrcNexnZiB7BjOBxOFWeKc8YF4Di4DFwebi/uBO4S7h5uEPcJL4PXwlvhvfBReCE+B1+CP46/iL+HH8JPEOQJ+gRHQgCBR1hNKCIcJTQT7hAGCRNEBaIh0ZkYQkwkbiSWEmuJ14hPiO9lZGR0ZBxklsgIZLJlSmVOydyQ6Zf5TFIkmZBYpGiShLSNVEm6THpIek8mkw3IbuQocgZ5G7mafJX8jPxJliJrLsuW5clukC2XbZC9J/tGjiCnL8eUWy6XJVcid0bujtyIPEHeQJ4lz5FfL18uf06+R35MgaJgqRCgkKJQqHBc4abCS0WcooGipyJPMVfxiOJVxQEKiqJLYVG4lE2Uo5RrlEEqlmpIZVMTqQXUk9QO6qiSopKNUpjSKqVypQtKfTQUzYDGpiXTiminad20L8oaykxlvvJW5Vrle8rjKvNU3FT4KvkqdSpdKl9U6aqeqkmqO1QbVZ+qodVM1JaorVQ7oHZNbWQedZ7TPO68/Hmn5z1Sh9VN1IPU16gfUW9XH9PQ1PDWEGns1biqMaJJ03TTTNTcpXlRc1iLouWiJdDapXVJ6xVdic6kJ9NL6a30UW11bR9tifZh7Q7tCR1DnVCdHJ06nae6RF2GbpzuLt0W3VE9Lb1Femv1avQe6RP0GfoJ+nv02/THDQwNwg22GDQavDRUMWQbZhnWGD4xIhu5GqUZVRg9MMYaM4yTjPcb3zWBTWxNEkzKTe6YwqZ2pgLT/aad8zHzHeYL51fM7zEjmTHNMs1qzPrNaeb+5jnmjeZvFugtiFqwY0Hbgu8WthbJFkctHlsqWvpa5lg2W76zMrHiWpVbPbAmW3tZb7Busn5rY2rDtzlg02tLsV1ku8W2xfabnb2d2K7Wbthezz7Gfp99D4PKCGQUMm44YBzcHTY4nHf47GjnmOF42vFPJzOnJKfjTi8XGi7kLzy6cMBZx5njfNi5z4XuEuNyyKXPVduV41rh+txN143ndsxtiGnMTGSeYL5xt3AXu9e7j7McWetYlz1QHt4e+R4dnoqeoZ5lns+8dLzivWq8Rr1tvdd4X/bB+Pj57PDpYWuwuexq9qivve8631Y/kl+wX5nfc38Tf7F/8yJ4ke+inYueLNZfLFzcGAAC2AE7A54GGgamBf6yBLskcEn5khdBlkFrg9qCKcErgo8HfwxxDykKeRxqFCoJbQmTC4sOqw4bD/cILw7vi1gQsS7idqRapCCyKQoXFRZ1LGpsqefS3UsHo22j86K7lxkuW7Xs5nK15cnLL6yQW8FZcSYGExMeczzmKyeAU8EZi2XH7osd5bK4e7iveW68XbxhvjO/mD8U5xxXHPcy3jl+Z/xwgmtCScKIgCUoE7xN9Ek8mDieFJBUmTSZHJ5cl4JPiUk5J1QUJglbUzVTV6V2ikxFeaK+NMe03WmjYj/xsXQofVl6UwYVaYzaJUaSzZL+TJfM8sxPK8NWnlmlsEq4qn21yeqtq4eyvLJ+WoNew13TslZ77ca1/euY6w6vh9bHrm/ZoLshd8Ngtnd21UbixqSNv+ZY5BTnfNgUvqk5VyM3O3dgs/fmmjzZPHFezxanLQd/QP8g+KFjq/XWvVu/5/PybxVYFJQUfC3kFt760fLH0h8nt8Vt6yiyKzqwHbtduL17h+uOqmKF4qzigZ2Ldjbsou/K3/Vh94rdN0tsSg7uIe6R7Okr9S9t2qu3d/ver2UJZV3l7uV1+9T3bd03vp+3/94BtwO1BzUOFhz8ckhwqPew9+GGCoOKkiPYI5lHXhwNO9r2E+On6mNqxwqOfasUVvZVBVW1VttXVx9XP15UA9dIaoZPRJ+4e9LjZFOtWe3hOlpdwSlwSnLq1c8xP3ef9jvdcoZxpvas/tl99ZT6/AaoYXXDaGNCY19TZFPnOd9zLc1OzfW/mP9SeV77fPkFpQtFF4kXcy9OXsq6NHZZdHnkSvyVgZYVLY+vRlx90LqkteOa37Ub172uX21jtl264Xzj/E3Hm+duMW413ra73dBu217/q+2v9R12HQ137O803XW429y5sPPiPdd7V+573L/+gP3gdtfirs7u0O7enuievl5e78uHyQ/fPsp8NPE4+wnmSf5T+aclz9SfVfxm/Ftdn13fhX6P/vbnwc8fD3AHXv+e/vvXwdwX5BclQ1pD1S+tXp4f9hq++2rpq8HXotcTI3l/KPyx743Rm7N/uv3ZPhoxOvhW/HbyXeF71feVH2w+tIwFjj37mPJxYjz/k+qnqs+Mz21fwr8MTaz8ivta+s34W/N3v+9PJlMmJ0UcMWe6FUAhDsfFAfCuEgByJACUu0j/sHSmn542aOYbYJrAf+KZnnva7ACoRYaptoh1GYBTiBtkI9puAEy1RCFuALa2lvps7zvdp08ZFvliOeQyRV0qvGzwD5vp4f9S9z9HMKVqA/45/gsrVQZphLm9wAAAAIplWElmTU0AKgAAAAgABAEaAAUAAAABAAAAPgEbAAUAAAABAAAARgEoAAMAAAABAAIAAIdpAAQAAAABAAAATgAAAAAAAACQAAAAAQAAAJAAAAABAAOShgAHAAAAEgAAAHigAgAEAAAAAQAAALigAwAEAAAAAQAAAFwAAAAAQVNDSUkAAABTY3JlZW5zaG900TngOAAAAAlwSFlzAAAWJQAAFiUBSVIk8AAAAdVpVFh0WE1MOmNvbS5hZG9iZS54bXAAAAAAADx4OnhtcG1ldGEgeG1sbnM6eD0iYWRvYmU6bnM6bWV0YS8iIHg6eG1wdGs9IlhNUCBDb3JlIDYuMC4wIj4KICAgPHJkZjpSREYgeG1sbnM6cmRmPSJodHRwOi8vd3d3LnczLm9yZy8xOTk5LzAyLzIyLXJkZi1zeW50YXgtbnMjIj4KICAgICAgPHJkZjpEZXNjcmlwdGlvbiByZGY6YWJvdXQ9IiIKICAgICAgICAgICAgeG1sbnM6ZXhpZj0iaHR0cDovL25zLmFkb2JlLmNvbS9leGlmLzEuMC8iPgogICAgICAgICA8ZXhpZjpQaXhlbFlEaW1lbnNpb24+OTI8L2V4aWY6UGl4ZWxZRGltZW5zaW9uPgogICAgICAgICA8ZXhpZjpQaXhlbFhEaW1lbnNpb24+MTg0PC9leGlmOlBpeGVsWERpbWVuc2lvbj4KICAgICAgICAgPGV4aWY6VXNlckNvbW1lbnQ+U2NyZWVuc2hvdDwvZXhpZjpVc2VyQ29tbWVudD4KICAgICAgPC9yZGY6RGVzY3JpcHRpb24+CiAgIDwvcmRmOlJERj4KPC94OnhtcG1ldGE+CrSmQM0AAAAcaURPVAAAAAIAAAAAAAAALgAAACgAAAAuAAAALgAAAn18ytouAAACSUlEQVR4AeyZfU7DMAxHt5uAuBSIC/cSCG4CaUUiRfIs13a7zXr7px+Z3eT9XrsKrr/tc+EDgaIErgheNFmWtRFAcEQoTQDBS8fL4hAcB0oTQPDS8bI4BMeB0gQQvHS8LA7BcaA0AQQvHS+LQ3AcKE0AwUvHy+IQHAdKE0Dw0vGyOATHgdIEELx0vCwOwXGgNAEELx0vi0sT/O3l9aFofv1835zPM8318/3jsizLzbU864CWT+aaEDyTprOXFjaCO6H+lyF4jF9KNYKnYBSbILiI5dyTCH4cbwQ/jq25M4KbUe3+IoLvRpZfgOD5THtHBO8k7rhF8OPgI/hxbM2dEdyMavcXEXw3svwCBM9n2js+nOBa2H3Sln/UaH0s9f1a2la7Rq+zXEvrk/V3cO0aWXPN7tP7RbYIHqB3hjQIHgiolSJ4gB+Cy/Civ1pyV99ZBPdx26oQXIaH4DKX06SxBKBMcQwh+EAx7Vj4WthNTZ0HPMGd4NYyS0jRsHkHDwTUShE8wA/BZXjRm1ru6juL4D5uWxWCy/AQXOZymjSWAJQpjiEEHyimHQtfC7upqfOAJ7gT3FpmCSkaNu/ggYBaKYIH+CG4DC96U8tdfWcR3Mdtq0JwGR6Cy1xOk8YSgDLFMYTgA8W0Y+FrYTc1dR7wBHeCW8ssIUXD5h08EFArRfAAPwSX4UVvarmr7yyC+7htVQguw0Nwmctp0lgCUKY4hhB8oJh2LHwt7KamzgOe4E5wa5klpGjYvIMHAmqlCB7jl1Kt3SgIHkP8BwAA//+6wAy/AAAB0ElEQVTtmEFqw0AQBOWfJPhTCf6wPhGcnyS56GbWI3p63JDSRSB2epuaOuny8/dsDc/17b0hZdu+vu9Pcyp3rXIq809LNB5Ydb19fG77vsu3re44witcJnOOXsr7guAKvp7ZlTQIrjFGcI1fyzSCt2B8GILgD7HMfkRwH28E97EtJyN4GdXpgwh+Gln/AIL3Mz0SEfwg8cI3gvvgI7iPbTkZwcuoTh9sE/z0zS8cqPzvrdRbiVmZ54yfAIILjBFcgDc0iuACaAQX4A2NIrgAGsEFeEOjCC6ARnAB3tAoggugEVyANzSK4AJoBBfgDY0iuAAawQV4Q6MILoBGcAHe0Oi/FHyILdcEEEDwgCVQwUcAwX1sSQ4ggOABS6CCjwCC+9iSHEAAwQOWQAUfAQT3sSU5gACCByyBCj4CCO5jS3IAAQQPWAIVfAQQ3MeW5AACCB6wBCr4CCC4jy3JAQQQPGAJVPARQHAfW5IDCCB4wBKo4COA4D62JAcQQPCAJVDBRwDBfWxJDiCA4AFLoIKPAIL72JIcQADBA5ZABR8BBPexJTmAAIIHLIEKPgII7mNLcgABBA9YAhV8BBDcx5bkAAIIHrAEKvgIILiPLckBBH4Bfx1jKZReNzkAAAAASUVORK5CYII=;" parent="1" vertex="1">
                    <mxGeometry x="5.996625976562484" y="66.00331298828125" width="184" height="92" as="geometry"/>
                </mxCell>
                <mxCell id="EyfEKk_S9e4_o2OftmkQ-12" value="" style="shape=image;verticalLabelPosition=bottom;labelBackgroundColor=default;verticalAlign=top;aspect=fixed;imageAspect=0;image=data:image/png,iVBORw0KGgoAAAANSUhEUgAAALgAAABcCAYAAADd5n9TAAAKrmlDQ1BJQ0MgUHJvZmlsZQAASImVlwdUU9kWhs+96SGhJYQiJfQmSCeAlBBaAAXpICohCRBKCIGgYkNEHIERRUUEKzoCouCoFBkrolgYFJViHZBBRBkHC6Ki8i6wCDPz1ntvvb3WXufLzj7/2eese+7aFwCyPEckSoblAUgRZoiDvN3pEZFRdNwQgAAayIH5QI/DTRcxAwP9AWKz49/tYzeSjdh9symtf///v5oCj5/OBQAKRDiWl85NQfgs4q+4InEGAKhDSFx3ZYZoilsRpoqRAhHuneL4GR6Z4thpRoPpnJAgFsJUAPAkDkccDwCJjsTpmdx4RIfkhrCFkCcQIixC2CUlJZWH8CmEjZAcJEaa0mfE/kUn/m+asVJNDideyjN7mTa8hyBdlMxZ/X8ex/+2lGTJ7BoGiJMSxD5ByKiInFlvUqqflIWxiwNmWcCbzp/mBIlP6Cxz01lRs8zjePhJ5yYv9p/lOIEXW6qTwQ6ZZX66Z/Asi1ODpGvFiVnMWeaI59aVJIVK4wl8tlQ/KyEkfJYzBWGLZzk9KdhvLocljYslQdL6+UJv97l1vaR7T0n/y34FbOncjIQQH+neOXP184XMOc30CGltPL6H51xOqDRflOEuXUuUHCjN5yd7S+PpmcHSuRnIAzk3N1B6hokc38BZBiyQCpIRFwM68Ed+eQCQwV+VMbURVqpotVgQn5BBZyI3jE9nC7nm8+lWFlbWAEzd15nH4T1t+h5CtFtzsZwPADjzJicnz8/F/PUAOLsZAOKLuZjhRQBklQG4UcCViDNnYtN3CQOIyHuAClSBJtAFRsAMWAE74ATcgCfwBQEgBESC5YALEkAKUvlKsBZsBHmgAGwHu0EZOAiOgCpwEpwGjeA8uAKug9vgLugCj0EfGASvwSj4CCYgCMJBZIgCqUJakD5kCllBDMgF8oT8oSAoEoqB4iEhJIHWQpugAqgYKoMOQ9XQz9A56Ap0E+qEHkL90DD0DvoCo2ASTIU1YAN4AcyAmbAfHAIvg+PhNDgLzoW3waVwBXwCboCvwLfhLrgPfg2PoQBKBkVDaaPMUAwUCxWAikLFocSo9ah8VAmqAlWLaka1oe6j+lAjqM9oLJqCpqPN0E5oH3QomotOQ69HF6LL0FXoBnQr+j66Hz2K/o4hY9QxphhHDBsTgYnHrMTkYUowxzD1mGuYLswg5iMWi6VhDbH2WB9sJDYRuwZbiN2PrcNexnZiB7BjOBxOFWeKc8YF4Di4DFwebi/uBO4S7h5uEPcJL4PXwlvhvfBReCE+B1+CP46/iL+HH8JPEOQJ+gRHQgCBR1hNKCIcJTQT7hAGCRNEBaIh0ZkYQkwkbiSWEmuJ14hPiO9lZGR0ZBxklsgIZLJlSmVOydyQ6Zf5TFIkmZBYpGiShLSNVEm6THpIek8mkw3IbuQocgZ5G7mafJX8jPxJliJrLsuW5clukC2XbZC9J/tGjiCnL8eUWy6XJVcid0bujtyIPEHeQJ4lz5FfL18uf06+R35MgaJgqRCgkKJQqHBc4abCS0WcooGipyJPMVfxiOJVxQEKiqJLYVG4lE2Uo5RrlEEqlmpIZVMTqQXUk9QO6qiSopKNUpjSKqVypQtKfTQUzYDGpiXTiminad20L8oaykxlvvJW5Vrle8rjKvNU3FT4KvkqdSpdKl9U6aqeqkmqO1QbVZ+qodVM1JaorVQ7oHZNbWQedZ7TPO68/Hmn5z1Sh9VN1IPU16gfUW9XH9PQ1PDWEGns1biqMaJJ03TTTNTcpXlRc1iLouWiJdDapXVJ6xVdic6kJ9NL6a30UW11bR9tifZh7Q7tCR1DnVCdHJ06nae6RF2GbpzuLt0W3VE9Lb1Femv1avQe6RP0GfoJ+nv02/THDQwNwg22GDQavDRUMWQbZhnWGD4xIhu5GqUZVRg9MMYaM4yTjPcb3zWBTWxNEkzKTe6YwqZ2pgLT/aad8zHzHeYL51fM7zEjmTHNMs1qzPrNaeb+5jnmjeZvFugtiFqwY0Hbgu8WthbJFkctHlsqWvpa5lg2W76zMrHiWpVbPbAmW3tZb7Busn5rY2rDtzlg02tLsV1ku8W2xfabnb2d2K7Wbthezz7Gfp99D4PKCGQUMm44YBzcHTY4nHf47GjnmOF42vFPJzOnJKfjTi8XGi7kLzy6cMBZx5njfNi5z4XuEuNyyKXPVduV41rh+txN143ndsxtiGnMTGSeYL5xt3AXu9e7j7McWetYlz1QHt4e+R4dnoqeoZ5lns+8dLzivWq8Rr1tvdd4X/bB+Pj57PDpYWuwuexq9qivve8631Y/kl+wX5nfc38Tf7F/8yJ4ke+inYueLNZfLFzcGAAC2AE7A54GGgamBf6yBLskcEn5khdBlkFrg9qCKcErgo8HfwxxDykKeRxqFCoJbQmTC4sOqw4bD/cILw7vi1gQsS7idqRapCCyKQoXFRZ1LGpsqefS3UsHo22j86K7lxkuW7Xs5nK15cnLL6yQW8FZcSYGExMeczzmKyeAU8EZi2XH7osd5bK4e7iveW68XbxhvjO/mD8U5xxXHPcy3jl+Z/xwgmtCScKIgCUoE7xN9Ek8mDieFJBUmTSZHJ5cl4JPiUk5J1QUJglbUzVTV6V2ikxFeaK+NMe03WmjYj/xsXQofVl6UwYVaYzaJUaSzZL+TJfM8sxPK8NWnlmlsEq4qn21yeqtq4eyvLJ+WoNew13TslZ77ca1/euY6w6vh9bHrm/ZoLshd8Ngtnd21UbixqSNv+ZY5BTnfNgUvqk5VyM3O3dgs/fmmjzZPHFezxanLQd/QP8g+KFjq/XWvVu/5/PybxVYFJQUfC3kFt760fLH0h8nt8Vt6yiyKzqwHbtduL17h+uOqmKF4qzigZ2Ldjbsou/K3/Vh94rdN0tsSg7uIe6R7Okr9S9t2qu3d/ver2UJZV3l7uV1+9T3bd03vp+3/94BtwO1BzUOFhz8ckhwqPew9+GGCoOKkiPYI5lHXhwNO9r2E+On6mNqxwqOfasUVvZVBVW1VttXVx9XP15UA9dIaoZPRJ+4e9LjZFOtWe3hOlpdwSlwSnLq1c8xP3ef9jvdcoZxpvas/tl99ZT6/AaoYXXDaGNCY19TZFPnOd9zLc1OzfW/mP9SeV77fPkFpQtFF4kXcy9OXsq6NHZZdHnkSvyVgZYVLY+vRlx90LqkteOa37Ub172uX21jtl264Xzj/E3Hm+duMW413ra73dBu217/q+2v9R12HQ137O803XW429y5sPPiPdd7V+573L/+gP3gdtfirs7u0O7enuievl5e78uHyQ/fPsp8NPE4+wnmSf5T+aclz9SfVfxm/Ftdn13fhX6P/vbnwc8fD3AHXv+e/vvXwdwX5BclQ1pD1S+tXp4f9hq++2rpq8HXotcTI3l/KPyx743Rm7N/uv3ZPhoxOvhW/HbyXeF71feVH2w+tIwFjj37mPJxYjz/k+qnqs+Mz21fwr8MTaz8ivta+s34W/N3v+9PJlMmJ0UcMWe6FUAhDsfFAfCuEgByJACUu0j/sHSmn542aOYbYJrAf+KZnnva7ACoRYaptoh1GYBTiBtkI9puAEy1RCFuALa2lvps7zvdp08ZFvliOeQyRV0qvGzwD5vp4f9S9z9HMKVqA/45/gsrVQZphLm9wAAAAIplWElmTU0AKgAAAAgABAEaAAUAAAABAAAAPgEbAAUAAAABAAAARgEoAAMAAAABAAIAAIdpAAQAAAABAAAATgAAAAAAAACQAAAAAQAAAJAAAAABAAOShgAHAAAAEgAAAHigAgAEAAAAAQAAALigAwAEAAAAAQAAAFwAAAAAQVNDSUkAAABTY3JlZW5zaG900TngOAAAAAlwSFlzAAAWJQAAFiUBSVIk8AAAAdVpVFh0WE1MOmNvbS5hZG9iZS54bXAAAAAAADx4OnhtcG1ldGEgeG1sbnM6eD0iYWRvYmU6bnM6bWV0YS8iIHg6eG1wdGs9IlhNUCBDb3JlIDYuMC4wIj4KICAgPHJkZjpSREYgeG1sbnM6cmRmPSJodHRwOi8vd3d3LnczLm9yZy8xOTk5LzAyLzIyLXJkZi1zeW50YXgtbnMjIj4KICAgICAgPHJkZjpEZXNjcmlwdGlvbiByZGY6YWJvdXQ9IiIKICAgICAgICAgICAgeG1sbnM6ZXhpZj0iaHR0cDovL25zLmFkb2JlLmNvbS9leGlmLzEuMC8iPgogICAgICAgICA8ZXhpZjpQaXhlbFlEaW1lbnNpb24+OTI8L2V4aWY6UGl4ZWxZRGltZW5zaW9uPgogICAgICAgICA8ZXhpZjpQaXhlbFhEaW1lbnNpb24+MTg0PC9leGlmOlBpeGVsWERpbWVuc2lvbj4KICAgICAgICAgPGV4aWY6VXNlckNvbW1lbnQ+U2NyZWVuc2hvdDwvZXhpZjpVc2VyQ29tbWVudD4KICAgICAgPC9yZGY6RGVzY3JpcHRpb24+CiAgIDwvcmRmOlJERj4KPC94OnhtcG1ldGE+CrSmQM0AAAAcaURPVAAAAAIAAAAAAAAALgAAACgAAAAuAAAALgAAAn18ytouAAACSUlEQVR4AeyZfU7DMAxHt5uAuBSIC/cSCG4CaUUiRfIs13a7zXr7px+Z3eT9XrsKrr/tc+EDgaIErgheNFmWtRFAcEQoTQDBS8fL4hAcB0oTQPDS8bI4BMeB0gQQvHS8LA7BcaA0AQQvHS+LQ3AcKE0AwUvHy+IQHAdKE0Dw0vGyOATHgdIEELx0vCwOwXGgNAEELx0vi0sT/O3l9aFofv1835zPM8318/3jsizLzbU864CWT+aaEDyTprOXFjaCO6H+lyF4jF9KNYKnYBSbILiI5dyTCH4cbwQ/jq25M4KbUe3+IoLvRpZfgOD5THtHBO8k7rhF8OPgI/hxbM2dEdyMavcXEXw3svwCBM9n2js+nOBa2H3Sln/UaH0s9f1a2la7Rq+zXEvrk/V3cO0aWXPN7tP7RbYIHqB3hjQIHgiolSJ4gB+Cy/Civ1pyV99ZBPdx26oQXIaH4DKX06SxBKBMcQwh+EAx7Vj4WthNTZ0HPMGd4NYyS0jRsHkHDwTUShE8wA/BZXjRm1ru6juL4D5uWxWCy/AQXOZymjSWAJQpjiEEHyimHQtfC7upqfOAJ7gT3FpmCSkaNu/ggYBaKYIH+CG4DC96U8tdfWcR3Mdtq0JwGR6Cy1xOk8YSgDLFMYTgA8W0Y+FrYTc1dR7wBHeCW8ssIUXD5h08EFArRfAAPwSX4UVvarmr7yyC+7htVQguw0Nwmctp0lgCUKY4hhB8oJh2LHwt7KamzgOe4E5wa5klpGjYvIMHAmqlCB7jl1Kt3SgIHkP8BwAA//+6wAy/AAAB0ElEQVTtmEFqw0AQBOWfJPhTCf6wPhGcnyS56GbWI3p63JDSRSB2epuaOuny8/dsDc/17b0hZdu+vu9Pcyp3rXIq809LNB5Ydb19fG77vsu3re44witcJnOOXsr7guAKvp7ZlTQIrjFGcI1fyzSCt2B8GILgD7HMfkRwH28E97EtJyN4GdXpgwh+Gln/AIL3Mz0SEfwg8cI3gvvgI7iPbTkZwcuoTh9sE/z0zS8cqPzvrdRbiVmZ54yfAIILjBFcgDc0iuACaAQX4A2NIrgAGsEFeEOjCC6ARnAB3tAoggugEVyANzSK4AJoBBfgDY0iuAAawQV4Q6MILoBGcAHe0Oi/FHyILdcEEEDwgCVQwUcAwX1sSQ4ggOABS6CCjwCC+9iSHEAAwQOWQAUfAQT3sSU5gACCByyBCj4CCO5jS3IAAQQPWAIVfAQQ3MeW5AACCB6wBCr4CCC4jy3JAQQQPGAJVPARQHAfW5IDCCB4wBKo4COA4D62JAcQQPCAJVDBRwDBfWxJDiCA4AFLoIKPAIL72JIcQADBA5ZABR8BBPexJTmAAIIHLIEKPgII7mNLcgABBA9YAhV8BBDcx5bkAAIIHrAEKvgIILiPLckBBH4Bfx1jKZReNzkAAAAASUVORK5CYII=;" parent="1" vertex="1">
                    <mxGeometry x="37.996625976562484" y="1064.0033129882813" width="184" height="92" as="geometry"/>
                </mxCell>
                <mxCell id="EyfEKk_S9e4_o2OftmkQ-13" value="" style="shape=image;html=1;verticalAlign=top;verticalLabelPosition=bottom;labelBackgroundColor=#ffffff;imageAspect=0;aspect=fixed;image=https://cdn2.iconfinder.com/data/icons/woothemes/PNG/speed.png" parent="1" vertex="1">
                    <mxGeometry x="-97" y="817" width="69" height="69" as="geometry"/>
                </mxCell>
            </root>
        </mxGraphModel>
    </diagram>
</mxfile>